<svg xmlns="http://www.w3.org/2000/svg" xmlns:xlink="http://www.w3.org/1999/xlink" viewBox="0 0 51.22 58.49"><defs><style>.cls-1,.cls-10,.cls-11,.cls-12,.cls-13,.cls-14,.cls-2,.cls-3,.cls-4,.cls-5,.cls-6,.cls-7,.cls-8,.cls-9{fill:none;}.cls-2{clip-path:url(#clip-path);}.cls-3{clip-path:url(#clip-path-2);}.cls-4{clip-path:url(#clip-path-13);}.cls-5{clip-path:url(#clip-path-3);}.cls-6{clip-path:url(#clip-path-4);}.cls-7{clip-path:url(#clip-path-5);}.cls-8{clip-path:url(#clip-path-6);}.cls-9{clip-path:url(#clip-path-7);}.cls-10{clip-path:url(#clip-path-8);}.cls-11{clip-path:url(#clip-path-9);}.cls-12{clip-path:url(#clip-path-10);}.cls-13{clip-path:url(#clip-path-11);}.cls-14{clip-path:url(#clip-path-12);}.cls-15{fill:#1d1d1b;}.cls-16{clip-path:url(#clip-path-14);}.cls-17{fill:#e30613;}.cls-18{fill:#fff;}</style><clipPath id="clip-path"><path class="cls-1" d="M40.23,14.59a10.53,10.53,0,0,0,3.81,3,18.76,18.76,0,0,1,2.13,1l.22.13a4.1,4.1,0,0,1,1.69,1.83,2.15,2.15,0,0,1,.16.83,2.49,2.49,0,0,1-.25,1,3,3,0,0,1,.76,3.44,1.42,1.42,0,0,1-1.46.92,2,2,0,0,1-1.15-.57,1.85,1.85,0,0,0,.33.85l.44.48-.64-.09a3.64,3.64,0,0,1-2.67-1.53c-.07.76-.1,1.43-.1,1.94a5.09,5.09,0,0,0,.34,2.25,2.58,2.58,0,0,0,.1-1.17l-.12-.77.52.57A4.15,4.15,0,0,1,45.6,32a1.87,1.87,0,0,1-.8,1.37,2.24,2.24,0,0,1-2.3-.08,4,4,0,0,1-1.9-3.58l.16-2.82A7.48,7.48,0,0,0,40.23,23Z"/></clipPath><clipPath id="clip-path-2"><path class="cls-4" d="M30,53.71a10.78,10.78,0,0,1,1.5-1.52,7,7,0,0,1-1.69.39c-1.23.18-2,.51-2.28,1.07a1.71,1.71,0,0,0-.23.91,3.57,3.57,0,0,0,.16.79A3.16,3.16,0,0,1,30,53.71Z"/></clipPath><clipPath id="clip-path-3"><path class="cls-3" d="M32.17,54.69a3.21,3.21,0,0,1-.27-1.29,5.46,5.46,0,0,1,.16-1.27,13.56,13.56,0,0,0-2.78,3.44A3,3,0,0,1,28,57a4.13,4.13,0,0,0,4-2A2.29,2.29,0,0,1,32.17,54.69Z"/></clipPath><clipPath id="clip-path-4"><path class="cls-5" d="M41.63,36.78v-.41a7.78,7.78,0,0,0-.2-1.6l-.13-.26a27.92,27.92,0,0,1-2-4.34,8.88,8.88,0,0,0,1,3.63A9,9,0,0,1,41.63,36.78Z"/></clipPath><clipPath id="clip-path-5"><path class="cls-6" d="M39.65,43.12a1.66,1.66,0,0,1-2.11-.54A2.92,2.92,0,0,0,38.6,45a1.09,1.09,0,0,0,1,.17.8.8,0,0,0,.6-.51,2.88,2.88,0,0,0,.2-1.12,5.38,5.38,0,0,0-.14-1.13A1.19,1.19,0,0,1,39.65,43.12Z"/></clipPath><clipPath id="clip-path-6"><path class="cls-2" d="M43.54,31.17a1.26,1.26,0,0,1-1.19,0,3.07,3.07,0,0,1-1.24-1.1,3.53,3.53,0,0,0,1.62,2.75,1.75,1.75,0,0,0,1.82.09,1.4,1.4,0,0,0,.59-1V31.6a3.72,3.72,0,0,0-.75-2,2.11,2.11,0,0,1-.32,1,.21.21,0,0,1-.06.1h0A1.71,1.71,0,0,1,43.54,31.17Z"/></clipPath><clipPath id="clip-path-7"><path class="cls-8" d="M47.29,23.17a2.11,2.11,0,0,1-1.43.1.51.51,0,0,1,.16.09l.36.31c.31.3.45.41.76.24a.35.35,0,0,0,.18-.3A1.08,1.08,0,0,0,47.29,23.17Z"/></clipPath><clipPath id="clip-path-8"><path class="cls-9" d="M47.74,22.83l-.06.08a1.5,1.5,0,0,1,.1.78.83.83,0,0,1-.43.64A1,1,0,0,1,46.07,24l-.31-.27a1.35,1.35,0,0,0-.79-.27,2.7,2.7,0,0,1,1,1.66,1,1,0,0,0,.06.25,1.68,1.68,0,0,0,1.31.93,1,1,0,0,0,1-.68A2.51,2.51,0,0,0,47.74,22.83Z"/></clipPath><clipPath id="clip-path-9"><path class="cls-10" d="M44.39,21.88a2.17,2.17,0,0,1-1.48-.9"/></clipPath><clipPath id="clip-path-10"><path class="cls-11" d="M42.91,21a2.71,2.71,0,0,1-.41-.77s1.1-.23,1.18-.8c.1-.73-.67-1.64-1-2a21,21,0,0,1-2.4-2.11v6.9a6.63,6.63,0,0,1,.92,2.94,35.91,35.91,0,0,1-.07,4h0a2.91,2.91,0,0,0,1.42,1.66.85.85,0,0,0,.79,0,1.64,1.64,0,0,0,.25-.21c-.47-.7-.66-2.17-.46-4.18a16.86,16.86,0,0,1,.27-2,4.56,4.56,0,0,0,.24.71,3,3,0,0,0,2.23,1.78,3.63,3.63,0,0,1-.25-1.21,2.33,2.33,0,0,0-1.29-2.05l-.45-.14a2.11,2.11,0,0,1,1.4-.52,2.27,2.27,0,0,1-.89-1.16"/></clipPath><clipPath id="clip-path-11"><path class="cls-12" d="M47.49,22.33c1.1-1.57-1-3.15-1.67-3.41.1.33,1,2.48-1,3C45.18,22.67,46.7,23.44,47.49,22.33Z"/></clipPath><clipPath id="clip-path-12"><path class="cls-13" d="M39.25,28.06l.13.69c.16,1.51,2,4.94,2.51,5.89a9.54,9.54,0,0,1,1,3.58,2.42,2.42,0,0,1-.61,1.8,1.69,1.69,0,0,1-2,.31,1.55,1.55,0,0,1-.39-.28,19,19,0,0,1,.88,3.47,2.89,2.89,0,0,1-.23,1.3,1.4,1.4,0,0,1-.93.86,1.54,1.54,0,0,1-1.4-.31,3,3,0,0,1-.8-1.17,9.15,9.15,0,0,1-.1,1c-.07.65-.07.87-.18,1.48-.23,1.3-.38,2.26,0,2.75a.63.63,0,0,0,.83.11l.26-.15.28-.13.07.57a3.1,3.1,0,0,1-.84,2.92,1.92,1.92,0,0,1-2.61.16,2.28,2.28,0,0,1-.53-.67,4.21,4.21,0,0,1-.6,1.49,6.24,6.24,0,0,0-.88,1.84L33,56a2.59,2.59,0,0,1-.32-.42,3.11,3.11,0,0,1-.22-.4,4.36,4.36,0,0,1-5.12,2.07,1.31,1.31,0,0,1-.45-.28l.51-.14A3.36,3.36,0,0,0,29,55.25a9.86,9.86,0,0,1,.69-1,3.87,3.87,0,0,0-2.12,1.9l-.23.53-.19-.55a4.48,4.48,0,0,1-.3-1.53,2.3,2.3,0,0,1,.2-.81,1.85,1.85,0,0,1-.07-.41,2,2,0,0,1,1.12-1.92,5.74,5.74,0,0,1,1.44-.56,1.65,1.65,0,0,1-.44-.1L29,50.73v-.14c0-.07,0-1.6,2.06-2.12l.92-.2.95-.21a2.74,2.74,0,0,0,1.22-1.68,4.43,4.43,0,0,1-1.49.49s-.18-2.2.57-3.19,2.93-.9,2.9-3.41a11.31,11.31,0,0,0-1.88,1.08,38,38,0,0,0,3.4-7A29.13,29.13,0,0,0,39.25,28.06Z"/></clipPath><clipPath id="clip-path-13"><path class="cls-14" d="M35.11,40.23a4,4,0,0,1,1.31-.58,3.42,3.42,0,0,1,.12.9c0,2.18-2.22,2.67-2.83,3.24s-.59,1.92-.6,2.39a3.65,3.65,0,0,0,1.55-.77,4,4,0,0,1-.7,2.25A3.07,3.07,0,0,0,35.9,45c.3-2.17.4-3,1.3-3.26.24.52,1.68,1.28,2.21.95.8-.49.3-2,0-2.86-.64-1.66-1.19-4.6-.33-6.28a12,12,0,0,0,.13,3.64h0s1.12,1.31,1.94.72a1.09,1.09,0,0,0,.27-.33A9.15,9.15,0,0,0,40,34.07a7.63,7.63,0,0,1-.69-3.91,2.63,2.63,0,0,0-.13-.57,38.07,38.07,0,0,1-1.65,5.32A37.39,37.39,0,0,1,35.11,40.23Z"/></clipPath><clipPath id="clip-path-14"><path class="cls-7" d="M42.11,36.31v.08a2.38,2.38,0,0,1-.7,1.94c-.62.47-1.4.14-2.07-.36a2.57,2.57,0,0,0,1.21,1.93A1.26,1.26,0,0,0,42,39.69a2.08,2.08,0,0,0,.47-1.48A6.45,6.45,0,0,0,42.11,36.31Z"/></clipPath></defs><title>favicon</title><g id="Layer_2" data-name="Layer 2"><g id="Layer_1-2" data-name="Layer 1"><path id="SVGID-15" class="cls-15" d="M40.23,14.59a10.53,10.53,0,0,0,3.81,3,18.76,18.76,0,0,1,2.13,1l.22.13a4.1,4.1,0,0,1,1.69,1.83,2.15,2.15,0,0,1,.16.83,2.49,2.49,0,0,1-.25,1,3,3,0,0,1,.76,3.44,1.42,1.42,0,0,1-1.46.92,2,2,0,0,1-1.15-.57,1.85,1.85,0,0,0,.33.85l.44.48-.64-.09a3.64,3.64,0,0,1-2.67-1.53c-.07.76-.1,1.43-.1,1.94a5.09,5.09,0,0,0,.34,2.25,2.58,2.58,0,0,0,.1-1.17l-.12-.77.52.57A4.15,4.15,0,0,1,45.6,32a1.87,1.87,0,0,1-.8,1.37,2.24,2.24,0,0,1-2.3-.08,4,4,0,0,1-1.9-3.58l.16-2.82A7.48,7.48,0,0,0,40.23,23Z"/><path id="SVGID-16" class="cls-15" d="M43.54,31.17a1.26,1.26,0,0,1-1.19,0,3.07,3.07,0,0,1-1.24-1.1,3.53,3.53,0,0,0,1.62,2.75,1.75,1.75,0,0,0,1.82.09,1.4,1.4,0,0,0,.59-1V31.6a3.72,3.72,0,0,0-.75-2,2.11,2.11,0,0,1-.32,1,.21.21,0,0,1-.06.1h0A1.71,1.71,0,0,1,43.54,31.17Z"/><path id="SVGID-17" class="cls-15" d="M47.29,23.17a2.11,2.11,0,0,1-1.43.1.51.51,0,0,1,.16.09l.36.31c.31.3.45.41.76.24a.35.35,0,0,0,.18-.3A1.08,1.08,0,0,0,47.29,23.17Z"/><path id="SVGID-18" class="cls-15" d="M47.74,22.83l-.06.08a1.5,1.5,0,0,1,.1.78.83.83,0,0,1-.43.64A1,1,0,0,1,46.07,24l-.31-.27a1.35,1.35,0,0,0-.79-.27,2.7,2.7,0,0,1,1,1.66,1,1,0,0,0,.06.25,1.68,1.68,0,0,0,1.31.93,1,1,0,0,0,1-.68A2.51,2.51,0,0,0,47.74,22.83Z"/><path id="SVGID-19" class="cls-15" d="M44.39,21.88a2.17,2.17,0,0,1-1.48-.9"/><path id="SVGID-20" class="cls-15" d="M42.91,21a2.71,2.71,0,0,1-.41-.77s1.1-.23,1.18-.8c.1-.73-.67-1.64-1-2a21,21,0,0,1-2.4-2.11v6.9a6.63,6.63,0,0,1,.92,2.94,35.91,35.91,0,0,1-.07,4h0a2.91,2.91,0,0,0,1.42,1.66.85.85,0,0,0,.79,0,1.64,1.64,0,0,0,.25-.21c-.47-.7-.66-2.17-.46-4.18a16.86,16.86,0,0,1,.27-2,4.56,4.56,0,0,0,.24.71,3,3,0,0,0,2.23,1.78,3.63,3.63,0,0,1-.25-1.21,2.33,2.33,0,0,0-1.29-2.05l-.45-.14a2.11,2.11,0,0,1,1.4-.52,2.27,2.27,0,0,1-.89-1.16"/><path id="SVGID-21" class="cls-15" d="M47.49,22.33c1.1-1.57-1-3.15-1.67-3.41.1.33,1,2.48-1,3C45.18,22.67,46.7,23.44,47.49,22.33Z"/><path id="SVGID-22" class="cls-15" d="M39.25,28.06l.13.69c.16,1.51,2,4.94,2.51,5.89a9.54,9.54,0,0,1,1,3.58,2.42,2.42,0,0,1-.61,1.8,1.69,1.69,0,0,1-2,.31,1.55,1.55,0,0,1-.39-.28,19,19,0,0,1,.88,3.47,2.89,2.89,0,0,1-.23,1.3,1.4,1.4,0,0,1-.93.86,1.54,1.54,0,0,1-1.4-.31,3,3,0,0,1-.8-1.17,9.15,9.15,0,0,1-.1,1c-.07.65-.07.87-.18,1.48-.23,1.3-.38,2.26,0,2.75a.63.63,0,0,0,.83.11l.26-.15.28-.13.07.57a3.1,3.1,0,0,1-.84,2.92,1.92,1.92,0,0,1-2.61.16,2.28,2.28,0,0,1-.53-.67,4.21,4.21,0,0,1-.6,1.49,6.24,6.24,0,0,0-.88,1.84L33,56a2.59,2.59,0,0,1-.32-.42,3.11,3.11,0,0,1-.22-.4,4.36,4.36,0,0,1-5.12,2.07,1.31,1.31,0,0,1-.45-.28l.51-.14A3.36,3.36,0,0,0,29,55.25a9.86,9.86,0,0,1,.69-1,3.87,3.87,0,0,0-2.12,1.9l-.23.53-.19-.55a4.48,4.48,0,0,1-.3-1.53,2.3,2.3,0,0,1,.2-.81,1.85,1.85,0,0,1-.07-.41,2,2,0,0,1,1.12-1.92,5.74,5.74,0,0,1,1.44-.56,1.65,1.65,0,0,1-.44-.1L29,50.73v-.14c0-.07,0-1.6,2.06-2.12l.92-.2.95-.21a2.74,2.74,0,0,0,1.22-1.68,4.43,4.43,0,0,1-1.49.49s-.18-2.2.57-3.19,2.93-.9,2.9-3.41a11.31,11.31,0,0,0-1.88,1.08,38,38,0,0,0,3.4-7A29.13,29.13,0,0,0,39.25,28.06Z"/><path id="SVGID-23" class="cls-15" d="M35.11,40.23a4,4,0,0,1,1.31-.58,3.42,3.42,0,0,1,.12.9c0,2.18-2.22,2.67-2.83,3.24s-.59,1.92-.6,2.39a3.65,3.65,0,0,0,1.55-.77,4,4,0,0,1-.7,2.25A3.07,3.07,0,0,0,35.9,45c.3-2.17.4-3,1.3-3.26.24.52,1.68,1.28,2.21.95.8-.49.3-2,0-2.86-.64-1.66-1.19-4.6-.33-6.28a12,12,0,0,0,.13,3.64h0s1.12,1.31,1.94.72a1.09,1.09,0,0,0,.27-.33A9.15,9.15,0,0,0,40,34.07a7.63,7.63,0,0,1-.69-3.91,2.63,2.63,0,0,0-.13-.57,38.07,38.07,0,0,1-1.65,5.32A37.39,37.39,0,0,1,35.11,40.23Z"/><path id="SVGID-24" class="cls-15" d="M30,53.71a10.78,10.78,0,0,1,1.5-1.52,7,7,0,0,1-1.69.39c-1.23.18-2,.51-2.28,1.07a1.71,1.71,0,0,0-.23.91,3.57,3.57,0,0,0,.16.79A3.16,3.16,0,0,1,30,53.71Z"/><path id="SVGID-25" class="cls-15" d="M32.17,54.69a3.21,3.21,0,0,1-.27-1.29,5.46,5.46,0,0,1,.16-1.27,13.56,13.56,0,0,0-2.78,3.44A3,3,0,0,1,28,57a4.13,4.13,0,0,0,4-2A2.29,2.29,0,0,1,32.17,54.69Z"/><path id="SVGID-26" class="cls-15" d="M41.63,36.78v-.41a7.78,7.78,0,0,0-.2-1.6l-.13-.26a27.92,27.92,0,0,1-2-4.34,8.88,8.88,0,0,0,1,3.63A9,9,0,0,1,41.63,36.78Z"/><path id="SVGID-27" class="cls-15" d="M39.65,43.12a1.66,1.66,0,0,1-2.11-.54A2.92,2.92,0,0,0,38.6,45a1.09,1.09,0,0,0,1,.17.8.8,0,0,0,.6-.51,2.88,2.88,0,0,0,.2-1.12,5.38,5.38,0,0,0-.14-1.13A1.19,1.19,0,0,1,39.65,43.12Z"/><path id="SVGID-28" class="cls-15" d="M42.11,36.31v.08a2.38,2.38,0,0,1-.7,1.94c-.62.47-1.4.14-2.07-.36a2.57,2.57,0,0,0,1.21,1.93A1.26,1.26,0,0,0,42,39.69a2.08,2.08,0,0,0,.47-1.48A6.45,6.45,0,0,0,42.11,36.31Z"/><g class="cls-16"><path class="cls-15" d="M37.2,41.77v.63c0,.2-.05.62-.06.84a28.47,28.47,0,0,1-.35,3.33,11.48,11.48,0,0,0-.26,1.93A1.61,1.61,0,0,0,37,49.77a1.08,1.08,0,0,0,1.29.18,3.42,3.42,0,0,1,0,.64,2.32,2.32,0,0,1-.75,1.8,1.59,1.59,0,0,1-1.55.4,2.28,2.28,0,0,1-.9-.76,5.87,5.87,0,0,1-.69-1.34,3.06,3.06,0,0,1-.27,1.76,3.75,3.75,0,0,1-.55,1,5.64,5.64,0,0,0-.78,1.5,3.13,3.13,0,0,1-.44-1.55,5.76,5.76,0,0,1,.31-1.79,4.57,4.57,0,0,0,.2-1.76,3.1,3.1,0,0,1-1.46,1.88h0a7.19,7.19,0,0,1-1.71.39,4.06,4.06,0,0,0-2.31,1,1.53,1.53,0,0,1,.89-1.23,5.76,5.76,0,0,1,1.32-.52,4.1,4.1,0,0,0,1.4-.7,1.77,1.77,0,0,0,.47-.7s-.49.28-.59.32a2.07,2.07,0,0,1-1.47.08c.07-.34.35-1.15,1.7-1.49l.89-.19.7-.15a1.18,1.18,0,0,0,.37-.09c1.46-.38,3-1.07,3.3-3.23C36.45,44.47,36.46,42.16,37.2,41.77Z"/></g><path class="cls-17" d="M23.62,14.57c-.85-4.82-5.21-3.64-6.19-2.23A3,3,0,0,1,16,13.58c-.27-.23-.22-1.2-.22-1.2a4,4,0,0,1-1.84,1c-.29.07-.8.1-1.06.16.21-.36.82-1.3.82-1.3a4.53,4.53,0,0,0-2.37,1.24L9.86,14.82c-1.59,1.24-2.68,1.13-3.1,1a6.4,6.4,0,0,1,1-1.92s-3.69.39-4.93-1.72a2.64,2.64,0,0,0-2-1.55,1.44,1.44,0,0,1,2-.25,1.41,1.41,0,0,1,.39.45c.92,2,2.72,2.75,5,2l-.68-.32s-2.14-1-1.7-2.69a1.43,1.43,0,0,1,.87-1,2.06,2.06,0,0,1,.78-.13,1.93,1.93,0,0,0-.66.61,1.78,1.78,0,0,0-.22,1.42c.4,1.28,2.51,1.74,5.29,1a19.88,19.88,0,0,1-1.82-1.14A4.63,4.63,0,0,0,9,10c.56-.23,1.78-.44,3.72.7a4.57,4.57,0,0,0,4.51.31,5.89,5.89,0,0,1,4.53-.34,4.49,4.49,0,0,1,2.71,3.89Z"/><path class="cls-18" d="M39.22,4.86a4.57,4.57,0,0,1-1.91.51A4.55,4.55,0,0,0,36,5.69,2.74,2.74,0,0,1,37.69,4a3.64,3.64,0,0,1,2.89.16A4.87,4.87,0,0,0,39.22,4.86Z"/><path class="cls-18" d="M45.21,13.14a6.08,6.08,0,0,1,2.21-.07h0a2.09,2.09,0,0,1,1.4,1.22A6,6,0,0,0,50,15.85a3,3,0,0,1-3-1.17,4.2,4.2,0,0,0-1.8-1.54"/><path class="cls-18" d="M3.32,8.79a6.3,6.3,0,0,1,.55-2.56A15.28,15.28,0,0,0,7,3.69l.1-.08a5.22,5.22,0,0,1,3.31-1.4,1.94,1.94,0,0,1-.17.42A4.19,4.19,0,0,1,8.45,4.16c-1.36.65-2.22,1.55-2.17,2A9.2,9.2,0,0,1,10.19,4l.88-.16A7.47,7.47,0,0,0,13.48,5a3.46,3.46,0,0,1-1.18.25c-.33-.07-1.07-.12-1.07-.12a3.78,3.78,0,0,0-2.62.73A19,19,0,0,1,11,5.65a8.62,8.62,0,0,1,2.77.74,4.4,4.4,0,0,0,1.65.54,3.47,3.47,0,0,1-1.82.32c-.49-.15-1-.23-1.67-.38a9.44,9.44,0,0,1-1.72-.59,1.77,1.77,0,0,0,1.21.92c.9.23,1.57.37,2.07.52h0a1.42,1.42,0,0,1,.41.28,3.74,3.74,0,0,1-3.77-.23c-.32-.23-.24-.13-1.1-.68A2.83,2.83,0,0,0,6.88,6.7a2.85,2.85,0,0,1,1.58.73,1.48,1.48,0,0,1,.27,1,2.92,2.92,0,0,0-2.19-.12A1.92,1.92,0,0,0,5.39,9.72a2.25,2.25,0,0,0-.08.58A3,3,0,0,0,6.7,12.6a2.84,2.84,0,0,1-2.84-1.68A4.07,4.07,0,0,1,3.32,8.79Z"/><path class="cls-17" d="M1.52,12a1.11,1.11,0,0,0-.41.83A1.65,1.65,0,0,1,.54,11a1.81,1.81,0,0,1,1.39.78A.78.78,0,0,0,1.52,12Z"/><path class="cls-17" d="M15.35,4.82a5.19,5.19,0,0,1-3.69-1.27A3.39,3.39,0,0,1,15.35,4.82Z"/><path class="cls-17" d="M3.66,4.16A2.82,2.82,0,0,1,5.27,2.72,3.55,3.55,0,0,0,7,1.34a.81.81,0,0,0,0,.22C7.17,2,7.29,3,5.77,4.31A19.22,19.22,0,0,1,3.85,5.75,2,2,0,0,1,3.66,4.16Z"/><path class="cls-17" d="M45.34,2.25a3.41,3.41,0,0,0,1.38.93A2.27,2.27,0,0,1,47.89,4a2.32,2.32,0,0,1,.29,1.18,3,3,0,0,1-.29,1.29,6.34,6.34,0,0,0-1.61-2.22A2.75,2.75,0,0,1,45.34,2.25Z"/><path class="cls-17" d="M42.25,8.42a1.56,1.56,0,0,1-1.42-.18,1.37,1.37,0,0,1-.35-.37h0a3.51,3.51,0,0,0,1.18-.36c1.5-.79,2.1-.55,2.1-.55-1.3-.7-2.54.45-3.43.42h-.26a2.83,2.83,0,0,1-1.45-.57,1.56,1.56,0,0,0,.79-.34l.12-.09c.17-.15.3-.26.41-.34h0a1.4,1.4,0,0,1,1.16-.17,1.42,1.42,0,0,0-1.2-.33,1,1,0,0,1-.36-.34A3.05,3.05,0,0,1,43.25,5l.35.28V4.84a2.4,2.4,0,0,0-.84-1.43,3.06,3.06,0,0,1,.9.13,2.25,2.25,0,0,1,1.63,1.8l.15.71.29-.66a2.53,2.53,0,0,0,.2-.81h0a4.66,4.66,0,0,1,1.73,3.16,3.43,3.43,0,0,1-1.23,2.48,2.4,2.4,0,0,0-.79-1.33A3.82,3.82,0,0,0,42.25,8.42Z"/><path class="cls-17" d="M50.69,10.89a1.75,1.75,0,0,1-.34,1.78,1.87,1.87,0,0,0-1-1.18A1.19,1.19,0,0,0,49,11.4,2.1,2.1,0,0,1,50.69,10.89Z"/><path class="cls-17" d="M35.84,9A6.47,6.47,0,0,1,33,10.12,2.61,2.61,0,0,1,35.84,9Z"/><path class="cls-18" d="M12.87,9.4a3.62,3.62,0,0,1,1.58.33l.47.27A3.33,3.33,0,0,1,12.87,9.4Z"/><path class="cls-18" d="M15.35,9.69l-.69-.4a4.26,4.26,0,0,1,4.36.76,6.58,6.58,0,0,0-1.26.16A2.37,2.37,0,0,1,15.35,9.69Z"/><path class="cls-18" d="M23.86,9.7s1.65,2,.35,2.59a4.22,4.22,0,0,0-1.78-1.72A2,2,0,0,1,23.86,9.7Z"/><path class="cls-18" d="M20.86,13.78a3.89,3.89,0,0,1-3.19-1.1h0a2.37,2.37,0,0,1,.91-.78,5,5,0,0,0,4.11,1.23,4.87,4.87,0,0,1,.47,1.44A3,3,0,0,1,20.86,13.78Z"/><path class="cls-18" d="M26.29,14.41a2.25,2.25,0,0,0,1.16-1.54,3.53,3.53,0,0,1,1.95.27A3.81,3.81,0,0,1,26.29,14.41Z"/><path class="cls-15" d="M49.24,14.08a2.55,2.55,0,0,0-1.57-1.44,4.88,4.88,0,0,0,.53-.49,1.23,1.23,0,0,1,1-.2,1.27,1.27,0,0,1,.86,1.19v.45l.35-.29a2.44,2.44,0,0,0,.64-2.72V10.5a3.4,3.4,0,0,0-.31-.52,2.51,2.51,0,0,0-2.91-.7,3.34,3.34,0,0,0,.36-1.49h0a3.3,3.3,0,0,0-.11-.69h0a3.25,3.25,0,0,0,.54-1.89,2.87,2.87,0,0,0-.36-1.43,2.77,2.77,0,0,0-1.38-1A3.51,3.51,0,0,1,45.13,1.4a2.57,2.57,0,0,0,.12,2.38,2.1,2.1,0,0,1,.21.78h0A2.89,2.89,0,0,0,43.81,3.1,4.81,4.81,0,0,0,42.12,3l-.6,0,.5.37a3.51,3.51,0,0,1,.92,1,2.88,2.88,0,0,0-1.66-.28L41,3.88a4.2,4.2,0,0,0-3.46-.32A4.38,4.38,0,0,0,35.2,6.42a11.83,11.83,0,0,1,2.2-.56,4.93,4.93,0,0,0,1.77-.42,1.29,1.29,0,0,0,.34.36,2.6,2.6,0,0,1-.36.3,1.24,1.24,0,0,1-1,.24l-.54-.15.29.51a2.51,2.51,0,0,0,1.52,1,2.29,2.29,0,0,0,.58.11,1.62,1.62,0,0,0,.61.78,1.92,1.92,0,0,0,1.81.24A4.14,4.14,0,0,1,44,8.75a.79.79,0,0,1,.17.49,2.19,2.19,0,0,1-.4,1.49,1.83,1.83,0,0,1-1.66.52,2.27,2.27,0,0,0,1.14-.83l.1-.16-.13-.14a3.31,3.31,0,0,0-3.78-.5A4,4,0,0,1,38,10a4.89,4.89,0,0,0,1.3-1.38l.14-.25-.26-.1a2.65,2.65,0,0,0-2.84.37,3.08,3.08,0,0,0-3.92,1.48,1.93,1.93,0,0,1-.48,0,5.45,5.45,0,0,0-2.41,0S29,8.92,27,9.52c-1.19.37-1.32.32-1.32.31A1.7,1.7,0,0,0,27,11s-1,.56-2.05,1c.26-.4.19-.88-.15-1.62s-.71-1-.76-1.22c0,0-1.83.51-2,1.22A4.37,4.37,0,0,0,19.6,10,4.91,4.91,0,0,0,14,9.08,5,5,0,0,0,12.15,9l-.52.09.42.35a3.7,3.7,0,0,0,3.52,1h0a4.06,4.06,0,0,0,1,.44A4,4,0,0,1,13,10.3c-3.18-1.82-5-.13-5-.13l.39.13a4.48,4.48,0,0,1,1.25.64,5,5,0,0,0,1.2.66c-2.31.15-3.58-.17-3.81-1a1.26,1.26,0,0,1,.16-1,1.41,1.41,0,0,1,1.23-.71A1.37,1.37,0,0,1,9,9.24l.09-.31a2.61,2.61,0,0,0,.05-.48A2,2,0,0,0,9,7.63c.25.14.52.31.84.53.81.57,2.23,1.05,4.38.15l.21-.09V8a1.71,1.71,0,0,0-.13-.23A2.74,2.74,0,0,0,16.11,7l.42-.48h-.48A3.44,3.44,0,0,1,14.12,6,2.87,2.87,0,0,0,13,5.61a2.71,2.71,0,0,0,1.32-.42,4.47,4.47,0,0,0,1.46,0l.35-.07-.2-.3A3.65,3.65,0,0,0,11.11,3.3c-.34.08-.38.13-.92.28A3.11,3.11,0,0,0,10.89,2V1.77h-.22a4.88,4.88,0,0,0-3.29,1A2.86,2.86,0,0,0,7.26.62L7,0,6.83.68A2.55,2.55,0,0,1,5.11,2.26,3.11,3.11,0,0,0,3.23,4a2.06,2.06,0,0,0-.11.65A2.91,2.91,0,0,0,3.49,6a6.78,6.78,0,0,0-.64,2.8,4.58,4.58,0,0,0,.09.9,2.13,2.13,0,0,0-2.77,1,2.27,2.27,0,0,0,1,2.85l.4.22-.06-.48c0-.19,0-.73.22-.91s.42-.22.71.14a3.23,3.23,0,0,0,.69.74A3.07,3.07,0,0,0,1.8,14.62a2.93,2.93,0,0,0-.25,1.2,4.54,4.54,0,0,0,.29,1.5l0,.14H2a3.23,3.23,0,0,0,2.47-.89,9.17,9.17,0,0,1,2.22-1.7,2.51,2.51,0,0,0-.54,1.25s1.61.88,3.92-.91l1.53-1.32a13.09,13.09,0,0,1,1.23-1,1.91,1.91,0,0,0-.57,1.37,12.38,12.38,0,0,1,1.6-.37,2.73,2.73,0,0,0,1.57-.73,1.12,1.12,0,0,0,.39,1A4.33,4.33,0,0,0,17.43,13a3.82,3.82,0,0,0,3.22,1.13,2.28,2.28,0,0,0,1.38.71,5.75,5.75,0,0,0,1.55,0h.86a2.1,2.1,0,0,0,1.33-.11c2.68.29,3.78-1.07,4-1.41,1.74,1.34,2.5,1.44,3.15,1.37a2.59,2.59,0,0,0,1.84-1.32,4.86,4.86,0,0,0,2.92.57s-.07-.37-.11-.49a3.23,3.23,0,0,0,2.42.24l.19-.06v-.22a2.76,2.76,0,0,0-.28-.74,6.48,6.48,0,0,1,1.74,1.8l.36.47a3.69,3.69,0,0,0,3.88,1.34l.39-.07L46,15.89a10.65,10.65,0,0,1-.83-1.47,3.13,3.13,0,0,0-.8-1A3.71,3.71,0,0,1,46.66,15a3.42,3.42,0,0,0,3.9,1.24l.36-.14-.28-.28A7.33,7.33,0,0,1,49.24,14.08Zm1.45-3.19a1.75,1.75,0,0,1-.34,1.78,1.87,1.87,0,0,0-1-1.18A1.19,1.19,0,0,0,49,11.4,2.1,2.1,0,0,1,50.69,10.89ZM45.34,2.25a3.41,3.41,0,0,0,1.38.93A2.27,2.27,0,0,1,47.89,4a2.32,2.32,0,0,1,.29,1.18,3,3,0,0,1-.29,1.29,6.34,6.34,0,0,0-1.61-2.22A2.75,2.75,0,0,1,45.34,2.25ZM39.22,4.86a4.57,4.57,0,0,1-1.91.51A4.55,4.55,0,0,0,36,5.69,2.74,2.74,0,0,1,37.69,4a3.64,3.64,0,0,1,2.89.16A4.87,4.87,0,0,0,39.22,4.86Zm3,3.56a1.56,1.56,0,0,1-1.42-.18,1.37,1.37,0,0,1-.35-.37h0a3.51,3.51,0,0,0,1.18-.36c1.5-.79,2.1-.55,2.1-.55-1.3-.7-2.54.45-3.43.42H40a2.83,2.83,0,0,1-1.45-.57,1.56,1.56,0,0,0,.79-.34l.12-.09c.17-.15.3-.26.41-.34h0a1.4,1.4,0,0,1,1.16-.17,1.42,1.42,0,0,0-1.2-.33,1,1,0,0,1-.36-.34A3.05,3.05,0,0,1,43.25,5l.35.28V4.84a2.4,2.4,0,0,0-.84-1.43,3.06,3.06,0,0,1,.9.13,2.25,2.25,0,0,1,1.63,1.8l.15.71.29-.66a2.53,2.53,0,0,0,.2-.81h0a4.66,4.66,0,0,1,1.73,3.16,3.43,3.43,0,0,1-1.23,2.48,2.4,2.4,0,0,0-.79-1.33,3.82,3.82,0,0,0-3.39-.47ZM35.84,9A6.47,6.47,0,0,1,33,10.12,2.61,2.61,0,0,1,35.84,9Zm-12,.68s1.65,2,.35,2.59a4.22,4.22,0,0,0-1.78-1.72,2,2,0,0,1,1.45-.85Zm-11-.3a3.62,3.62,0,0,1,1.58.33l.47.27a3.3,3.3,0,0,1-2-.58Zm2.48.29-.69-.4A4.26,4.26,0,0,1,19,10a6.58,6.58,0,0,0-1.26.16,2.38,2.38,0,0,1-2.38-.5Zm0-4.87a5.19,5.19,0,0,1-3.69-1.27,3.39,3.39,0,0,1,3.72,1.29ZM3.66,4.16A2.82,2.82,0,0,1,5.27,2.72,3.55,3.55,0,0,0,7,1.34a.81.81,0,0,0,0,.22C7.17,2,7.29,3,5.77,4.31A19.22,19.22,0,0,1,3.85,5.75,2,2,0,0,1,3.66,4.16ZM3.32,8.79a6.3,6.3,0,0,1,.55-2.56A15.28,15.28,0,0,0,7,3.69l.1-.08a5.22,5.22,0,0,1,3.31-1.4,1.94,1.94,0,0,1-.17.42A4.19,4.19,0,0,1,8.45,4.16c-1.36.65-2.22,1.55-2.17,2A9.2,9.2,0,0,1,10.19,4l.88-.16A7.47,7.47,0,0,0,13.48,5a3.46,3.46,0,0,1-1.18.25c-.33-.07-1.07-.12-1.07-.12a3.78,3.78,0,0,0-2.62.73A19,19,0,0,1,11,5.65a8.62,8.62,0,0,1,2.77.74,4.4,4.4,0,0,0,1.65.54,3.47,3.47,0,0,1-1.82.32c-.49-.15-1-.23-1.67-.38a9.44,9.44,0,0,1-1.72-.59,1.77,1.77,0,0,0,1.21.92c.9.23,1.57.37,2.07.52h0a1.42,1.42,0,0,1,.41.28,3.74,3.74,0,0,1-3.77-.23c-.32-.23-.24-.13-1.1-.68A2.83,2.83,0,0,0,6.88,6.7a2.85,2.85,0,0,1,1.58.73,1.48,1.48,0,0,1,.27,1,2.92,2.92,0,0,0-2.19-.12A1.92,1.92,0,0,0,5.39,9.72a2.25,2.25,0,0,0-.08.58A3,3,0,0,0,6.7,12.6a2.84,2.84,0,0,1-2.84-1.68A4.07,4.07,0,0,1,3.32,8.79ZM1.52,12a1.11,1.11,0,0,0-.41.83A1.65,1.65,0,0,1,.54,11a1.81,1.81,0,0,1,1.39.78A.78.78,0,0,0,1.52,12Zm2.71,4.25a2.82,2.82,0,0,1-2,.75,3.79,3.79,0,0,1-.22-1.16,2.29,2.29,0,0,1,.2-1A2.58,2.58,0,0,1,3.6,13.58a5.83,5.83,0,0,0,3.33.7,8.38,8.38,0,0,0-2.7,1.94Zm16.63-2.44a3.89,3.89,0,0,1-3.19-1.1h0a2.37,2.37,0,0,1,.91-.78,5,5,0,0,0,4.11,1.23,4.87,4.87,0,0,1,.47,1.44,3,3,0,0,1-2.3-.82ZM19,11.72a2.81,2.81,0,0,1,3.55,1A4.82,4.82,0,0,1,19,11.72Zm4.66,2.85c-.85-4.82-5.21-3.64-6.19-2.23a3,3,0,0,1-1.39,1.24c-.27-.23-.22-1.2-.22-1.2a4,4,0,0,1-1.84,1c-.29.07-.8.1-1.06.16.21-.36.82-1.3.82-1.3a4.53,4.53,0,0,0-2.37,1.24L9.86,14.82c-1.59,1.24-2.68,1.13-3.1,1a6.4,6.4,0,0,1,1-1.92s-3.69.39-4.93-1.72a2.64,2.64,0,0,0-2-1.55,1.44,1.44,0,0,1,2-.25,1.41,1.41,0,0,1,.39.45c.92,2,2.72,2.75,5,2l-.68-.32s-2.14-1-1.7-2.69a1.43,1.43,0,0,1,.87-1,2.06,2.06,0,0,1,.78-.13,1.93,1.93,0,0,0-.66.61,1.78,1.78,0,0,0-.22,1.42c.4,1.28,2.51,1.74,5.29,1a19.88,19.88,0,0,1-1.82-1.14A4.63,4.63,0,0,0,9,10c.56-.23,1.78-.44,3.72.7a4.57,4.57,0,0,0,4.51.31,5.89,5.89,0,0,1,4.53-.34,4.49,4.49,0,0,1,2.71,3.89Zm1.18,0a4.2,4.2,0,0,1,2.28-1.64,2.63,2.63,0,0,1-2.31,1.63Zm1.49-.15a2.25,2.25,0,0,0,1.16-1.54,3.53,3.53,0,0,1,1.95.27,3.79,3.79,0,0,1-3.14,1.26ZM30.9,12a7.38,7.38,0,0,1,2.4.52,5,5,0,0,1-2.08.88A2.54,2.54,0,0,0,30.9,12Zm.51,1.85a6.64,6.64,0,0,0,2.39-1.12,4.24,4.24,0,0,1,.65.38c-1.17,1.52-1.92,1.44-3,.78Zm12-.52a3.39,3.39,0,0,1,1.28,1.27c.31.54.49.94.65,1.2a3,3,0,0,1-3.08-1.22L42,14.16a5.32,5.32,0,0,0-2.29-2.09h0a3.88,3.88,0,0,0-2.52-.45s2.06.27,2.47,1.63h0a4.08,4.08,0,0,1-2.44-.58,2.41,2.41,0,0,0-2.75-.89,3.18,3.18,0,0,1,2.66,1.68,3.83,3.83,0,0,1-2.56-.81,6.42,6.42,0,0,0-4.43-1,2.52,2.52,0,0,1,.63,1.8,4,4,0,0,0-5.66.14,4.15,4.15,0,0,0-.27.32,4.26,4.26,0,0,0-.34-1.27,15,15,0,0,0,3.65-1.76s-1.2-.21-1.56-.71c0,0,2.13-1,2.7.55a3.46,3.46,0,0,1,2.24-.27,5.66,5.66,0,0,0,4.57-1,2.79,2.79,0,0,1,2.64-.79,3.61,3.61,0,0,1-2.64,1.64,4.49,4.49,0,0,0,3.5-.23,3,3,0,0,1,3.08.26,1.82,1.82,0,0,1-.86.56,2.64,2.64,0,0,1-1.11.21,2.1,2.1,0,0,0,1.43.67,2,2,0,0,0,2-.73,2.61,2.61,0,0,0,.51-1.85,1.91,1.91,0,0,0-.06-.33,2.56,2.56,0,0,1,.9.46,2.07,2.07,0,0,1,.69,1.8,1.67,1.67,0,0,1-.59,1.23,2.53,2.53,0,0,1-2,.49,2.19,2.19,0,0,0-1.49-.1,3.3,3.3,0,0,1,1.37.63ZM47,14.68a4.2,4.2,0,0,0-1.8-1.54,2.57,2.57,0,0,0,1.34-2.36,3.72,3.72,0,0,0,.85-.83s2.09-.85,3,.43A3.86,3.86,0,0,0,48,11.63a2.73,2.73,0,0,1-1.1.89,7.22,7.22,0,0,1-1.74.62,6.08,6.08,0,0,1,2.21-.07h0a2.09,2.09,0,0,1,1.4,1.22A6.15,6.15,0,0,0,50,15.85,3,3,0,0,1,47,14.68Z"/><path class="cls-17" d="M45.21,13.14a2.57,2.57,0,0,0,1.34-2.36A3.72,3.72,0,0,0,47.4,10s2.09-.85,3,.43A3.86,3.86,0,0,0,48,11.63a2.73,2.73,0,0,1-1.1.89A7,7,0,0,1,45.21,13.14Z"/><path class="cls-17" d="M31.41,13.89a6.64,6.64,0,0,0,2.39-1.12,4.24,4.24,0,0,1,.65.38C33.28,14.63,32.53,14.55,31.41,13.89Z"/><path class="cls-18" d="M4.23,16.22a2.85,2.85,0,0,1-2,.78,3.79,3.79,0,0,1-.22-1.16,2.29,2.29,0,0,1,.2-1A2.58,2.58,0,0,1,3.6,13.58a5.83,5.83,0,0,0,3.33.7A8.38,8.38,0,0,0,4.23,16.22Z"/><path class="cls-18" d="M43.46,13.37a3.39,3.39,0,0,1,1.28,1.27c.31.54.49.94.65,1.2a3,3,0,0,1-3.08-1.22L42,14.16a5.32,5.32,0,0,0-2.29-2.09h0a3.88,3.88,0,0,0-2.52-.45s2.06.27,2.47,1.63h0a4.08,4.08,0,0,1-2.44-.58,2.41,2.41,0,0,0-2.75-.89,3.18,3.18,0,0,1,2.66,1.68,3.83,3.83,0,0,1-2.56-.81,6.42,6.42,0,0,0-4.43-1,2.52,2.52,0,0,1,.63,1.8,4,4,0,0,0-5.66.14,4.15,4.15,0,0,0-.27.32,4.26,4.26,0,0,0-.34-1.27,15,15,0,0,0,3.65-1.76s-1.2-.21-1.56-.71c0,0,2.13-1,2.7.55a3.46,3.46,0,0,1,2.24-.27,5.66,5.66,0,0,0,4.57-1,2.79,2.79,0,0,1,2.64-.79,3.61,3.61,0,0,1-2.64,1.64,4.49,4.49,0,0,0,3.5-.23,3,3,0,0,1,3.08.26,1.82,1.82,0,0,1-.86.56,2.64,2.64,0,0,1-1.11.21,2.1,2.1,0,0,0,1.43.67,2,2,0,0,0,2-.73,2.61,2.61,0,0,0,.51-1.85,1.91,1.91,0,0,0-.06-.33,2.56,2.56,0,0,1,.9.46,2.07,2.07,0,0,1,.69,1.8,1.67,1.67,0,0,1-.59,1.23,2.53,2.53,0,0,1-2,.49,2.19,2.19,0,0,0-1.49-.1A3.3,3.3,0,0,1,43.46,13.37Z"/><path class="cls-18" d="M44,30.76h0a.21.21,0,0,0,.06-.1,2.11,2.11,0,0,0,.32-1,3.72,3.72,0,0,1,.75,1.95v.31a1.4,1.4,0,0,1-.59,1,1.75,1.75,0,0,1-1.82-.09,3.53,3.53,0,0,1-1.62-2.75,3.07,3.07,0,0,0,1.24,1.1,1.26,1.26,0,0,0,1.19,0A1.56,1.56,0,0,0,44,30.76Z"/><path class="cls-18" d="M44.82,21.88c2-.48,1.1-2.63,1-3,.62.26,2.77,1.84,1.67,3.41C46.7,23.44,45.18,22.67,44.82,21.88Z"/><path class="cls-18" d="M37.54,34.91a38.07,38.07,0,0,0,1.65-5.32,2.58,2.58,0,0,0,.13.57A7.52,7.52,0,0,0,40,34.07a9.16,9.16,0,0,1,1.4,3.56,1.09,1.09,0,0,1-.27.33c-.82.59-1.94-.72-1.94-.72h0a12,12,0,0,1-.13-3.64c-.86,1.68-.31,4.62.33,6.28.31.82.81,2.37,0,2.86-.53.33-2-.43-2.21-1-.9.24-1,1.09-1.3,3.26A3.09,3.09,0,0,1,34,47.66a4,4,0,0,0,.7-2.25,3.65,3.65,0,0,1-1.55.77,3.72,3.72,0,0,1,.6-2.39c.6-.57,2.79-1.06,2.83-3.24a3.42,3.42,0,0,0-.12-.9,4,4,0,0,0-1.31.58A37.34,37.34,0,0,0,37.54,34.91Z"/><path class="cls-18" d="M32,54.94a4.13,4.13,0,0,1-4,2,3,3,0,0,0,1.28-1.39,13.56,13.56,0,0,1,2.78-3.44,5.46,5.46,0,0,0-.16,1.27,3.21,3.21,0,0,0,.27,1.29A1.05,1.05,0,0,1,32,54.94Z"/><path class="cls-17" d="M40.24,15.29a21,21,0,0,0,2.4,2.11c.37.37,1.14,1.28,1,2s-1.18.8-1.18.8a2.47,2.47,0,0,0,1.89,1.67A2.2,2.2,0,0,0,45.28,23a2.13,2.13,0,0,0-1.42.44l.45.14a2.33,2.33,0,0,1,1.29,2.05,3.63,3.63,0,0,0,.25,1.21,3,3,0,0,1-2.23-1.78,4.56,4.56,0,0,1-.24-.71,16.86,16.86,0,0,0-.27,2,7.2,7.2,0,0,0,.46,4.18,1.64,1.64,0,0,1-.25.21.85.85,0,0,1-.79,0,2.91,2.91,0,0,1-1.42-1.66h0c0-.53.14-3,.07-4a6.63,6.63,0,0,0-.92-2.94Z"/><path class="cls-17" d="M40.35,33.8a8.88,8.88,0,0,1-1-3.63,27.92,27.92,0,0,0,2,4.34l.13.26a7.78,7.78,0,0,1,.2,1.6v.41A9,9,0,0,0,40.35,33.8Z"/><path class="cls-17" d="M42.47,38.21A2.13,2.13,0,0,1,42,39.69a1.26,1.26,0,0,1-1.45.21,2.59,2.59,0,0,1-1.2-1.9c.67.5,1.45.83,2.07.36a2.38,2.38,0,0,0,.7-1.94v-.08A6.59,6.59,0,0,1,42.47,38.21Z"/><path class="cls-17" d="M40.24,42.39a5.38,5.38,0,0,1,.14,1.13,2.88,2.88,0,0,1-.2,1.12.8.8,0,0,1-.6.51,1.09,1.09,0,0,1-1-.17,3,3,0,0,1-1.06-2.4,1.66,1.66,0,0,0,2.11.54A1.23,1.23,0,0,0,40.24,42.39Z"/><path class="cls-17" d="M27.42,55.35a3.57,3.57,0,0,1-.16-.79,1.71,1.71,0,0,1,.23-.91c.33-.56,1.05-.89,2.28-1.07a7,7,0,0,0,1.69-.39A11.11,11.11,0,0,0,30,53.71,3.17,3.17,0,0,0,27.42,55.35Z"/><path class="cls-17" d="M37.2,41.77v.63c0,.2-.05.62-.06.84a28.47,28.47,0,0,1-.35,3.33,11.48,11.48,0,0,0-.26,1.93A1.61,1.61,0,0,0,37,49.77a1.08,1.08,0,0,0,1.29.18,3.42,3.42,0,0,1,0,.64,2.32,2.32,0,0,1-.75,1.8,1.59,1.59,0,0,1-1.55.4,2.28,2.28,0,0,1-.9-.76,5.87,5.87,0,0,1-.69-1.34,3.06,3.06,0,0,1-.27,1.76,3.75,3.75,0,0,1-.55,1,5.64,5.64,0,0,0-.78,1.5,3.13,3.13,0,0,1-.44-1.55,5.76,5.76,0,0,1,.31-1.79,4.57,4.57,0,0,0,.2-1.76,3.1,3.1,0,0,1-1.46,1.88h0a7.19,7.19,0,0,1-1.71.39,4.06,4.06,0,0,0-2.31,1,1.53,1.53,0,0,1,.89-1.23,5.76,5.76,0,0,1,1.32-.52,4.1,4.1,0,0,0,1.4-.7,1.77,1.77,0,0,0,.47-.7s-.49.28-.59.32a2.07,2.07,0,0,1-1.47.08c.07-.34.35-1.15,1.7-1.49l.89-.19.7-.15a1.18,1.18,0,0,0,.37-.09c1.46-.38,3-1.07,3.3-3.23C36.45,44.47,36.46,42.16,37.2,41.77Z"/><path class="cls-15" d="M44.61,21.49a1.86,1.86,0,0,1-1.58-1v0h0c.59-.24.93-.55,1-.91a1,1,0,0,0,0-.25A2.19,2.19,0,0,0,43.44,18l-.14-.17.2.08.16.07.18.08a9.07,9.07,0,0,1,1,.41h0a2.58,2.58,0,0,1,.74,2.12,1,1,0,0,1-1,1Zm-1.45-1a1.71,1.71,0,0,0,1.45.88h.07a.92.92,0,0,0,.89-.87,2.43,2.43,0,0,0-.69-2,9.47,9.47,0,0,0-1-.4l-.15-.1a2.18,2.18,0,0,1,.48,1.22,1.31,1.31,0,0,1,0,.28,1.61,1.61,0,0,1-1.05,1Z"/><path class="cls-17" d="M44.91,18.45a2.52,2.52,0,0,1,.72,2.07,1,1,0,0,1-.94.91,1.74,1.74,0,0,1-1.6-1,1.57,1.57,0,0,0,1-.95,1.22,1.22,0,0,0,0-.27,2.38,2.38,0,0,0-.6-1.36,2.07,2.07,0,0,0,.34.15C44.15,18.13,44.51,18.27,44.91,18.45Z"/><path class="cls-17" d="M47.32,23.61a.35.35,0,0,1-.18.3c-.31.17-.45.06-.76-.24L46,23.36a.51.51,0,0,0-.16-.09,2.11,2.11,0,0,0,1.43-.1A1.09,1.09,0,0,1,47.32,23.61Z"/><path class="cls-18" d="M48.34,25.64a1,1,0,0,1-1,.68A1.7,1.7,0,0,1,46,25.39a.55.55,0,0,0-.06-.25,2.7,2.7,0,0,0-1-1.66,1.35,1.35,0,0,1,.79.27L46,24a1,1,0,0,0,1.28.31.83.83,0,0,0,.43-.64,1.5,1.5,0,0,0-.1-.78l.06-.08A2.5,2.5,0,0,1,48.34,25.64Z"/><path class="cls-17" d="M14.6,36.94a47.55,47.55,0,0,0,3.6,6.37,3.42,3.42,0,0,0,1.06,3.42,2,2,0,0,1-1.27.4,2.14,2.14,0,0,1-1.47-.84A4,4,0,0,1,16,44.84a7.92,7.92,0,0,0-2-3.51h0l-.26-.28-.15.3a1.35,1.35,0,0,1-1.28.8.91.91,0,0,1-.64-.31,2,2,0,0,0,.79-.86,2.41,2.41,0,0,0-.33-2.64l-.27-.26-.12.36s-.35,1.11-1,1a.62.62,0,0,1-.45-.35c-.16-.32-.3-1.19.61-3.32A17.8,17.8,0,0,0,12.25,30,58.85,58.85,0,0,0,14.6,36.94Z"/><path class="cls-18" d="M13.28,44.17l-.06.07a1.61,1.61,0,0,1-1.91.17,2.26,2.26,0,0,1-.9-2.36,2.15,2.15,0,0,0,.8,0,1.28,1.28,0,0,0,1,.61A1.63,1.63,0,0,0,13.7,42a3.36,3.36,0,0,1,.08.71A2.11,2.11,0,0,1,13.28,44.17Z"/><path class="cls-18" d="M8.67,38.73v-.3a9.27,9.27,0,0,1,1.71-4.12l.11-.18a8.1,8.1,0,0,0,1.14-2.71,15.94,15.94,0,0,1-1.22,4.11,8,8,0,0,0-.76,2.88,1.86,1.86,0,0,0,.17.84,1.06,1.06,0,0,0,.75.6A1.31,1.31,0,0,0,12,39a1.72,1.72,0,0,1,.25.88,2.15,2.15,0,0,1-.2.9,1.58,1.58,0,0,1-.7.7h0a.1.1,0,0,0-.08.05,1.76,1.76,0,0,1-.85.06C9.19,41.39,8.67,40,8.67,38.73Z"/><path class="cls-18" d="M11.1,21.91a9.14,9.14,0,0,0-.91,5.92l.1.65a1.71,1.71,0,0,1-.92,1.95,4.28,4.28,0,0,0-.19-1.33l-.29-1.46a10,10,0,0,1,0-2.44,20.78,20.78,0,0,1,.63-3.12,7.17,7.17,0,0,0-1,2.83,10.77,10.77,0,0,0-.1,2.6.53.53,0,0,0-.13.13,7.39,7.39,0,0,0-1.73,4.73,2.92,2.92,0,0,1-.69-1.85V30a2,2,0,0,0,1.64-1.86A3.09,3.09,0,0,0,7,25.93c-.17-.2-.32-.35-.32-.35L6.54,26c-.16.84-.46,1.23-1,1.3a1,1,0,0,1-1.13-.8,1.72,1.72,0,0,0,1.32-.61,2.8,2.8,0,0,0,.37-2.72,1.92,1.92,0,0,0,.31-.11,2.92,2.92,0,0,0,1.2-1.35,1.8,1.8,0,0,0,.22-.64l-.44.26s-1.3.77-2-.17a1.72,1.72,0,0,1-.32-.95,1.49,1.49,0,0,1,.1-.55,2.31,2.31,0,0,1,1.32-1.3c.76-.3,2.11-.38,4.61-3.25Z"/><path class="cls-17" d="M22.58,55.42l-1.43-.12a4.13,4.13,0,0,1,.76,1h0a8.18,8.18,0,0,1,.44,1,6.23,6.23,0,0,0-1-.42,6.2,6.2,0,0,1-1.54-.67,2.72,2.72,0,0,1-1.28-1.78h0a7.06,7.06,0,0,0-.14-1.89,13.87,13.87,0,0,0,3.71,2.37,10,10,0,0,1,1.12.59A2.28,2.28,0,0,1,22.58,55.42Z"/><path class="cls-17" d="M24.49,56.14a4,4,0,0,0-2.12-1.72,18.57,18.57,0,0,1-3.26-1.89,4.66,4.66,0,0,1-.84-.76,3.77,3.77,0,0,0-1.07-2,28.68,28.68,0,0,0,4.79,2,4.75,4.75,0,0,1,2.57,2.53,2.72,2.72,0,0,1,.12.8A3,3,0,0,1,24.49,56.14Z"/><path class="cls-15" d="M5.58,22.89A1.21,1.21,0,0,1,5,22.73,2,2,0,0,1,3.9,20.91,2.48,2.48,0,0,1,4,20.37H4a2.76,2.76,0,0,1,1.83-2l0,.1a2.21,2.21,0,0,0-1,1.09,1.85,1.85,0,0,0-.13.7,2,2,0,0,0,.4,1.19A1.62,1.62,0,0,0,7,22h.17L7,22.08a2.52,2.52,0,0,1-.8.65,2.19,2.19,0,0,1-.33.12A.9.9,0,0,1,5.58,22.89ZM4,20.39a2.24,2.24,0,0,0-.06.52,1.85,1.85,0,0,0,1,1.72,1.22,1.22,0,0,0,.84.12h0a2,2,0,0,0,.31-.12,2.37,2.37,0,0,0,.65-.49A1.7,1.7,0,0,1,5,21.5a2.1,2.1,0,0,1-.29-2,2,2,0,0,1,.62-.84A2.65,2.65,0,0,0,4,20.39Z"/><path class="cls-15" d="M4.36,26.13a2.1,2.1,0,0,1-.56-.07h0a1.6,1.6,0,0,1-1.11-1.54v-.18a2.72,2.72,0,0,1,.56-1.65h.09V23A1.21,1.21,0,0,0,4,24.17a1.26,1.26,0,0,0,1,.15,1.64,1.64,0,0,0,.76-.54l.08-.1V24a1.22,1.22,0,0,1,0,.27,2.19,2.19,0,0,1-.46,1.39A1.34,1.34,0,0,1,4.36,26.13ZM3.83,26a1.4,1.4,0,0,0,1.52-.37,2.06,2.06,0,0,0,.43-1.31,1,1,0,0,0,0-.24V24a1.63,1.63,0,0,1-.74.5A1.31,1.31,0,0,1,4,24.33a1.43,1.43,0,0,1-.69-1,1.61,1.61,0,0,1,0-.31h0a2.61,2.61,0,0,0-.38,1.36v.18a1.49,1.49,0,0,0,1,1.43Z"/><path class="cls-15" d="M5.48,29.6a1.78,1.78,0,0,1-1.38-1h0a1.71,1.71,0,0,1-.21-.83A2,2,0,0,1,4.07,27v0a1.66,1.66,0,0,0,.25.34,1.38,1.38,0,0,0,1.18.37,1.44,1.44,0,0,0,1.29-1.08V26.5l.06.13a2.81,2.81,0,0,1,.26,1.1A1.9,1.9,0,0,1,5.48,29.6ZM4.13,27.15a1.69,1.69,0,0,0-.13.63,1.44,1.44,0,0,0,.2.78h0a1.65,1.65,0,0,0,1.28.92A1.48,1.48,0,0,0,7,28V27.7a2.45,2.45,0,0,0-.19-.93,1.55,1.55,0,0,1-2.51.6A1.77,1.77,0,0,1,4.13,27.15Z"/><path class="cls-15" d="M9.17,33a1.23,1.23,0,0,1-1-.43,2.87,2.87,0,0,1-.48-1.8v-.39l.09.11a1.36,1.36,0,0,0,1.42.43,1.66,1.66,0,0,0,1.31-1.28h.11a5.69,5.69,0,0,1,.08.83,3.86,3.86,0,0,1-.41,1.86A1.22,1.22,0,0,1,9.17,33ZM7.79,30.64v.11a2.79,2.79,0,0,0,.46,1.73,1.19,1.19,0,0,0,1.92-.22,3.52,3.52,0,0,0,.4-1.8,5.42,5.42,0,0,0,0-.57A1.73,1.73,0,0,1,9.22,31,1.52,1.52,0,0,1,7.79,30.64Z"/><path class="cls-15" d="M11.1,21.91a9.14,9.14,0,0,0-.91,5.92l.1.65a1.71,1.71,0,0,1-.92,1.95,4.28,4.28,0,0,0-.19-1.33l-.29-1.46a10,10,0,0,1,0-2.44,20.78,20.78,0,0,1,.63-3.12,7.17,7.17,0,0,0-1,2.83,10.77,10.77,0,0,0-.1,2.6.53.53,0,0,0-.13.13,7.39,7.39,0,0,0-1.73,4.73,2.92,2.92,0,0,1-.69-1.85V30a2,2,0,0,0,1.64-1.86A3.09,3.09,0,0,0,7,25.93c-.17-.2-.32-.35-.32-.35L6.54,26c-.16.84-.46,1.23-1,1.3a1,1,0,0,1-1.13-.8,1.72,1.72,0,0,0,1.32-.61,2.8,2.8,0,0,0,.37-2.72,1.92,1.92,0,0,0,.31-.11,2.92,2.92,0,0,0,1.2-1.35,1.8,1.8,0,0,0,.22-.64l-.44.26s-1.3.77-2-.17a1.72,1.72,0,0,1-.32-.95,1.49,1.49,0,0,1,.1-.55,2.31,2.31,0,0,1,1.32-1.3c.76-.3,2.11-.38,4.61-3.25Zm.35-.05V14.61H11.1a14.92,14.92,0,0,1-1.5,1.58,5.12,5.12,0,0,1-3,1.58,3.2,3.2,0,0,0-3.11,2.51,2.73,2.73,0,0,0,.1,1.55,2.81,2.81,0,0,0-1.3,2.71,2,2,0,0,0,1.4,1.91h.17a2.59,2.59,0,0,0-.38,1.3,2.32,2.32,0,0,0,.26,1A2.15,2.15,0,0,0,5.43,30h0a3.61,3.61,0,0,0,1.22,3.17l.47.49L7.05,33a7.07,7.07,0,0,1,.23-2.38,3.42,3.42,0,0,0,.56,2.2,1.68,1.68,0,0,0,1.33.58,1.65,1.65,0,0,0,1.47-.87,3.88,3.88,0,0,0,.46-2.06,39.79,39.79,0,0,1-.64-4.2,9.09,9.09,0,0,1,.68-3.53ZM3.72,23.22a1.23,1.23,0,0,1,.18-.88,2.28,2.28,0,0,0,.87.76,1.59,1.59,0,0,0,.83.2,1.57,1.57,0,0,1-.76.68.83.83,0,0,1-.67-.12A.93.93,0,0,1,3.72,23.22Zm5.16,7.31a1.2,1.2,0,0,1-1.11-.78l-.12-.22a7.29,7.29,0,0,1,.86-1.45l.22,1.13A3.26,3.26,0,0,1,8.88,30.53Z"/><path class="cls-15" d="M14.6,36.94a47.55,47.55,0,0,0,3.6,6.37,3.42,3.42,0,0,0,1.06,3.42,2,2,0,0,1-1.27.4,2.14,2.14,0,0,1-1.47-.84A4,4,0,0,1,16,44.84a7.92,7.92,0,0,0-2-3.51h0l-.26-.28-.15.3a1.35,1.35,0,0,1-1.28.8.91.91,0,0,1-.64-.31,2,2,0,0,0,.79-.86,2.41,2.41,0,0,0-.33-2.64l-.27-.26-.12.36s-.35,1.11-1,1a.62.62,0,0,1-.45-.35c-.16-.32-.3-1.19.61-3.32A17.8,17.8,0,0,0,12.25,30,58.85,58.85,0,0,0,14.6,36.94Zm.23-.15A46.11,46.11,0,0,1,12,27.53l-.06.75a10.56,10.56,0,0,1-1.79,5.6l-.11.18a9.76,9.76,0,0,0-1.79,4.35c-.1,1.74.6,3.13,1.74,3.53a2.72,2.72,0,0,0,1.11,2.87,2,2,0,0,0,2.23-.07,17.59,17.59,0,0,0,.71,2c.26.54.52,1.81.1,2.16s-1.39-.28-1.39-.28a2.73,2.73,0,0,0-.24,2.18c.59,1.65,2.62,1.25,3.09,1.05a3.21,3.21,0,0,0,.28.86l.83,1.35A11.82,11.82,0,0,1,17.78,56l.15.69.26-.64a5.83,5.83,0,0,0,.22-.71,3.3,3.3,0,0,0,1.19,1.27,6.4,6.4,0,0,0,1.63.71,2.92,2.92,0,0,1,1.35.7l.49.52-.1-.72a5.11,5.11,0,0,0-.82-1.9,3.49,3.49,0,0,0,1.54-.08,3,3,0,0,1,.61,1l.17.43.24-.4A3.47,3.47,0,0,0,25,54.18a4.49,4.49,0,0,0-2.29-2.55c1.42-.07,1.83-.51,1.83-.51a3.72,3.72,0,0,0-2.66-1.48,1.15,1.15,0,0,0,.66-.6,3.71,3.71,0,0,0-2.77-1.32,4.52,4.52,0,0,1-1.27-.16,2.72,2.72,0,0,0,1.26-.62l.19-.17-.19-.17a3.22,3.22,0,0,1-1.23-2.78l.07-.43A32.89,32.89,0,0,1,14.83,36.79ZM8.67,38.73v-.3a9.27,9.27,0,0,1,1.71-4.12l.11-.18a8.1,8.1,0,0,0,1.14-2.71,15.94,15.94,0,0,1-1.22,4.11,8,8,0,0,0-.76,2.88,1.86,1.86,0,0,0,.17.84,1.06,1.06,0,0,0,.75.6A1.31,1.31,0,0,0,12,39a1.72,1.72,0,0,1,.25.88,2.15,2.15,0,0,1-.2.9,1.58,1.58,0,0,1-.7.7h0a.1.1,0,0,0-.08.05,1.76,1.76,0,0,1-.85.06C9.19,41.39,8.67,40,8.67,38.73Zm4.61,5.44-.06.07a1.61,1.61,0,0,1-1.91.17,2.26,2.26,0,0,1-.9-2.36,2.15,2.15,0,0,0,.8,0,1.28,1.28,0,0,0,1,.61A1.63,1.63,0,0,0,13.7,42a3.36,3.36,0,0,1,.08.71A2.11,2.11,0,0,1,13.28,44.17Zm4.67,11v.06c-.23-.4-.53-.9-.87-1.42l-.81-1.32a3.36,3.36,0,0,1-.33-1.16,9.63,9.63,0,0,1,0-1.86,3.14,3.14,0,0,0-.47,1.91,2.49,2.49,0,0,1-2,0,1.16,1.16,0,0,1-.59-.74,2.28,2.28,0,0,1-.12-.73,1.81,1.81,0,0,1,.15-.65c.65.29,1.15.29,1.47,0,.61-.59.3-2.07,0-2.7a17.74,17.74,0,0,1-.74-2.12,2.86,2.86,0,0,0,.52-2.12A6.12,6.12,0,0,1,15.53,45c.17,1,.75,3,4.19,3.24A4.87,4.87,0,0,1,22,49c-.23.24-.25.3-1,.47a11.31,11.31,0,0,1-3.69-.68,6,6,0,0,0,2.76,1S21,50,21.17,50a4.45,4.45,0,0,1,2.48,1,3.7,3.7,0,0,1-1.86.24,27.88,27.88,0,0,1-4.8-1.6,8,8,0,0,1,1,5.52Zm4.63.26-1.43-.12a4.13,4.13,0,0,1,.76,1h0a8.18,8.18,0,0,1,.44.95,6.23,6.23,0,0,0-1-.42,6.2,6.2,0,0,1-1.54-.67,2.72,2.72,0,0,1-1.28-1.78h0a7.06,7.06,0,0,0-.14-1.89,13.87,13.87,0,0,0,3.71,2.37,10,10,0,0,1,1.12.59,2.28,2.28,0,0,1-.64,0Zm1.91.72a4,4,0,0,0-2.12-1.72,18.57,18.57,0,0,1-3.26-1.89,4.66,4.66,0,0,1-.84-.76,3.77,3.77,0,0,0-1.07-2,28.68,28.68,0,0,0,4.79,2,4.75,4.75,0,0,1,2.57,2.53,2.72,2.72,0,0,1,.12.8,3,3,0,0,1-.19,1Z"/><path class="cls-17" d="M4,20.38a2.74,2.74,0,0,1,1.8-2,2.36,2.36,0,0,0-1,1.12,2,2,0,0,0,.27,1.94A1.68,1.68,0,0,0,7,22.05a2.38,2.38,0,0,1-.78.63,2.08,2.08,0,0,1-.32.12,1.27,1.27,0,0,1-.9-.12,1.89,1.89,0,0,1-1.06-1.77A2.33,2.33,0,0,1,4,20.38Z"/><path class="cls-17" d="M3.81,26a1.54,1.54,0,0,1-1.06-1.48v-.18a2.61,2.61,0,0,1,.55-1.61,1.31,1.31,0,0,0,0,.28v.3a1.41,1.41,0,0,0,.67,1,1.3,1.3,0,0,0,1,.17,1.6,1.6,0,0,0,.79-.57,1.86,1.86,0,0,1,.08.41,2.11,2.11,0,0,1-.45,1.35A1.45,1.45,0,0,1,3.81,26Z"/><path class="cls-17" d="M4.15,28.59A1.61,1.61,0,0,1,4,27.78,1.89,1.89,0,0,1,4.12,27a1.52,1.52,0,0,0,.26.35,1.47,1.47,0,0,0,1.22.39,1.53,1.53,0,0,0,1.25-1.12A2.89,2.89,0,0,1,7.1,27.7a1.61,1.61,0,0,1,0,.31,1.54,1.54,0,0,1-1.56,1.5h0A1.72,1.72,0,0,1,4.15,28.59Z"/><path class="cls-17" d="M10.56,29.64a4.47,4.47,0,0,1,.08.82,3.63,3.63,0,0,1-.4,1.83,1.18,1.18,0,0,1-1.07.64,1.14,1.14,0,0,1-1-.42,2.82,2.82,0,0,1-.47-1.76v-.24A1.47,1.47,0,0,0,9.21,31,1.69,1.69,0,0,0,10.56,29.64Z"/><path class="cls-18" d="M18,55.16v.06c-.23-.4-.53-.9-.87-1.42l-.81-1.32A3.36,3.36,0,0,1,16,51.32a9.63,9.63,0,0,1,0-1.86,3.14,3.14,0,0,0-.47,1.91,2.49,2.49,0,0,1-2,0,1.16,1.16,0,0,1-.59-.74,2.24,2.24,0,0,1-.12-.73,1.81,1.81,0,0,1,.15-.65c.65.29,1.15.29,1.47,0,.61-.59.3-2.07,0-2.7a17.74,17.74,0,0,1-.74-2.12,2.86,2.86,0,0,0,.52-2.12A6.12,6.12,0,0,1,15.57,45c.17,1,.75,3,4.19,3.24A4.84,4.84,0,0,1,22,49c-.23.24-.25.3-1,.47a11.31,11.31,0,0,1-3.69-.68,6,6,0,0,0,2.76,1S21,50,21.17,50a4.45,4.45,0,0,1,2.48,1,3.7,3.7,0,0,1-1.86.24,27.88,27.88,0,0,1-4.8-1.6A8,8,0,0,1,18,55.16Z"/><path class="cls-18" d="M39.84,15v6.91L37.1,28.2c-.35-.75-2.84-6.27-2.84-6.27l-2.87,6.28-2.85-6.28-2.87,6.28-2.84-6.28L20,28.21l-2.85-6.28L14.25,28.2c-.34-.76-2.76-6.27-2.76-6.27V15Z"/><path class="cls-17" d="M25.66,50.67C13.38,41.09,11.74,26.91,11.52,23.06l2.72,6.19s2.54-5.59,2.87-6.33c.34.74,2.85,6.33,2.85,6.33l2.87-6.33,2.84,6.33,2.87-6.33c.34.74,2.84,6.33,2.84,6.33l2.88-6.33,2.84,6.33,2.72-6.18C39.59,26.91,38,41.09,25.66,50.67Z"/><path class="cls-15" d="M40.27,14.59H11.06v7.5c0,.73.16,18,14.48,29l.12.1.13-.1c14.32-11.07,14.49-28.3,14.49-29Zm-.43.43v6.91L37.1,28.2c-.35-.75-2.84-6.27-2.84-6.27l-2.87,6.28-2.85-6.28-2.87,6.28-2.84-6.28L20,28.21l-2.85-6.28L14.25,28.2c-.34-.76-2.76-6.27-2.76-6.27V15ZM25.66,50.67C13.38,41.09,11.74,26.91,11.52,23.06l2.72,6.19s2.54-5.59,2.87-6.33c.34.74,2.85,6.33,2.85,6.33l2.87-6.33,2.84,6.33,2.87-6.33c.34.74,2.84,6.33,2.84,6.33l2.88-6.33,2.84,6.33,2.72-6.18C39.59,26.91,38,41.09,25.66,50.67Z"/><path class="cls-15" d="M4.46,20.89c.29.65.47,1.28,1.62,1.35a1.07,1.07,0,0,1-1.35,0A1.31,1.31,0,0,1,4.46,20.89Z"/><path class="cls-15" d="M3.55,24.52A1.47,1.47,0,0,0,5.26,25a.9.9,0,0,1-1.15.49A.86.86,0,0,1,3.55,24.52Z"/><path class="cls-15" d="M5,28.64a1.65,1.65,0,0,0,1.81-.46.9.9,0,0,1-.77,1H6A.89.89,0,0,1,5,28.64Z"/><path class="cls-15" d="M9.34,31.63A2.36,2.36,0,0,0,10.67,30s.18.95-.06,1.31C10.61,31.32,10.32,31.77,9.34,31.63Z"/><path class="cls-15" d="M9.23,32.6c.56-.2.67-.52.67-.52-.78.23-1.34.43-2-.25a1.21,1.21,0,0,0,.51.88A1.54,1.54,0,0,0,9.23,32.6Z"/><path class="cls-15" d="M12.34,32.2a13.55,13.55,0,0,1-.65,2.58c-.34.83-.82,2-.51,2.69,0,0,.26-.85.87-2.28A4.35,4.35,0,0,0,12.34,32.2Z"/><path class="cls-15" d="M12.09,38c-.33-.41-.38-.7,0-1.71a6.07,6.07,0,0,0,.58-1.9s.61.31-.06,1.81A4.4,4.4,0,0,0,12.09,38Z"/><path class="cls-15" d="M9.37,40a1.41,1.41,0,0,0,2,.46,1.4,1.4,0,0,0,.56-.64,1.26,1.26,0,0,1-1.21,1.31h0C9.63,41.2,9.37,40,9.37,40Z"/><path class="cls-15" d="M11,42.84a1.55,1.55,0,0,0,2.18.21,1,1,0,0,0,.21-.21,1.33,1.33,0,0,1-1.29,1A1.16,1.16,0,0,1,11,42.84Z"/><path class="cls-15" d="M13.53,38.12a3.72,3.72,0,0,0,.74,2.79,9.35,9.35,0,0,1,2.26,4.31s.36-1-1-3.43a18.42,18.42,0,0,0-1.12-1.51A6.08,6.08,0,0,1,13.53,38.12Z"/><path class="cls-15" d="M16.78,43.16a3.36,3.36,0,0,0,1.63,3.38,12.51,12.51,0,0,1-1-1.69A10.09,10.09,0,0,1,16.78,43.16Z"/><path class="cls-15" d="M19.19,54.36a3.76,3.76,0,0,0,2.13,1.79,1.77,1.77,0,0,1-1.46-.56A1.53,1.53,0,0,1,19.19,54.36Z"/><path class="cls-15" d="M19.17,53.66a2.22,2.22,0,0,0,1.51.78A1.81,1.81,0,0,1,22,55a5.3,5.3,0,0,0-1.47-.27A1.47,1.47,0,0,1,19.17,53.66Z"/><path class="cls-15" d="M5.38,20.79a1.12,1.12,0,0,1,.74-1.05c.53-.21,1.12-.42,1.18-.72,0,0,.06.63-.86,1S5.38,20.79,5.38,20.79Z"/><path class="cls-15" d="M9.61,18.9a9.47,9.47,0,0,1-1.78.94,12.9,12.9,0,0,0,3.25-3.34v.93A8.52,8.52,0,0,1,9.61,18.9Z"/><path class="cls-15" d="M8,22.78A3.77,3.77,0,0,1,9,21c.47-.57,1.42-1.32,1.53-1.86a3,3,0,0,1-1.06,2A10,10,0,0,0,8,22.78Z"/><path class="cls-15" d="M9.52,25.29a3.65,3.65,0,0,1,1.18-3.42A12.28,12.28,0,0,0,9.52,25.29Z"/><path class="cls-15" d="M40.31,38.72c.52.1,1.33.23,1.65-.69a1,1,0,0,1-.56,1.1A.88.88,0,0,1,40.31,38.72Z"/><path class="cls-15" d="M40.49,39.42A1.47,1.47,0,0,0,42,39a.82.82,0,0,1-.62.78A.91.91,0,0,1,40.49,39.42Z"/><path class="cls-15" d="M37.57,43.22a1.78,1.78,0,0,0,2,.48,1.36,1.36,0,0,1-1.8.33Z"/><path class="cls-15" d="M39.62,44.55h-.68c.44-.11,1.42-.47,1.51-1.31,0,0,.06.93-.16,1.2A3,3,0,0,1,39.62,44.55Z"/><path class="cls-15" d="M41.05,21.41a7.91,7.91,0,0,0,.46,2.36c.42,1.74-.11,3.65,0,4.6a1.47,1.47,0,0,0,.73,1.28,3.18,3.18,0,0,1-.33-2.14c.29-2.41.24-3.28-.16-4.28S41.05,21.41,41.05,21.41Z"/><path class="cls-15" d="M40.79,19.24a3.73,3.73,0,0,0,.78,2.29,7,7,0,0,1,1.31,2.55,5.35,5.35,0,0,0-.8-2.7A6.58,6.58,0,0,1,40.79,19.24Z"/><path class="cls-15" d="M43,23a4.6,4.6,0,0,0-1-2.14,2.73,2.73,0,0,1-.76-2.07,4.4,4.4,0,0,0,1,1.55A3,3,0,0,1,43,23Z"/><path class="cls-15" d="M44,23.64a1.83,1.83,0,0,0,.22,1.51c.55.81.93,1,1,1.26A2.6,2.6,0,0,0,44.68,25,2.47,2.47,0,0,1,44,23.64Z"/><path class="cls-15" d="M41,16.66a6.89,6.89,0,0,0,1.51,1.23c.47.36,1.09,1.29.91,1.83a2.9,2.9,0,0,0-1.13-1.47C41.37,17.63,41,17.31,41,16.66Z"/><path class="cls-15" d="M44.34,18.7a2.12,2.12,0,0,1,.33,1.49,1,1,0,0,1-1,.72A1,1,0,0,0,45,20.42l.06-.17C45.42,19.29,44.34,18.7,44.34,18.7Z"/><path class="cls-15" d="M42.36,32.71c.66.06,2.09,0,2.14-2.09A1.75,1.75,0,0,1,43.73,33a1.51,1.51,0,0,1-.58.18Z"/><path class="cls-15" d="M39.07,33.58a4.45,4.45,0,0,0,.65,2.33c.81,1.21,1,1.79.91,2.14a2.65,2.65,0,0,0-.52-2.36A4.81,4.81,0,0,1,39.07,33.58Z"/><path class="cls-15" d="M38.21,36.61a3.24,3.24,0,0,0,0,3c.74,1.76,1,2.14.95,2.57,0,0,.53-.56-.53-2.75A5.68,5.68,0,0,1,38.21,36.61Z"/><path class="cls-15" d="M29.56,51.63a4.6,4.6,0,0,0,2.9-1.51,2,2,0,0,1-1.18,1.45C30.06,52.05,29.56,51.63,29.56,51.63Z"/><path class="cls-15" d="M32.93,53.88h0a2.49,2.49,0,0,1,.13-2A15.64,15.64,0,0,0,34,50a2.85,2.85,0,0,1-.47,1.86A3.78,3.78,0,0,0,32.93,53.88Z"/><path class="cls-15" d="M32.25,49.35a9,9,0,0,0-1.47.18c.55-.54,1.34-.6,2.68-.81a3,3,0,0,0,2.4-1.54,2.19,2.19,0,0,1-1.62,1.87A6.12,6.12,0,0,1,32.25,49.35Z"/><path class="cls-15" d="M36,49.14c.08.59.2,2,1.62,1.8a1.06,1.06,0,0,1-1.51-.06l-.08-.09A1.84,1.84,0,0,1,36,49.14Z"/><path class="cls-15" d="M37.34,51.51c-.44.3-1.75.54-2-1.26,0,0-.52,1.21.36,1.83S37.34,51.51,37.34,51.51Z"/><path class="cls-15" d="M35,46.37a13.58,13.58,0,0,0,.29-2,3,3,0,0,1,1-2.07,7.37,7.37,0,0,0-.62,2A4.23,4.23,0,0,1,35,46.37Z"/><path class="cls-15" d="M30.91,55.2a5.34,5.34,0,0,1-1.49,1,9.18,9.18,0,0,0,1.25-1.32,10,10,0,0,0,1.44-2.25L32,53.84A7.87,7.87,0,0,1,30.91,55.2Z"/><path class="cls-15" d="M45.24,22.21c.53-.08,2-.64.94-2.93a2,2,0,0,1,.71,2.29A1.33,1.33,0,0,1,45.24,22.21Z"/><path class="cls-15" d="M48,23.94h0a1,1,0,0,1-1.71.82,1,1,0,0,0,1.14.83.92.92,0,0,0,.33-.11A1.19,1.19,0,0,0,48,23.94Z"/><path class="cls-15" d="M3.17,15.25a6.2,6.2,0,0,0-.61,1.06,1.54,1.54,0,0,1,1.16-1.84,1.24,1.24,0,0,1,.33,0A3.44,3.44,0,0,0,3.17,15.25Z"/><path class="cls-15" d="M4.4,15.22a5.26,5.26,0,0,0-.8.9,1.53,1.53,0,0,1,1.49-1.57,2,2,0,0,1,.34,0A3.43,3.43,0,0,0,4.4,15.22Z"/><path class="cls-15" d="M7.69,15.66a2.52,2.52,0,0,1,2.61-1.79,8.5,8.5,0,0,0-1.51.75A10.82,10.82,0,0,0,7.69,15.66Z"/><path class="cls-15" d="M7.84,13.32A13.13,13.13,0,0,0,10,12.83a4,4,0,0,1,2.06-.16,9,9,0,0,0-1.78.48C8.25,13.82,7.84,13.32,7.84,13.32Z"/><path class="cls-15" d="M17.19,11.77s.87-.52.89-1.1l.44-.15.35-.08S18.18,11.71,17.19,11.77Z"/><path class="cls-15" d="M11.18,10.91a2.24,2.24,0,0,1,1.17.17,8.3,8.3,0,0,0,1.45.67,2,2,0,0,1-1.49-.37A4.16,4.16,0,0,0,11.18,10.91Z"/><path class="cls-15" d="M47.53,13.51a1.28,1.28,0,0,1,1,1c.2.52.41.53.5.56s-.52.25-.94-.81A2,2,0,0,0,47.53,13.51Z"/><path class="cls-15" d="M46,13.37a2.37,2.37,0,0,1,1.65,1.15,2.71,2.71,0,0,0,1.07,1,2.48,2.48,0,0,1-1.46-.92A4.47,4.47,0,0,0,46,13.37Z"/><path class="cls-15" d="M44.12,5.1a3,3,0,0,0,1.16,1.71,2.68,2.68,0,0,1,1,2.12A7.48,7.48,0,0,0,45,7.08,1.85,1.85,0,0,1,44.12,5.1Z"/><path class="cls-15" d="M46.65,7.4a13.56,13.56,0,0,0-.51-1.52A2.33,2.33,0,0,1,46.84,9,6.61,6.61,0,0,0,46.65,7.4Z"/><path class="cls-15" d="M39.38,6.74a4.46,4.46,0,0,0,1.72-.4,2.49,2.49,0,0,1,2,0,4.6,4.6,0,0,0-1.87.34C39.81,7.36,39.38,6.74,39.38,6.74Z"/><path class="cls-15" d="M40.31,5.23a2,2,0,0,1,2.78.49.61.61,0,0,1,.07.1,3.84,3.84,0,0,0-1.42-.54A4.3,4.3,0,0,0,40.31,5.23Z"/><path class="cls-15" d="M39.55,4.74A2.89,2.89,0,0,0,37.34,5a2.76,2.76,0,0,1,2.85-.56Z"/><path class="cls-15" d="M41.15,8a3.27,3.27,0,0,0,1.46-.47,2,2,0,0,1,2,.33A2.54,2.54,0,0,0,42.87,8,2.54,2.54,0,0,1,41.15,8Z"/><path class="cls-15" d="M46.22,3.19a6.23,6.23,0,0,0,1.09.89,1.52,1.52,0,0,1,.5,1.27,3,3,0,0,0-.93-1.08A1.2,1.2,0,0,1,46.22,3.19Z"/></g></g></svg>