<svg xmlns="http://www.w3.org/2000/svg" viewBox="0 0 113.04 146.99"><defs><style>.cls-1{fill:#fff;stroke:#f2f2f2;stroke-miterlimit:10;}.cls-2{font-size:9.82px;font-family:29LTBukra-Bold, 29LT Bukra;font-weight:700;}.cls-2,.cls-3{fill:#161511;}.cls-4{fill:#c11627;}</style></defs><title>footer-icon10_1</title><g id="Layer_2" data-name="Layer 2"><g id="Layer_1-2" data-name="Layer 1"><rect class="cls-1" x="0.5" y="22.49" width="112.04" height="124"/><text class="cls-2" transform="translate(85.12 8.89)">ةياغلا</text><path class="cls-3" d="M11.88,7.5V3.05A2.18,2.18,0,0,1,14.19.56c1.71,0,2.18,1,2.18,2.31V4H15V2.75c0-.57-.19-.9-.75-.9s-.78.4-.78.95v5c0,.55.23.95.78.95s.75-.36.75-.9V6.1h1.41V7.69c0,1.32-.54,2.3-2.18,2.3A2.18,2.18,0,0,1,11.88,7.5Z"/><path class="cls-3" d="M1.5,7.41,4.17.65H5.7v6.5h.62V8.36H5.7V9.85H4.23V8.36H1.5Zm1.36-.26h1.4V3.36h0Z"/><polygon class="cls-3" points="8.29 3.34 8.29 7.19 10.25 5.26 8.29 3.34"/><path class="cls-4" d="M82.14,72.47v-16H54.6v16h.47l1.33-2.56a1.48,1.48,0,0,1,1.32-.8,1.46,1.46,0,0,1,.68.17l.13.07a1.48,1.48,0,0,1,.63,2l-.58,1.12H82.14Z"/><path class="cls-4" d="M84.15,54H52.5a.39.39,0,0,0-.39.39V74.61a.39.39,0,0,0,.39.39h1.24l.41-.78H52.9V54.75H83.75V74.22H57.66l-.41.78h26.9a.39.39,0,0,0,.39-.39V54.35A.39.39,0,0,0,84.15,54Z"/><rect class="cls-4" x="57.03" y="90.04" width="27.51" height="3.23"/><rect class="cls-4" x="58.73" y="94.88" width="2.25" height="20.13"/><rect class="cls-4" x="70.53" y="94.88" width="12.48" height="4.97"/><rect class="cls-4" x="70.53" y="100.89" width="12.48" height="4.97"/><rect class="cls-4" x="70.53" y="106.9" width="12.48" height="8.12"/><path class="cls-4" d="M36,70.15a4.37,4.37,0,1,0,6.48-3.81,1.44,1.44,0,0,0,.23-.76,2.25,2.25,0,0,0-4.39,0,1.33,1.33,0,0,0,.16.65A4.35,4.35,0,0,0,36,70.15Z"/><path class="cls-4" d="M58,70.39l-.12-.06a.43.43,0,0,0-.14,0,.32.32,0,0,0-.28.17l-1,2-.92,1.75-.41.78-1,2-.5.92H53a1.6,1.6,0,0,0-1.45.84l-1.7,3.12L49,79.1s-1-2.63-3.23-3.16a9.6,9.6,0,0,0-1-.12H43.36l-3,3-3-3H36A3.83,3.83,0,0,0,35,76a5.66,5.66,0,0,0-2.93,3.09L28.61,90.43S28,92.51,29.75,93,32,91.52,32,91.52l2.8-9.46s.15-.73.7-.57.34.93.34.93L31,100.15h4.54v12.69a2.19,2.19,0,0,0,4.37,0V100.15h1.24v12.69a2.18,2.18,0,1,0,4.36,0V100.15h4.54L45.17,82.42s-.21-.77.34-.93.7.57.7.57l.92,3.12h0l.51,1.74a1.61,1.61,0,0,0,2.92.39h0l0,0,0-.09,3.16-5.81A1.71,1.71,0,0,0,55,79.67a1.74,1.74,0,0,0-.76-1.46L55.92,75l.41-.78.91-1.75.87-1.66A.31.31,0,0,0,58,70.39Z"/></g></g></svg>