<svg xmlns="http://www.w3.org/2000/svg" viewBox="0 0 113.37 146.99"><defs><style>.cls-1{fill:#fff;stroke:#f2f2f2;stroke-miterlimit:10;}.cls-2{font-size:9.82px;font-family:29LTBukra-Bold, 29LT Bukra;font-weight:700;}.cls-2,.cls-3{fill:#161511;}.cls-4{fill:#c11627;}</style></defs><title>footer-icon2_1</title><g id="Layer_2" data-name="Layer 2"><g id="Layer_1-2" data-name="Layer 1"><rect class="cls-1" x="0.57" y="22.49" width="112.04" height="124"/><text class="cls-2" transform="translate(85.63 8.89)">ةياغلا</text><path class="cls-3" d="M0,8.26,2.59,1.71H4.07V8h.6V9.18h-.6v1.45H2.64V9.18H0ZM1.32,8H2.67V4.34h0Z"/><path class="cls-3" d="M7.1,5.12A1.09,1.09,0,1,1,6,6.2,1.1,1.1,0,0,1,7.1,5.12Z"/><path class="cls-3" d="M9.51,9a3.09,3.09,0,0,1,1.12-2.33l.84-.9A1.75,1.75,0,0,0,12,4.22V3.49c0-.56-.25-.67-.53-.67s-.58.15-.58.69V4.63H9.54V3.55a1.75,1.75,0,0,1,2-1.94c1.35,0,2,.6,2,1.88v.86a2.8,2.8,0,0,1-.94,2.25l-1,1A1.71,1.71,0,0,0,11,9v.42h2.46v1.22H9.51Z"/><path class="cls-4" d="M46.63,104.15H56.2V94.58H46.63Zm2.76-7.64h2c1.44,0,1.84.68,1.84,1.61a1.19,1.19,0,0,1-.62,1.09,1.23,1.23,0,0,1,.79,1.27c0,1-.45,1.74-2,1.74H49.39Z"/><path class="cls-4" d="M52,98.16a.54.54,0,0,0-.59-.61H50.6v1.22h.79A.54.54,0,0,0,52,98.16Z"/><path class="cls-4" d="M52.15,100.47a.63.63,0,0,0-.7-.71H50.6v1.43h.85A.63.63,0,0,0,52.15,100.47Z"/><path class="cls-4" d="M57.47,94.58v9.57H67V94.58Zm6.61,3.19A2.49,2.49,0,0,0,63,97.55c-.93,0-1.35.37-1.35,1.82s.42,1.82,1.35,1.82a2.64,2.64,0,0,0,1.07-.22v1.15a2.79,2.79,0,0,1-1.19.21c-1.67,0-2.46-.81-2.47-3s.8-3,2.47-3a2.59,2.59,0,0,1,1.19.22Z"/><polygon class="cls-4" points="56.34 89.34 57.31 89.34 56.82 87.18 56.34 89.34"/><path class="cls-4" d="M61.62,83.82H52.05v9.57h9.57Zm-3.81,7.66-.26-1.17H56.1l-.27,1.17H54.54l1.58-5.74h1.4l1.59,5.74Z"/><path class="cls-4" d="M79.61,74.32a4.75,4.75,0,1,0-4.75-4.75A4.75,4.75,0,0,0,79.61,74.32Z"/><path class="cls-4" d="M91,88.14c0-.21-1.43-3.57-1.84-4.63-2.86-7.37-3.34-7.32-5.93-7.4H76c-2.59.08-3.07,0-5.93,7.4-.41,1.06-2.13,5.16-2.15,5.36,0,0-.71,1.73.89,2.3,1.39.5,2-1.2,2-1.2l2.93-7.19s.07-.16.17-.15.11.15.12.23V101.6h0a2.46,2.46,0,0,0,2.44,2.55,2.42,2.42,0,0,0,2.4-2.55V94.12S78.78,93,79.6,93s.74,1.13.74,1.13v7.48a2.46,2.46,0,0,0,2.45,2.55,2.4,2.4,0,0,0,2.38-2.55h0V82.84c0-.17,0-.22.09-.23s.2.17.2.17l2.64,6.46s.77,1.72,2.22,1S91,88.14,91,88.14Z"/><path class="cls-4" d="M45,89.66l-3.48-10.4a4.27,4.27,0,0,0-2.77-2.43,14.75,14.75,0,0,0-2.25-.11H30.59s-1.5,0-2.27.08c-2,.23-2.75,2.46-2.75,2.46l-3.48,10.4s-.54,1.66,1,2.07a1.64,1.64,0,0,0,2-1.2L28,81.62s.12-.57.59-.45.3.74.3.74l-.21.75-3,10.81-.15.54H28v7.76a2.38,2.38,0,0,0,2.39,2.38h0a2.39,2.39,0,0,0,1.63-.65,2.35,2.35,0,0,0,.75-1.73V94.29a2.14,2.14,0,0,1,0-.28h1.44a2.14,2.14,0,0,1,0,.28v7.48a2.39,2.39,0,0,0,2.37,2.38h0A2.38,2.38,0,0,0,39,101.77V94h2.57l-.15-.54-3-10.81-.21-.75s-.18-.62.29-.74.6.45.6.45L42,90.53a1.65,1.65,0,0,0,2,1.2C45.48,91.32,45,89.66,45,89.66Z"/><path class="cls-4" d="M34.17,74.5a4.84,4.84,0,1,0-4.83-4.84A4.84,4.84,0,0,0,34.17,74.5Z"/></g></g></svg>