<svg xmlns="http://www.w3.org/2000/svg" viewBox="0 0 113.04 146.99"><defs><style>.cls-1{fill:#fff;stroke:#f2f2f2;stroke-miterlimit:10;}.cls-2{font-size:9.82px;font-family:29LTBukra-Bold, 29LT Bukra;font-weight:700;}.cls-2,.cls-3{fill:#161511;}.cls-4{fill:#c11627;}</style></defs><title>footer-icon5_1</title><g id="Layer_2" data-name="Layer 2"><g id="Layer_1-2" data-name="Layer 1"><rect class="cls-1" x="0.5" y="22.49" width="112.04" height="124"/><text class="cls-2" transform="translate(84.93 8.89)">ةياغلا</text><path class="cls-3" d="M.14,8.24l2.7-6.82H4.38V8H5V9.2H4.38v1.51H2.9V9.2H.14ZM1.51,8H2.92V4.16h0Z"/><path class="cls-3" d="M7.54,5A1.13,1.13,0,1,1,6.4,6.09,1.14,1.14,0,0,1,7.54,5Z"/><path class="cls-3" d="M14.64,6.42V8.69a1.94,1.94,0,0,1-2.22,2.13c-1.59,0-2.15-.91-2.15-2.32v-1h1.42V8.61c0,.55.19.91.73.91s.66-.35.66-.84V6.43c0-.5-.2-.83-.68-.83s-.68.3-.68.85v.2H10.3V1.42h4.11V2.69H11.72V5h0a1.41,1.41,0,0,1,1.32-.65C13.88,4.36,14.64,5,14.64,6.42Z"/><polygon class="cls-4" points="52.9 60.53 39.81 52.97 39.81 77.42 52.9 81.37 52.9 60.53"/><polygon class="cls-4" points="54.34 60.58 54.34 81.38 67.51 77.42 67.51 52.97 54.34 60.58"/><path class="cls-4" d="M77.78,52.35a1.55,1.55,0,0,0-3.09,0V54h3.09Z"/><polygon class="cls-4" points="75.07 76.99 74.69 76.99 76.24 82.4 77.78 76.99 77.4 76.99 77.78 76.99 77.78 55.24 77.4 55.24 77.02 55.24 76.61 55.24 75.84 55.24 75.46 55.24 75.07 55.24 74.69 55.24 74.69 76.99 75.07 76.99"/><polygon class="cls-4" points="70.32 54.02 68.92 52.91 68.92 78.08 54.38 82.78 53.7 82.78 53.57 82.78 52.9 82.78 38.42 78.74 38.42 52.91 37.02 54.02 37.02 79.72 52.83 84.1 53.57 84.1 53.7 84.1 54.44 84.1 69.03 79.47 70.32 79.09 70.32 54.02"/><path class="cls-4" d="M89.43,105.31s-.36-1.31-1.5-1.29l-1.08,0h-3a1,1,0,0,1-.76-.36c-.39-.38-1.55-2.45-1.62-2.51l-.57-.94a.92.92,0,0,0-.77-.46.9.9,0,0,0-.9.9,1.72,1.72,0,0,0,.09.4l3.06,5.51a1.61,1.61,0,0,1,.16.6v.61a2,2,0,0,1-.08.55l-1.24,4.59h1.32v4h0a1.23,1.23,0,0,0,1.62,1.17,1.25,1.25,0,0,0,.83-1.21V113a.63.63,0,0,1,0-.15h.74v3.94a1.25,1.25,0,0,0,.82,1.21,1.23,1.23,0,0,0,1.63-1.16v-4h1.32l-1.75-6.22s-.09-.32.16-.38.3.23.3.23l1.49,4.58a.85.85,0,0,0,1,.62c.79-.21.51-1.07.51-1.07Z"/><path class="cls-4" d="M85.67,102.86a2.49,2.49,0,1,0-2.48-2.49A2.48,2.48,0,0,0,85.67,102.86Z"/><path class="cls-4" d="M27.88,102.76a2.44,2.44,0,1,0-2.44-2.44A2.44,2.44,0,0,0,27.88,102.76Z"/><path class="cls-4" d="M33.74,109.87c0-.11-.73-1.84-.94-2.38-1.48-3.79-1.72-3.77-3-3.81H26c-1.34,0-1.58,0-3.06,3.81-.21.54-1.09,2.65-1.1,2.76s-.37.89.46,1.18,1-.62,1-.62l1.51-3.69s0-.09.09-.08,0,.07.06.12v9.63h0a1.27,1.27,0,0,0,1.26,1.32,1.25,1.25,0,0,0,1.24-1.32V113s-.05-.59.37-.59.38.59.38.59v3.84a1.28,1.28,0,0,0,1.26,1.32,1.25,1.25,0,0,0,1.23-1.32h0v-9.64c0-.09,0-.12,0-.12s.1.09.1.09l1.36,3.31s.39.89,1.14.54S33.74,109.87,33.74,109.87Z"/><path class="cls-4" d="M61.27,109.2a1.17,1.17,0,0,0-1.24-.57H57.62v-3.81A1.58,1.58,0,0,0,56,103.23h-.66a1.5,1.5,0,0,0-.37,0h0a1,1,0,0,0-.25.08l-3.19,1-.06,0-.09,0,0,0a.89.89,0,0,0-.38.45l-1,2.77a.87.87,0,1,0,1.64.59l.84-2.37,1.29-.41h0V110a1.51,1.51,0,0,0,.17.7,1.45,1.45,0,0,0,1.34.89h4.54l2,3.46a1.19,1.19,0,0,0,1.62.43l.06,0a1.19,1.19,0,0,0,.44-1.62Z"/><path class="cls-4" d="M59.43,113.39H58.08a4,4,0,1,1-7.51-2.74l-.11-.06-.11-.07-.91-.57-.11-.07-.11-.06a5.61,5.61,0,1,0,10.46,3.57h-.25Z"/><path class="cls-4" d="M55.88,102.42a2.32,2.32,0,1,0-2.31-2.32A2.32,2.32,0,0,0,55.88,102.42Z"/><path class="cls-4" d="M43.84,98.55H39a2.78,2.78,0,0,0-2.53,2.77v5.79a.81.81,0,0,0,1.61,0v-5c0-.19.05-.44.4-.44s.28.25.29.41V117a1.17,1.17,0,0,0,2.33,0v-8.59a.32.32,0,0,1,.33-.34h0a.31.31,0,0,1,.32.34V117a1.17,1.17,0,0,0,2.33,0v-14.9c0-.16.06-.41.29-.41s.4.25.4.44v5a.81.81,0,0,0,1.62,0v-5.79A2.78,2.78,0,0,0,43.84,98.55Z"/><path class="cls-4" d="M39.26,93.06c0-.33-.38-.73-1.11-.38-.9.42-.8,1.75-.8,1.75s0,.19,0,.14.29-.53,1-.63a1,1,0,0,0,.38-.12,2.79,2.79,0,0,1,.45-.63S39.26,93.11,39.26,93.06Z"/><path class="cls-4" d="M44.59,92.68c-.73-.35-1.07,0-1.11.38a.46.46,0,0,0,0,.17,3,3,0,0,1,.41.57,1.1,1.1,0,0,0,.41.14c.73.1.94.43,1,.63s0,0,.05-.14S45.48,93.1,44.59,92.68Z"/><path class="cls-4" d="M41.35,92.73a2.48,2.48,0,1,0,2.49,2.48A2.48,2.48,0,0,0,41.35,92.73Z"/><path class="cls-4" d="M73.36,97.73H68.2a2.89,2.89,0,0,0-2.58,2.88v6a.84.84,0,0,0,1.68,0v-5.17c0-.19,0-.45.41-.45s.3.26.3.42V116.9a1.21,1.21,0,1,0,2.42,0V108a.33.33,0,0,1,.35-.35h0a.32.32,0,0,1,.34.35v8.92a1.21,1.21,0,1,0,2.42,0V101.42c0-.16.06-.42.3-.42s.41.26.41.45v5.17a.85.85,0,0,0,1.69,0v-6A2.89,2.89,0,0,0,73.36,97.73Z"/><path class="cls-4" d="M72.43,94.11c-.21-.18-.38-.34-.73-.17s-.31.17-.59.31a6.6,6.6,0,0,1-1.55.46,5.11,5.11,0,0,1-1.22.08,2.46,2.46,0,0,0,4.89.06C72.81,94.46,72.89,94.49,72.43,94.11Z"/><path class="cls-4" d="M69.39,94.15a5.44,5.44,0,0,0,1.47-.43,6.88,6.88,0,0,1,.78-.31.54.54,0,0,1,.72.06l.2.17.66.52c.07,0,.13.11.17.09s.07-.43,0-.64a3.32,3.32,0,0,0-.79-1.72c-.05,0-.29-.24-.48-.21s-.59-.21-.71-.29a2.2,2.2,0,0,0-1.92.3,4.9,4.9,0,0,0-1.67,2.23c-.08.21.29.29.48.3A4.63,4.63,0,0,0,69.39,94.15Z"/></g></g></svg>