<svg xmlns="http://www.w3.org/2000/svg" viewBox="0 0 113.18 146.99"><defs><style>.cls-1{fill:#fff;stroke:#f2f2f2;stroke-miterlimit:10;}.cls-2{font-size:9.82px;font-family:29LTBukra-Bold, 29LT Bukra;font-weight:700;}.cls-2,.cls-3{fill:#161511;}.cls-4{fill:#c11627;}</style></defs><title>footer-icon4_1</title><g id="Layer_2" data-name="Layer 2"><g id="Layer_1-2" data-name="Layer 1"><rect class="cls-1" x="0.5" y="22.49" width="112.04" height="124"/><text class="cls-2" transform="translate(85.45 8.89)">ةياغلا</text><path class="cls-3" d="M.5,8.27,3.17,1.53H4.69V8h.62V9.22H4.69v1.49H3.22V9.22H.5ZM1.85,8h1.4V4.24h0Z"/><path class="cls-3" d="M7.81,5A1.12,1.12,0,1,1,6.69,6.15,1.13,1.13,0,0,1,7.81,5Z"/><path class="cls-3" d="M10,8.27,12.7,1.53h1.52V8h.62V9.22h-.62v1.49H12.76V9.22H10ZM11.39,8h1.39V4.24h0Z"/><path class="cls-4" d="M73.53,100.71l-1.62-3.08a.64.64,0,0,1,0-.07l-3.76-7.47a1.81,1.81,0,0,0-1.8-1H61l-.09-6.74c-.06-2-.53-3.23-2.12-3.65a8,8,0,0,0-2.32,0l-.19.06h0l-6.35,2-.11,0-.15.07-.08,0a1.56,1.56,0,0,0-.69.82L47,86.85a1.6,1.6,0,1,0,3,1.08l1.55-4.35L54,82.82h.1v7.1c0,1.61.53,3.23,2.11,3.65l.51.13a4.89,4.89,0,0,0,.83.07h0l7.93,0,2.1,4.09s0,.09,0,.13l.76,1.45.72,1.43a.72.72,0,0,0,.07.11l0,.05.8,1.52a2,2,0,0,0,3.53-1.85Z"/><path class="cls-4" d="M62,96.23c0,.13,0,.26,0,.39a7.65,7.65,0,1,1-13.66-4.7L46.4,90.41a10.08,10.08,0,1,0,18,6.21c0-.13,0-.26,0-.39Z"/><path class="cls-4" d="M54,73.75a3.75,3.75,0,1,0,7.39-.82H54.05A3.75,3.75,0,0,0,54,73.75Z"/><path class="cls-4" d="M61.86,70.85h-.42a3.92,3.92,0,0,0-2-2.43l-.56,1.71V67.54h-2v2.57h0l-.6-1.82A3.93,3.93,0,0,0,54,70.85h-.42v1.39h8.33Z"/><path class="cls-4" d="M43.53,84.89l-3-9.73s-1.07-2.82-3.43-2.82l-1.35,0a3.39,3.39,0,0,1,.22.39,3.27,3.27,0,0,1,.41,1.08h0c0,.1,0,.21,0,.31v.13a2.19,2.19,0,0,1-.12.7,1.45,1.45,0,0,1,.53,1.12,1.49,1.49,0,1,1-1.49-1.48,1.73,1.73,0,0,1,.32,0,.52.52,0,0,0,.12-.19h0v0a1.94,1.94,0,0,0,0-.59s0-.08,0-.13,0,0,0-.07a4.46,4.46,0,0,0-.22-.5,4.59,4.59,0,0,0-.42-.63l-1.67,2.26-1.91-2.22a5.2,5.2,0,0,0-.64,2.93,2.32,2.32,0,0,0,.64,1.1h0l.31,0H32l.24,0a.77.77,0,0,1,.15,0,2.71,2.71,0,0,1,1.32.86l0,0,.22.22-.86.72h0v0l-.41-.47.35-.31a1.71,1.71,0,0,0-1.08-.49,1,1,0,0,0-.24,0l-.11,0a.26.26,0,0,0-.11.07h0c-.35.3-.27,1,.14,1.6l.4-.33.39.48h0l-.89.73-.2-.19a2.92,2.92,0,0,1-.76-1.76,1.34,1.34,0,0,1,.32-.83,3,3,0,0,1-.68-1.79,5.16,5.16,0,0,1,.66-2.84l-.21,0H29.48c-2.36,0-3.43,2.82-3.43,2.82l-3,9.73s-.54,1.79,1,2.23,2-1.29,2-1.29l2.41-8.13s.13-.62.6-.49.3.81.3.81l-4.2,15.22H29v10.91a1.88,1.88,0,0,0,3.75,0V93.24h1.07v10.91a1.88,1.88,0,0,0,3.75,0V93.24h3.9L37.28,78s-.17-.67.3-.81.6.49.6.49l2.41,8.13s.46,1.74,2,1.29S43.53,84.89,43.53,84.89Z"/><path class="cls-4" d="M35.12,75.32a.78.78,0,0,0-.52.4.83.83,0,0,0-.08.22.06.06,0,0,0,0,0,.88.88,0,0,0,0,.28v0a.81.81,0,0,0,.78.61l.18,0a.8.8,0,0,0,.6-1,.79.79,0,0,0-.78-.63Z"/><path class="cls-4" d="M27.29,66.55c.13-.31.44-.81,1.54-1a1.74,1.74,0,0,0,.57-.18,4.51,4.51,0,0,1,.68-.94,1.41,1.41,0,0,0,0-.21c-.06-.5-.57-1.09-1.67-.57-1.35.64-1.2,2.64-1.2,2.64C27.24,66.5,27.27,66.62,27.29,66.55Z"/><path class="cls-4" d="M37.09,65.38a1.46,1.46,0,0,0,.62.21c1.1.15,1.41.65,1.54,1,0,.07,0,0,.08-.22,0,0,.15-2-1.2-2.64-1.1-.52-1.62.07-1.68.57a2,2,0,0,0,0,.26A4.82,4.82,0,0,1,37.09,65.38Z"/><circle class="cls-4" cx="33.25" cy="67.5" r="3.74" transform="translate(-37.99 43.28) rotate(-45)"/><path class="cls-4" d="M77,104.05a2,2,0,0,0,4,0v-1.51H77Z"/><path class="cls-4" d="M82.11,104.05a2,2,0,0,0,4,0v-1.51h-4Z"/><path class="cls-4" d="M77.94,76.37V72.32h-.31l-.26,0A4.78,4.78,0,0,0,73,77.1v10a1.39,1.39,0,0,0,2.78,0V78.51c0-.32.09-.76.68-.76h1.47Z"/><polygon class="cls-4" points="79.47 75.48 83.74 75.48 83.74 72.32 81.55 72.32 79.47 72.32 79.47 75.48"/><path class="cls-4" d="M84.76,78.65h-.38V76.37H78.83v2.28H77v23h4V89.09a.54.54,0,0,1,.57-.58h0a.53.53,0,0,1,.56.58v12.53h4v-23H84.76Z"/><path class="cls-4" d="M85.73,72.34l-.27,0h-.19v5.44h1.35c.58,0,.67.44.67.76v8.54a1.39,1.39,0,0,0,2.78,0v-10A4.78,4.78,0,0,0,85.73,72.34Z"/><path class="cls-4" d="M84.08,75.74a.42.42,0,0,0,.42.42.41.41,0,0,0,.41-.42.41.41,0,0,0-.41-.41A.41.41,0,0,0,84.08,75.74Z"/><path class="cls-4" d="M78.33,75.74a.42.42,0,0,0,.84,0,.42.42,0,0,0-.84,0Z"/><path class="cls-4" d="M83.92,66.62c-.32-.26-.58-.5-1.11-.25-.34.16-.47.27-.89.47a9.44,9.44,0,0,1-2.35.7,8.57,8.57,0,0,1-1.86.13,3.73,3.73,0,0,0,7.42.09A13.28,13.28,0,0,0,83.92,66.62Z"/><path class="cls-4" d="M77.72,66.88a7.67,7.67,0,0,0,1.71-.15A8.43,8.43,0,0,0,81.54,66c.61-.28,1.18-.48,1.18-.48a1.23,1.23,0,0,1,.77-.12,1.26,1.26,0,0,1,.33.22l.3.25s.14.13,1,.79c.1.08.2.17.26.14s.11-.65.08-1a5.58,5.58,0,0,0-1.13-2.56.84.84,0,0,0-.81-.37c-.49.09-.48-.26-.82-.46a3.4,3.4,0,0,0-3.27.53A8.46,8.46,0,0,0,77,66.35C76.88,66.65,77.24,66.88,77.72,66.88Z"/></g></g></svg>