<svg xmlns="http://www.w3.org/2000/svg" viewBox="0 0 113.15 146.99"><defs><style>.cls-1{fill:#fff;stroke:#f2f2f2;stroke-miterlimit:10;}.cls-2{font-size:9.82px;font-family:29LTBukra-Bold, 29LT Bukra;font-weight:700;}.cls-2,.cls-3{fill:#161511;}.cls-4{fill:#c11627;}</style></defs><title>footer-icon9_1</title><g id="Layer_2" data-name="Layer 2"><g id="Layer_1-2" data-name="Layer 1"><rect class="cls-1" x="0.5" y="22.49" width="112.04" height="124"/><text class="cls-2" transform="translate(85.41 8.89)">ةياغلا</text><path class="cls-3" d="M11.37,1.32h2.34c1.61,0,2.15.75,2.15,2.12v1A1.41,1.41,0,0,1,14.9,6a1.45,1.45,0,0,1,1.2,1.6V8.82c0,1.37-.6,2.12-2.22,2.12H11.37ZM13,5.38h.57a.68.68,0,0,0,.77-.78V3.42a.68.68,0,0,0-.78-.78H13Zm0,1.23v3h.71a.7.7,0,0,0,.8-.78V7.39c0-.51-.24-.78-.81-.78Z"/><path class="cls-3" d="M.5,8.36,3.29,1.3H4.88V8.09h.65V9.35H4.88v1.56H3.35V9.35H.5Zm1.42-.27H3.38v-4h0Z"/><polygon class="cls-3" points="7.59 4.11 7.59 8.13 9.64 6.12 7.59 4.11"/><path class="cls-4" d="M33.88,76.47l0,3.32h0c0,1.9,4.93,3.59,8.9,3.6s8.89-1.62,8.92-3.52h0V76.58L42.77,79.2Z"/><path class="cls-4" d="M58.19,73,42.84,68.28,27.55,73l1.55.47,2.5.76,0,6.72a.46.46,0,0,0-.24.36h0l-.21,4.14h1.26l-.17-4.13h0a.43.43,0,0,0-.24-.36l0-6.61.65.19v-.06l10.12,3.11Z"/><path class="cls-4" d="M85.38,86.1,81.71,74.17s-1.31-3.44-4.2-3.44H71a3.78,3.78,0,0,1-2.76-1l-8-12A1.8,1.8,0,0,0,57,59.34L64,71l3,5.48a4.68,4.68,0,0,1,.46,3.08L62.81,96.32H67.6v13.36a2.3,2.3,0,0,0,4.59,0V96.32h1.3v13.36a2.3,2.3,0,0,0,4.59,0V96.32h4.78L77.72,77.67s-.21-.82.36-1,.74.6.74.6l3,9.95s.56,2.13,2.4,1.59S85.38,86.1,85.38,86.1Z"/><path class="cls-4" d="M77.71,61.78a2.07,2.07,0,0,0,.69.22c1.32.18,1.7.78,1.86,1.15,0,.09.06-.06.09-.27,0,0,.18-2.4-1.45-3.18-1.32-.62-2,.09-2,.69a1.81,1.81,0,0,0,0,.25A5.36,5.36,0,0,1,77.71,61.78Z"/><path class="cls-4" d="M65.84,63.15c.15-.37.53-1,1.85-1.15a1.89,1.89,0,0,0,.76-.26,5.78,5.78,0,0,1,.74-1,2.32,2.32,0,0,0,0-.31c-.08-.6-.7-1.31-2-.69-1.63.78-1.45,3.18-1.45,3.18C65.77,63.09,65.81,63.24,65.84,63.15Z"/><path class="cls-4" d="M73.07,68.81a4.51,4.51,0,1,0-4.51-4.51A4.51,4.51,0,0,0,73.07,68.81Z"/><path class="cls-4" d="M41.58,109.22a6,6,0,0,1-1.41.62,14.54,14.54,0,0,1-4.35.54,18.07,18.07,0,0,1-2.17-.17,13.21,13.21,0,0,1-1.31-.25c-.23,0-.44-.11-.65-.17A5.45,5.45,0,0,1,30,109a1.94,1.94,0,0,1-.48-.51V109c0,.16,0,.85,0,.85a1.28,1.28,0,0,0,.5.93,7.19,7.19,0,0,0,3.4,1.26,16.06,16.06,0,0,0,2.48.18,15.29,15.29,0,0,0,3.58-.4l0,0a6.76,6.76,0,0,0,1.8-.7h0c.6-.36.94-.78.94-1.24,0,0,0-1.29,0-1.4A3.15,3.15,0,0,1,41.58,109.22Z"/><path class="cls-4" d="M35.31,104.89c3.52,0,6.38-1.06,6.38-2.37,0,0,.07-1.21.05-1.47a1.51,1.51,0,0,0-.11-.51,1.43,1.43,0,0,0,.72-1.07s.06-1.36,0-1.62c-.17-1.6-3.39-2.46-6.42-2.46s-6.43.92-6.43,2.6c0,.08.06,1.48.06,1.48a.9.9,0,0,0,.08.28,1.61,1.61,0,0,0-.81,1.3c0,.08.07,1.47.07,1.47a1.22,1.22,0,0,0,.5.92,7,7,0,0,0,3.39,1.26A16.25,16.25,0,0,0,35.31,104.89ZM36,96.06c3.41,0,5.78,1,5.78,1.93S39.37,99.92,36,99.92s-5.77-1-5.77-1.93S32.56,96.06,36,96.06Zm-6.43,5a1,1,0,0,1,.5-.73,2.79,2.79,0,0,0,.65.47,11.76,11.76,0,0,0,5.29,1,13.39,13.39,0,0,0,4.51-.7,4.11,4.11,0,0,0,.56-.25.9.9,0,0,1,0,.16c0,.91-2.37,1.93-5.77,1.93S29.53,102,29.53,101.05Z"/><path class="cls-4" d="M33.4,109.78a16.25,16.25,0,0,0,2.49.19,14.72,14.72,0,0,0,3.57-.41h0a7.44,7.44,0,0,0,1.81-.7l0,0a2.44,2.44,0,0,0,.39-.28,1.55,1.55,0,0,0,.49-.62,1,1,0,0,0,.06-.33s0-1.31,0-1.41c-.21.27-.76,1.11-3.28,1.62a18.71,18.71,0,0,1-3.25.28,11.89,11.89,0,0,1-5.1-1,4.1,4.1,0,0,1-.81-.55,3.6,3.6,0,0,1-.38-.48v.64l0,.92a1.25,1.25,0,0,0,.5.9A7,7,0,0,0,33.4,109.78Z"/><path class="cls-4" d="M42.19,103.34a1.27,1.27,0,0,0-.16-.14,1.73,1.73,0,0,0-.27-.15,1.42,1.42,0,0,1-.28.38,1.5,1.5,0,0,1,.25.14.63.63,0,0,1,.3.49.59.59,0,0,1-.23.42,1.8,1.8,0,0,1-.25.18l-.37.21s-.39.18-.56.24l-.56.18-.77.18-1,.16-1,.09-1.47.07a14.3,14.3,0,0,1-2-.15c-.49-.07-1-.16-1.44-.27a9.45,9.45,0,0,1-1.53-.48,2.66,2.66,0,0,1-.78-.54,3,3,0,0,1-.51-.67s0,.84,0,.84l0,.78a1.25,1.25,0,0,0,.5.92,7.15,7.15,0,0,0,3.39,1.26,16.29,16.29,0,0,0,2.49.18,15.27,15.27,0,0,0,3.57-.4h0a7,7,0,0,0,1.8-.71h0a2.55,2.55,0,0,0,.4-.28,1.43,1.43,0,0,0,.48-.62.78.78,0,0,0,.07-.33s0-1.35,0-1.38a.84.84,0,0,0,0-.33A.65.65,0,0,0,42.19,103.34Z"/><path class="cls-4" d="M50,100.28c3.52,0,6.38-1.06,6.38-2.37,0,0,.07-1.21,0-1.47a1.51,1.51,0,0,0-.11-.51A1.41,1.41,0,0,0,57,94.86s.06-1.36,0-1.62c-.17-1.6-3.38-2.46-6.41-2.46s-6.44.92-6.44,2.6c0,.08.06,1.48.06,1.48a.9.9,0,0,0,.08.28,1.63,1.63,0,0,0-.8,1.3c0,.08.06,1.47.06,1.47a1.25,1.25,0,0,0,.5.92,7,7,0,0,0,3.4,1.26A16,16,0,0,0,50,100.28Zm.66-8.83c3.4,0,5.77,1,5.77,1.93s-2.37,1.94-5.77,1.94-5.77-1-5.77-1.94S47.26,91.45,50.66,91.45Zm-6.44,5a1,1,0,0,1,.51-.73,2.72,2.72,0,0,0,.64.47,11.76,11.76,0,0,0,5.29,1,13.45,13.45,0,0,0,4.52-.7,4.6,4.6,0,0,0,.55-.25.47.47,0,0,1,0,.16c0,.91-2.37,1.93-5.77,1.93S44.22,97.35,44.22,96.44Z"/><path class="cls-4" d="M57,99a.67.67,0,0,0-.15-.25,1.17,1.17,0,0,0-.17-.14,1.27,1.27,0,0,0-.26-.15,1.35,1.35,0,0,1-.29.38,1.17,1.17,0,0,1,.25.14.6.6,0,0,1,.3.49.55.55,0,0,1-.23.42,2.5,2.5,0,0,1-.24.18l-.37.21s-.39.18-.56.24l-.57.18-.76.18L53,101l-1,.09-1.47.07a14.07,14.07,0,0,1-2-.15c-.49-.07-1-.16-1.44-.27a8.87,8.87,0,0,1-1.53-.48,2.6,2.6,0,0,1-.79-.54,2.66,2.66,0,0,1-.5-.67s0,.84,0,.84l0,.78a1.28,1.28,0,0,0,.5.92,7.19,7.19,0,0,0,3.4,1.26,16.06,16.06,0,0,0,2.48.18,15.27,15.27,0,0,0,3.57-.4h0a7,7,0,0,0,1.81-.71h0a3.13,3.13,0,0,0,.4-.28A1.61,1.61,0,0,0,57,101a1,1,0,0,0,.06-.33s.05-1.35.05-1.38A.68.68,0,0,0,57,99Z"/><path class="cls-4" d="M56.3,104.61a5.93,5.93,0,0,1-1.4.62,14.57,14.57,0,0,1-4.36.54,17.91,17.91,0,0,1-2.16-.17,12.68,12.68,0,0,1-1.31-.25c-.23,0-.45-.11-.65-.17a5.49,5.49,0,0,1-1.7-.82,1.91,1.91,0,0,1-.47-.51v.57c0,.16,0,.85,0,.85a1.28,1.28,0,0,0,.5.93,7.19,7.19,0,0,0,3.4,1.26,16.06,16.06,0,0,0,2.48.18,15.27,15.27,0,0,0,3.57-.4h0a7,7,0,0,0,1.81-.71h0c.59-.36.94-.78.94-1.24,0,0,.05-1.29,0-1.4A2.79,2.79,0,0,1,56.3,104.61Z"/><path class="cls-4" d="M44.74,103.91a7,7,0,0,0,3.39,1.26,16,16,0,0,0,2.48.19,14.75,14.75,0,0,0,3.58-.41h0a7.51,7.51,0,0,0,1.8-.7l0,0a3.13,3.13,0,0,0,.4-.28,1.52,1.52,0,0,0,.48-.62A1,1,0,0,0,57,103s0-1.31,0-1.41c-.22.27-.76,1.11-3.28,1.62a18.8,18.8,0,0,1-3.25.28,12,12,0,0,1-5.11-1,4,4,0,0,1-.8-.55,3.21,3.21,0,0,1-.39-.48s0,.62,0,.64l0,.92A1.23,1.23,0,0,0,44.74,103.91Z"/><path class="cls-4" d="M57.1,108.45a2.67,2.67,0,0,1-.77.73,5.07,5.07,0,0,1-1.4.62,14.17,14.17,0,0,1-4.36.55,20.42,20.42,0,0,1-2.16-.17c-.49-.07-.86-.15-1.31-.25-.23-.06-.45-.11-.65-.18a5.42,5.42,0,0,1-1.7-.81,2.08,2.08,0,0,1-.47-.51V109c0,.16,0,.85,0,.85a1.25,1.25,0,0,0,.5.92,7.09,7.09,0,0,0,3.4,1.26,16,16,0,0,0,2.48.19,14.6,14.6,0,0,0,3.57-.41h0a6.7,6.7,0,0,0,1.81-.7h0c.59-.36.94-.79.94-1.24C57.07,109.85,57.12,108.56,57.1,108.45Z"/><path class="cls-4" d="M48.16,109.75a16.29,16.29,0,0,0,2.49.18,15.27,15.27,0,0,0,3.57-.4h0a7,7,0,0,0,1.8-.71h0a2.55,2.55,0,0,0,.4-.28,1.52,1.52,0,0,0,.48-.62.78.78,0,0,0,.07-.33s0-1.31,0-1.41c-.21.27-.76,1.11-3.28,1.62a18.8,18.8,0,0,1-3.25.28,11.89,11.89,0,0,1-5.1-1,4.1,4.1,0,0,1-.81-.55,3.21,3.21,0,0,1-.39-.48s0,.61,0,.64l0,.92a1.25,1.25,0,0,0,.5.9A7.15,7.15,0,0,0,48.16,109.75Z"/></g></g></svg>