<svg xmlns="http://www.w3.org/2000/svg" viewBox="0 0 113.04 146.99"><defs><style>.cls-1{fill:#fff;stroke:#f2f2f2;stroke-miterlimit:10;}.cls-2{font-size:9.82px;font-family:29LTBukra-Bold, 29LT Bukra;font-weight:700;}.cls-2,.cls-3{fill:#161511;}.cls-4{fill:#c11627;}</style></defs><title>footer-icon3_1</title><g id="Layer_2" data-name="Layer 2"><g id="Layer_1-2" data-name="Layer 1"><rect class="cls-1" x="0.5" y="22.49" width="112.04" height="124"/><text class="cls-2" transform="translate(84.92 8.89)">ةياغلا</text><path class="cls-3" d="M.5,8.31,3.21,1.45H4.75v6.6h.64V9.27H4.75v1.52H3.27V9.27H.5Zm1.38-.26H3.3V4.2h0Z"/><path class="cls-3" d="M7.93,5A1.14,1.14,0,1,1,6.79,6.15,1.15,1.15,0,0,1,7.93,5Z"/><path class="cls-3" d="M14.78,3.48v.81A1.49,1.49,0,0,1,13.7,5.8a1.44,1.44,0,0,1,1.16,1.59V8.76a2,2,0,0,1-2.27,2.14c-1.6,0-2.16-.91-2.16-2.33V7.34h1.43V8.68c0,.55.19.91.73.91s.7-.35.7-.84V7.21c0-.5-.22-.76-.77-.76h-.66V5.25h.59c.51,0,.84-.26.84-.76v-1c0-.51-.18-.84-.67-.84s-.68.33-.68.91v.95H10.51V3.68c0-1.38.56-2.34,2.19-2.34A1.88,1.88,0,0,1,14.78,3.48Z"/><path class="cls-4" d="M84.08,67.9v4.8a.43.43,0,0,1-.43.43h-3.4a.43.43,0,0,1-.43-.43V67.9A5.18,5.18,0,0,0,78.16,69a5.35,5.35,0,0,0,0,7.58,5.21,5.21,0,0,0,1.71,1.15V94.14a2.28,2.28,0,1,0,4.55,0V77.57a5.35,5.35,0,0,0-.34-9.67Z"/><polyline class="cls-4" points="67.38 91.56 69.23 96.42 71.09 91.56 67.38 91.56"/><path class="cls-4" d="M71.06,90.87V69.28a1.66,1.66,0,0,0-1.85-1.38c-1,0-1.86.62-1.86,1.38v21.6Z"/><polygon class="cls-4" points="61.65 95.89 61.65 68.88 60.25 67.77 60.14 67.68 60.14 94.81 44.45 99.88 43.84 99.88 43.73 99.88 43.7 99.88 43.58 99.88 42.97 99.88 42.86 99.88 27.24 95.52 27.24 67.77 27.24 67.68 25.73 68.88 25.73 96.58 42.79 101.3 42.9 101.3 43.58 101.3 43.7 101.3 43.73 101.3 43.84 101.3 44.52 101.3 60.26 96.3 61.65 95.89"/><path class="cls-4" d="M58.42,93.93V67.74L44.3,73.36V98.18l.11,0ZM47.49,83.67c0-.1,0-.21,0-.31a.3.3,0,0,0,0-.15h0a1.3,1.3,0,0,1-.74-.43h0a.19.19,0,0,0-.11,0l-.27.16c-.13.08-.2.07-.27,0a2.41,2.41,0,0,1-.22-.57.27.27,0,0,1,.12-.29l.27-.2a.49.49,0,0,0,.12-.13h0a2.2,2.2,0,0,1,.13-.8h0a.12.12,0,0,0-.06-.08l-.22-.15c-.1-.07-.11-.15,0-.29a3.82,3.82,0,0,1,.4-.64c.08-.11.17-.14.26-.09l.25.12a.2.2,0,0,0,.13,0,2.43,2.43,0,0,1,.63-.43h0a.5.5,0,0,0,0-.13c0-.1,0-.21,0-.31a.26.26,0,0,1,.21-.26,2.46,2.46,0,0,1,.64-.11c.11,0,.16,0,.16.17s0,.22,0,.33a.21.21,0,0,0,0,.14,1.27,1.27,0,0,1,.7.42h0a.19.19,0,0,0,.11,0l.27-.17c.13-.07.2-.06.27,0a2.68,2.68,0,0,1,.22.58.25.25,0,0,1-.12.28l-.27.21a.28.28,0,0,0-.11.13v0a2.31,2.31,0,0,1-.13.82h0l.07.08.22.14c.1.07.11.15,0,.29a3.27,3.27,0,0,1-.4.64c-.08.11-.16.14-.26.1l-.24-.12a.17.17,0,0,0-.14,0h0a2.51,2.51,0,0,1-.61.41h0a.56.56,0,0,0,0,.12c0,.11,0,.21,0,.32a.25.25,0,0,1-.21.26,2.34,2.34,0,0,1-.63.12C47.54,83.86,47.49,83.8,47.49,83.67ZM52,76.31a.39.39,0,0,0,0-.14l-.15-.32a.33.33,0,0,1,.11-.4,5,5,0,0,1,.73-.58c.14-.09.24-.08.32,0s.12.2.19.3a.2.2,0,0,0,.13.11,2.18,2.18,0,0,1,.86-.18h0a1.47,1.47,0,0,0,.1-.13c.06-.13.13-.26.2-.38s.19-.24.35-.21a2.44,2.44,0,0,1,.7.25c.12.06.14.17.08.33s-.12.27-.17.4a.34.34,0,0,0,0,.21,1.84,1.84,0,0,1,.5,1h0a.25.25,0,0,0,.13,0l.36,0c.18,0,.24,0,.25.22a4.39,4.39,0,0,1-.06.88.35.35,0,0,1-.27.3l-.38.09a.42.42,0,0,0-.18.11v0a3.3,3.3,0,0,1-.55,1h0a.35.35,0,0,0,0,.14l.15.32a.32.32,0,0,1-.11.4,4.43,4.43,0,0,1-.73.58c-.13.09-.24.08-.31,0s-.13-.2-.19-.3a.26.26,0,0,0-.14-.1h0a2.4,2.4,0,0,1-.82.17h0a.85.85,0,0,0-.1.14c-.06.13-.13.25-.19.38s-.19.24-.35.21a2.21,2.21,0,0,1-.71-.24c-.12-.06-.14-.17-.08-.33s.11-.27.17-.41a.36.36,0,0,0,0-.2h0a1.87,1.87,0,0,1-.53-1h0a.19.19,0,0,0-.13,0l-.37.05c-.17,0-.23,0-.24-.23a3.78,3.78,0,0,1,.07-.88.32.32,0,0,1,.26-.29l.38-.1a.4.4,0,0,0,.18-.1h0a3.38,3.38,0,0,1,.55-1Zm2.71,12.17-.33-.18a.33.33,0,0,0-.42.07l-.39.31a.5.5,0,0,0-.2.41c0,.16,0,.31,0,.47a.37.37,0,0,1-.25.36l-.9.31c-.19.07-.28,0-.31-.18s0-.29,0-.44a.24.24,0,0,0-.24-.24l-.44,0a.39.39,0,0,0-.38.2l-.29.39c-.13.19-.24.23-.41.16a2.87,2.87,0,0,1-.69-.46c-.11-.1-.11-.23,0-.4l.26-.43a.4.4,0,0,0,0-.43l-.2-.37a.27.27,0,0,0-.35-.13l-.43.13c-.16,0-.25,0-.27-.19,0-.33,0-.65-.07-1a.36.36,0,0,1,.23-.36l.47-.19a.46.46,0,0,0,.26-.3c0-.18.1-.37.16-.55a.33.33,0,0,0-.1-.37L49,84.82a.28.28,0,0,1,0-.35,5.3,5.3,0,0,1,.65-1c.11-.15.23-.18.35-.11l.34.18c.13.09.27.06.42-.07l.38-.31a.51.51,0,0,0,.21-.41c0-.16,0-.31,0-.47a.37.37,0,0,1,.25-.36l.9-.31c.18-.07.28,0,.3.17l.06.46a.23.23,0,0,0,.22.23l.47,0a.4.4,0,0,0,.37-.19l.3-.42c.12-.16.23-.21.38-.14a2.55,2.55,0,0,1,.71.46c.11.1.11.23,0,.4L55,83.1a.41.41,0,0,0,0,.4l.21.39a.25.25,0,0,0,.33.12l.45-.13c.16,0,.25,0,.27.19l.06,1a.35.35,0,0,1-.23.37l-.45.18a.45.45,0,0,0-.27.31c-.06.18-.11.36-.16.54a.32.32,0,0,0,.09.36l.33.25a.27.27,0,0,1,0,.36,5.21,5.21,0,0,1-.65,1,.3.3,0,0,1-.27.12Z"/><path class="cls-4" d="M53.71,87.23a2.17,2.17,0,0,0,.21-2.85,1.82,1.82,0,0,0-2.62.48,2.17,2.17,0,0,0-.21,2.85A1.82,1.82,0,0,0,53.71,87.23Z"/><path class="cls-4" d="M52.8,78.89a1.23,1.23,0,0,0,1.78-.33,1.47,1.47,0,0,0,.14-1.94,1.24,1.24,0,0,0-1.78.33A1.47,1.47,0,0,0,52.8,78.89Z"/><path class="cls-4" d="M48.94,81.94a1.17,1.17,0,0,0,.11-1.54,1,1,0,0,0-1.41.27,1.17,1.17,0,0,0-.11,1.53A1,1,0,0,0,48.94,81.94Z"/><path class="cls-4" d="M42.75,98.13V73.3L28.84,67.79l-.12-.05v26.2l14,4.23ZM35.24,85.79l-.07,6.29-.93-.35,0-4.82h0l-.66.52h0v-1.1l.87-.82Zm2.77,1v1l-1.28,4.86-.92-.35,1.3-5-1.45-.54V86ZM34.67,74.47l.87-.82.74.28-.06,6.29-.93-.35.05-4.81h0l-.67.53h0Zm6.12,9.58.06.87L31,81.86,31,81Z"/></g></g></svg>