<svg xmlns="http://www.w3.org/2000/svg" viewBox="0 0 131.84 133.2"><defs><style>.cls-1{fill:#c60011;}.cls-2{fill:#fff;}</style></defs><title>footer-slide-img2</title><g id="Layer_2" data-name="Layer 2"><g id="Layer_1-2" data-name="Layer 1"><rect class="cls-1" width="131.84" height="133.2"/><polygon class="cls-2" points="58.78 71.42 35.13 57.63 35.13 102.25 58.78 109.45 58.78 71.42"/><polygon class="cls-2" points="61.38 71.51 61.38 109.47 85.18 102.24 85.18 57.63 61.38 71.51"/><path class="cls-2" d="M103.74,56.49a2.8,2.8,0,1,0-5.59,0v3h5.59Z"/><polygon class="cls-2" points="98.84 101.45 98.14 101.45 100.94 111.33 103.74 101.45 103.04 101.45 103.74 101.45 103.74 61.75 103.04 61.75 102.35 61.75 101.61 61.75 100.22 61.75 99.53 61.75 98.84 61.75 98.14 61.75 98.14 101.45 98.84 101.45"/><polygon class="cls-2" points="90.26 59.54 87.72 57.52 87.72 103.45 61.45 112.03 60.23 112.03 59.99 112.03 58.78 112.03 32.62 104.65 32.62 57.52 30.09 59.54 30.09 106.45 58.66 114.44 59.99 114.44 60.23 114.44 61.57 114.44 87.93 105.98 90.26 105.29 90.26 59.54"/><path class="cls-2" d="M118.16,29.83a6.69,6.69,0,0,1-1.28-.13,2.94,2.94,0,0,1-1.09-.44,2.45,2.45,0,0,1-.76-.84,2.58,2.58,0,0,1-.28-1.26,2.75,2.75,0,0,1,.93-2.26,3.47,3.47,0,0,1,2.27-.77h3.81a.31.31,0,0,0,.35-.35V21a.32.32,0,0,0-.35-.36h-2.89a4.44,4.44,0,0,1-1.16-.14,2.66,2.66,0,0,1-1-.46,2.16,2.16,0,0,1-.67-.84A2.73,2.73,0,0,1,115.8,18a2.5,2.5,0,0,1,.8-2.1,3.68,3.68,0,0,1,2.27-.6h2.92a.32.32,0,0,0,.36-.36V12.14a.32.32,0,0,0-.36-.36H118.3a7.32,7.32,0,0,0-4.79,1.5,5.34,5.34,0,0,0-1.83,4.41,6.26,6.26,0,0,0,.51,2.38,4.62,4.62,0,0,0,1.68,2.07,5.57,5.57,0,0,0-1.66,1.23,6,6,0,0,0-1,1.44,5.76,5.76,0,0,0-.47,1.46,7.87,7.87,0,0,0-.12,1.31,5.6,5.6,0,0,0,.56,2.62A5,5,0,0,0,112.7,32a6.39,6.39,0,0,0,2.21,1,10.17,10.17,0,0,0,2.62.32h5.67a.3.3,0,0,0,.35-.35V30.18a.3.3,0,0,0-.35-.35Z"/><path class="cls-2" d="M96.23,27.23a.13.13,0,0,0-.14-.14H94.81a.12.12,0,0,0-.14.14v9.29a.12.12,0,0,0,.14.14h1.28a.13.13,0,0,0,.14-.14Zm-5,9.43a1.59,1.59,0,0,0,1.24-.43,2,2,0,0,0,.37-1.35V27.23c0-.09,0-.14-.13-.14H91.42a.13.13,0,0,0-.14.14v7.28a.81.81,0,0,1-.16.58.66.66,0,0,1-.51.16h-.68a.51.51,0,0,0-.42.16.91.91,0,0,0-.13.56.74.74,0,0,0,.14.55.56.56,0,0,0,.41.14Zm-5.07,2.67a.13.13,0,0,0,.14-.14V38a.12.12,0,0,0-.14-.14H84.82a.12.12,0,0,0-.14.14v1.22a.13.13,0,0,0,.14.14ZM82.83,31.9l.73.76c.06.06.12.05.19,0a2.5,2.5,0,0,1,.67-.5,1.92,1.92,0,0,1,.84-.18,1.8,1.8,0,0,1,.78.16,1.46,1.46,0,0,1,.51.44,2,2,0,0,1,.28.66,4.25,4.25,0,0,1,.08.83,3.18,3.18,0,0,1,0,.57.75.75,0,0,1-.17.37.63.63,0,0,1-.34.19,2.43,2.43,0,0,1-.59.06H82.06a.57.57,0,0,0-.42.14.85.85,0,0,0-.13.56.79.79,0,0,0,.14.54.51.51,0,0,0,.41.17h4.31a3.15,3.15,0,0,0,1.13-.18,1.43,1.43,0,0,0,.74-.66,1.15,1.15,0,0,0,.67.68,3.12,3.12,0,0,0,1,.16.55.55,0,0,0,.43-.16.88.88,0,0,0,.13-.57.79.79,0,0,0-.14-.52.51.51,0,0,0-.42-.16H89.7a1.4,1.4,0,0,1-.82-.21.8.8,0,0,1-.34-.59,1,1,0,0,1,0-.17c0-.05,0-.12,0-.18a5.81,5.81,0,0,0-.16-1.35,3.12,3.12,0,0,0-.54-1.13,2.68,2.68,0,0,0-1-.77,3.78,3.78,0,0,0-1.56-.29,3,3,0,0,0-1.47.33,3.56,3.56,0,0,0-1,.81c0,.06,0,.13,0,.2M81.1,36.52a3,3,0,0,0,1,.14.55.55,0,0,0,.43-.16,1,1,0,0,0,.13-.57.79.79,0,0,0-.14-.52.51.51,0,0,0-.42-.16h-.23A1.43,1.43,0,0,1,81,35a.75.75,0,0,1-.31-.65V31a.12.12,0,0,0-.14-.14H79.33l-.16,0s-.07,0-.07.11v2.91c0,.26,0,.47,0,.64a1.24,1.24,0,0,1-.07.43.45.45,0,0,1-.2.23.77.77,0,0,1-.38.08h-.91a.51.51,0,0,0-.42.16A.94.94,0,0,0,77,36a.72.72,0,0,0,.14.53.56.56,0,0,0,.41.14h1.3a3,3,0,0,0,1.06-.16,1.06,1.06,0,0,0,.59-.57,1.07,1.07,0,0,0,.63.59m-1.62,2.84c.09,0,.13,0,.13-.14V38c0-.09,0-.14-.13-.14H78.31a.12.12,0,0,0-.14.14v1.23a.12.12,0,0,0,.14.14Zm1.81,0c.09,0,.13,0,.13-.14V38c0-.09,0-.14-.13-.14H80.12A.12.12,0,0,0,80,38v1.23a.12.12,0,0,0,.14.14ZM73.08,32a1.63,1.63,0,0,1,1.07.3,1.15,1.15,0,0,1,.35.94v.93a3.74,3.74,0,0,1,0,.52.68.68,0,0,1-.16.34.57.57,0,0,1-.34.19,2.3,2.3,0,0,1-.6.06H70.78a.13.13,0,0,0-.14.14v1.13a.13.13,0,0,0,.14.14H73.9a3.38,3.38,0,0,0,1.16-.17,1.3,1.3,0,0,0,.71-.64,1.2,1.2,0,0,0,.66.65,3,3,0,0,0,1,.16.55.55,0,0,0,.43-.16,1,1,0,0,0,.13-.57.79.79,0,0,0-.14-.52.51.51,0,0,0-.42-.16H77.2a1.36,1.36,0,0,1-.83-.22.73.73,0,0,1-.31-.64V33.08a2.46,2.46,0,0,0-.68-1.93,2.76,2.76,0,0,0-1.85-.59H71.41c-.09,0-.14.05-.14.15v1.12a.13.13,0,0,0,.14.14Z"/><path class="cls-2" d="M96.23,11.54a.12.12,0,0,0-.14-.14H94.81c-.1,0-.14,0-.14.14v9.28c0,.1,0,.15.14.15h1.28c.09,0,.14,0,.14-.15Zm-5,9.43a1.59,1.59,0,0,0,1.24-.43,2,2,0,0,0,.37-1.35V11.54c0-.1,0-.14-.13-.14H91.42a.12.12,0,0,0-.14.14v7.27a.83.83,0,0,1-.16.59.7.7,0,0,1-.5.16h-.69a.51.51,0,0,0-.42.16.91.91,0,0,0-.13.56.8.8,0,0,0,.13.55.61.61,0,0,0,.42.14ZM89,20.83a3,3,0,0,0,1,.14.54.54,0,0,0,.42-.16.89.89,0,0,0,.14-.57.82.82,0,0,0-.14-.53.55.55,0,0,0-.42-.15h-.24a1.42,1.42,0,0,1-.84-.23.73.73,0,0,1-.31-.64V15.27c0-.1,0-.15-.14-.15H87.2a.45.45,0,0,0-.16,0,.11.11,0,0,0-.07.12v2.91c0,.26,0,.47,0,.64a1.46,1.46,0,0,1-.07.42.48.48,0,0,1-.2.24.8.8,0,0,1-.38.08h-.91a.51.51,0,0,0-.42.16.94.94,0,0,0-.13.58.77.77,0,0,0,.13.53.61.61,0,0,0,.42.14h1.3a3.07,3.07,0,0,0,1.06-.16,1.08,1.08,0,0,0,.58-.57,1.14,1.14,0,0,0,.64.59m-1.53-7.11a.13.13,0,0,0,.14-.14V12.36c0-.1,0-.15-.14-.15H86.27c-.09,0-.14,0-.14.15v1.22a.13.13,0,0,0,.14.14Zm1.81,0a.13.13,0,0,0,.14-.14V12.36c0-.1,0-.15-.14-.15H88.08c-.09,0-.14,0-.14.15v1.22a.13.13,0,0,0,.14.14ZM81,17.65a3.79,3.79,0,0,0-1.09-1.06,2.7,2.7,0,0,1,.56-.2,3.87,3.87,0,0,1,1-.11,2.27,2.27,0,0,1,1,.22.85.85,0,0,1,.41.81,1.54,1.54,0,0,1-.11.55,2.82,2.82,0,0,1-.29.5,2.63,2.63,0,0,1-.4.42,4.09,4.09,0,0,1-.45.34A4.43,4.43,0,0,0,81,17.65M80.3,15a6.47,6.47,0,0,0-1,.25,2.4,2.4,0,0,0-.7.33c-.18.12-.26.23-.26.33v.89a.65.65,0,0,0,0,.2.37.37,0,0,0,.17.2l.55.4a3.74,3.74,0,0,1,.51.47,2.85,2.85,0,0,1,.42.59,2.9,2.9,0,0,1,.3.8,5.19,5.19,0,0,1-.65.11l-.5,0H77.54c-.24,0-.4.06-.46.18a1.33,1.33,0,0,0-.09.56.75.75,0,0,0,.14.52.54.54,0,0,0,.41.15h2a5.47,5.47,0,0,0,.92-.1,3.09,3.09,0,0,0,1-.34,2.49,2.49,0,0,0,.85.34,5,5,0,0,0,1,.1h2.07a.53.53,0,0,0,.41-.14.77.77,0,0,0,.14-.53,1.11,1.11,0,0,0-.11-.57.48.48,0,0,0-.44-.17h-2a1,1,0,0,1-.25,0,3.69,3.69,0,0,0,.52-.42,3.75,3.75,0,0,0,.47-.57,3.17,3.17,0,0,0,.34-.69,2.26,2.26,0,0,0,.14-.79,2,2,0,0,0-.74-1.58,3.64,3.64,0,0,0-2.34-.61,7.11,7.11,0,0,0-1.14.1m-7.08,4.59a.55.55,0,0,0-.43.15.85.85,0,0,0-.13.53.88.88,0,0,0,.14.59.57.57,0,0,0,.42.14h1.17a2.48,2.48,0,0,0,1-.17,1.13,1.13,0,0,0,.56-.56,1.11,1.11,0,0,0,.64.59,3,3,0,0,0,.94.14.55.55,0,0,0,.43-.16.9.9,0,0,0,.13-.57.82.82,0,0,0-.14-.53.54.54,0,0,0-.42-.15h-.23a1.43,1.43,0,0,1-.85-.23.76.76,0,0,1-.31-.64V11.54c0-.1,0-.14-.14-.14H74.71a.12.12,0,0,0-.14.14v7.27a.83.83,0,0,1-.16.59.74.74,0,0,1-.51.16Zm-1,1.27a3,3,0,0,0,.95.14.54.54,0,0,0,.42-.16.9.9,0,0,0,.13-.57.77.77,0,0,0-.14-.53.53.53,0,0,0-.41-.15H73a1.42,1.42,0,0,1-.84-.23.74.74,0,0,1-.32-.64V15.27c0-.1,0-.15-.13-.15H70.49a.41.41,0,0,0-.16,0,.12.12,0,0,0-.08.12v2.91c0,.26,0,.47,0,.64a1.16,1.16,0,0,1-.08.42.42.42,0,0,1-.19.24.8.8,0,0,1-.38.08h-.91a.48.48,0,0,0-.42.16.93.93,0,0,0-.14.58.77.77,0,0,0,.14.53.59.59,0,0,0,.42.14H70A3,3,0,0,0,71,20.81a1.06,1.06,0,0,0,.59-.57,1.14,1.14,0,0,0,.64.59m-1.63,2.84c.09,0,.14-.05.14-.15V22.3a.13.13,0,0,0-.14-.14H69.46a.13.13,0,0,0-.14.14v1.22c0,.1.05.15.14.15Zm1.81,0c.09,0,.14-.05.14-.15V22.3a.13.13,0,0,0-.14-.14H71.27a.13.13,0,0,0-.14.14v1.22c0,.1.05.15.14.15ZM65.82,18a2.11,2.11,0,0,1-.31,1.29,1.19,1.19,0,0,1-1,.4,1.22,1.22,0,0,1-1-.39,2.05,2.05,0,0,1-.32-1.3,2.11,2.11,0,0,1,.32-1.27,1.16,1.16,0,0,1,1-.43c.87,0,1.3.57,1.3,1.7m0,2.89a2.11,2.11,0,0,0,1-.65,1.42,1.42,0,0,0,.41.43,1.74,1.74,0,0,0,.48.22,3,3,0,0,0,.51.08l.49,0a.55.55,0,0,0,.43-.16.87.87,0,0,0,.13-.56.77.77,0,0,0-.14-.52.51.51,0,0,0-.42-.16h-.4a.8.8,0,0,1-.58-.25,1.2,1.2,0,0,1-.28-.83c0-.08,0-.15,0-.23V18a4.46,4.46,0,0,0-.21-1.46,2.4,2.4,0,0,0-.6-1,2.28,2.28,0,0,0-.91-.54,3.94,3.94,0,0,0-2.29,0,2.28,2.28,0,0,0-.91.54,2.51,2.51,0,0,0-.6,1A4.46,4.46,0,0,0,61.65,18v.32c0,.1,0,.19,0,.28a.65.65,0,0,1-.17.43,2.35,2.35,0,0,1-.33.3l-.41.27a1.76,1.76,0,0,0-.4.33,1.42,1.42,0,0,0-.31.49,2,2,0,0,0-.12.75v2.63h1.56V21.47a1.06,1.06,0,0,1,.1-.49,1,1,0,0,1,.25-.28,2.9,2.9,0,0,1,.29-.19.73.73,0,0,0,.27-.28,2.13,2.13,0,0,0,.9.64,3.55,3.55,0,0,0,1.22.19,3.83,3.83,0,0,0,1.26-.19"/></g></g></svg>