<svg xmlns="http://www.w3.org/2000/svg" viewBox="0 0 119.25 88.05"><defs><style>.cls-1{fill:#009ee2;}.cls-2{fill:#5591cd;}.cls-3{fill:#3da535;}.cls-4{fill:#d5a102;}.cls-5{fill:#c11627;}.cls-6{fill:#279338;}.cls-7{fill:#4a7734;}.cls-8{fill:#fab700;}.cls-9{fill:#e5321d;}.cls-10{fill:#f49c08;}.cls-11{fill:#0076b7;}.cls-12{fill:#921831;}.cls-13{fill:#5eb030;}.cls-14{fill:#eb6411;}.cls-15{fill:#e1061f;}.cls-16{fill:#dc0879;}.cls-17{fill:#203162;}.cls-18{fill:#d18c0e;}.cls-19{fill:#004c83;}</style></defs><title>footer-slide-img1</title><g id="Layer_2" data-name="Layer 2"><g id="Layer_1-2" data-name="Layer 1"><path class="cls-1" d="M117.66,70.29a.23.23,0,0,0-.26-.26h-3.16a.23.23,0,0,0-.26.26V87.6a.24.24,0,0,0,.26.27h3.16a.24.24,0,0,0,.26-.27Zm-9.89,17.58a3,3,0,0,0,2.36-.8,3.74,3.74,0,0,0,.7-2.51V70.29a.23.23,0,0,0-.26-.26h-3.2a.23.23,0,0,0-.26.26v13a1.53,1.53,0,0,1-.3,1.09,1.31,1.31,0,0,1-1,.3h-.92a.6.6,0,0,0-.48.24,1.9,1.9,0,0,0-.32.58,3.9,3.9,0,0,0-.18.73,4.85,4.85,0,0,0-.07.71.82.82,0,0,0,.27.73,1.28,1.28,0,0,0,.78.19ZM99,82.2a3.19,3.19,0,0,1-.52,2.09,2.52,2.52,0,0,1-3.24,0,3.12,3.12,0,0,1-.54-2.09c0-1.76.72-2.65,2.15-2.65S99,80.44,99,82.2m.48,5.47a4.14,4.14,0,0,0,2-1.32,2.69,2.69,0,0,0,.74.82,3.2,3.2,0,0,0,.9.46,3.89,3.89,0,0,0,1,.2c.33,0,.65,0,1,0,.7,0,1.05-.54,1.05-1.6a2.08,2.08,0,0,0-.27-1.21.9.9,0,0,0-.78-.37h-.76a1.61,1.61,0,0,1-1.13-.4,1.78,1.78,0,0,1-.5-1.28c0-.1,0-.21,0-.32s0-.24,0-.36a5.33,5.33,0,0,0-5.81-6,6.07,6.07,0,0,0-4.29,1.4,5.26,5.26,0,0,0-1.5,4v.52a2.84,2.84,0,0,1-.53,1.86,1.48,1.48,0,0,1-1.09.5h-.76a.91.91,0,0,0-.82.37,2.55,2.55,0,0,0-.23,1.26,2.1,2.1,0,0,0,.26,1.21,1,1,0,0,0,.79.34c.26,0,.56,0,.89,0a5.27,5.27,0,0,0,1-.19,3.7,3.7,0,0,0,1-.43,2.21,2.21,0,0,0,.76-.76,4.2,4.2,0,0,0,2,1.25,9.05,9.05,0,0,0,2.56.35,8.73,8.73,0,0,0,2.62-.38M83,87.87a4.35,4.35,0,0,0,1.63-.28,2,2,0,0,0,1.07-1,2.3,2.3,0,0,0,1.24,1.07,5.52,5.52,0,0,0,1.73.24c.7,0,1-.54,1-1.6a2.08,2.08,0,0,0-.27-1.21.91.91,0,0,0-.78-.37H88a2.28,2.28,0,0,1-1.42-.38,1.33,1.33,0,0,1-.57-1V77.09a.24.24,0,0,0-.26-.27h-3.2c-.18,0-.26.09-.26.27V82.8c0,.35,0,.65,0,.88a1.33,1.33,0,0,1-.16.58.79.79,0,0,1-.39.33,2.18,2.18,0,0,1-.76.1,2.67,2.67,0,0,1-1.22-.27,1.19,1.19,0,0,1-.54-1.17V79a.23.23,0,0,0-.26-.26h-3.2a.23.23,0,0,0-.26.26v3.86c0,.35,0,.64,0,.88a1.48,1.48,0,0,1-.17.56.83.83,0,0,1-.44.32,2.52,2.52,0,0,1-.8.1,2.26,2.26,0,0,1-1.15-.29,1.15,1.15,0,0,1-.52-1.12V79a.24.24,0,0,0-.27-.26h-3.2a.23.23,0,0,0-.26.26v3.94a3.19,3.19,0,0,1-.21,1.4c-.14.26-.46.38-1,.38H65.72a.88.88,0,0,0-.8.4,2.62,2.62,0,0,0-.25,1.31,1.78,1.78,0,0,0,.27,1.16.94.94,0,0,0,.78.31h3.15a6,6,0,0,0,2.07-.28A1.91,1.91,0,0,0,72,86.48a2.62,2.62,0,0,0,1,1,3.37,3.37,0,0,0,1.68.38h1a5.89,5.89,0,0,0,2-.29,2,2,0,0,0,1.11-1.1,2.57,2.57,0,0,0,1,1,3.3,3.3,0,0,0,1.67.38ZM59.43,82.54a4.63,4.63,0,0,1-.21,1.67q-.21.48-1,.48H56.54a.91.91,0,0,0-.8.37,2.41,2.41,0,0,0-.25,1.26,2,2,0,0,0,.27,1.22.92.92,0,0,0,.78.33h2.7a8.4,8.4,0,0,0,2.26-.24,2,2,0,0,0,1.24-1.07A2.29,2.29,0,0,0,64,87.63a5.52,5.52,0,0,0,1.73.24c.69,0,1-.54,1-1.6a2.08,2.08,0,0,0-.27-1.21.9.9,0,0,0-.78-.37h-.61a2.34,2.34,0,0,1-1.43-.38,1.38,1.38,0,0,1-.56-1V77.09a.24.24,0,0,0-.26-.27H59.69c-.18,0-.26.09-.26.27Zm5.17-8.36a.24.24,0,0,0,.26-.27V71.34a.23.23,0,0,0-.26-.26H62a.24.24,0,0,0-.27.26v2.57a.24.24,0,0,0,.27.27Zm-4.07,0a.24.24,0,0,0,.26-.27V71.34a.23.23,0,0,0-.26-.26H57.91a.24.24,0,0,0-.27.26v2.57a.24.24,0,0,0,.27.27ZM43.59,84.69a.24.24,0,0,0-.27.27V87.6a.24.24,0,0,0,.27.27h6.34A5.59,5.59,0,0,0,52,87.54a2.54,2.54,0,0,0,1.3-1.17,2.45,2.45,0,0,0,1.3,1.21,5.56,5.56,0,0,0,1.87.29c.7,0,1-.54,1-1.6a2.09,2.09,0,0,0-.26-1.21.92.92,0,0,0-.79-.37h-.57a2.32,2.32,0,0,1-1.43-.38,1.39,1.39,0,0,1-.57-1V81.1a4.46,4.46,0,0,0-1.32-3.66,5.87,5.87,0,0,0-3.76-1.06H44.69a.24.24,0,0,0-.27.26v2.65c0,.18.09.26.27.26h3a2.88,2.88,0,0,1,1.77.46,1.75,1.75,0,0,1,.59,1.48v1.42a5,5,0,0,1-.06.84,1,1,0,0,1-.26.55,1.14,1.14,0,0,1-.59.3,5,5,0,0,1-1,.09Zm-3-14.4a.23.23,0,0,0-.26-.26H37.18a.23.23,0,0,0-.26.26V87.6a.24.24,0,0,0,.26.27h3.16a.24.24,0,0,0,.26-.27ZM30.47,82.2A3.19,3.19,0,0,1,30,84.29a2.09,2.09,0,0,1-1.63.59,2.14,2.14,0,0,1-1.63-.59,3.12,3.12,0,0,1-.55-2.09c0-1.76.73-2.65,2.18-2.65s2.15.89,2.15,2.65m.16,5.56A4.37,4.37,0,0,0,33.7,85a7.13,7.13,0,0,0,.44-2.7,7.46,7.46,0,0,0-.47-2.87,4.58,4.58,0,0,0-3.13-2.79,8.37,8.37,0,0,0-2.21-.29,9.14,9.14,0,0,0-2.17.26,4.85,4.85,0,0,0-1.84.89A4.6,4.6,0,0,0,23,79.21a6.26,6.26,0,0,0-.48,2.6v.52A2.77,2.77,0,0,1,22,84.19a1.47,1.47,0,0,1-1.08.5h-.76a.91.91,0,0,0-.8.36,2.38,2.38,0,0,0-.25,1.27,2,2,0,0,0,.27,1.21.93.93,0,0,0,.78.34l.84,0a4.21,4.21,0,0,0,1-.17,5,5,0,0,0,1-.42,2.57,2.57,0,0,0,.85-.8,4.2,4.2,0,0,0,2,1.25,9.05,9.05,0,0,0,2.56.35,8.78,8.78,0,0,0,2.3-.29m-20.15-4.5a1.72,1.72,0,0,1-.6-1.5,2.12,2.12,0,0,1,.6-1.74,2.53,2.53,0,0,1,1.59-.47h2.09v1.81a2.35,2.35,0,0,1-.59,1.77A2.17,2.17,0,0,1,12,83.7a2.5,2.5,0,0,1-1.51-.44m1-6.88a7.56,7.56,0,0,0-1.95.25,4.32,4.32,0,0,0-1.71.86,4.45,4.45,0,0,0-1.2,1.66,6.39,6.39,0,0,0-.46,2.61,6,6,0,0,0,.41,2.36,4.14,4.14,0,0,0,1.11,1.57,4.58,4.58,0,0,0,1.64.89,6.62,6.62,0,0,0,2,.29,5.25,5.25,0,0,0,1.6-.24,3.81,3.81,0,0,0,1.34-.7,2.15,2.15,0,0,0,1,1.53,4.11,4.11,0,0,0,2,.41H20a.93.93,0,0,0,.8-.33A2.16,2.16,0,0,0,21,86.29c0-1.06-.35-1.6-1.05-1.6h-.81a1.31,1.31,0,0,1-1-.3,1.53,1.53,0,0,1-.3-1.09v-8a.23.23,0,0,0-.26-.26h-3.2a.23.23,0,0,0-.26.26v1.13Zm4-3.25c.18,0,.26-.09.26-.27V70.29a.23.23,0,0,0-.26-.26H12.87a.23.23,0,0,0-.26.26v2.57a.24.24,0,0,0,.26.27Zm-4.07,0a.24.24,0,0,0,.27-.27V70.29a.24.24,0,0,0-.27-.26H8.83a.23.23,0,0,0-.26.26v2.57a.24.24,0,0,0,.26.27Z"/><rect class="cls-1" x="114.11" y="40.7" width="3.67" height="17.84" rx="0.26" ry="0.26"/><path class="cls-1" d="M107.9,58.54a3,3,0,0,0,2.36-.8,3.74,3.74,0,0,0,.7-2.51V41a.23.23,0,0,0-.26-.26h-3.2a.23.23,0,0,0-.26.26V54a1.53,1.53,0,0,1-.3,1.09,1.31,1.31,0,0,1-1,.3h-.92a.6.6,0,0,0-.48.24,1.79,1.79,0,0,0-.32.58,3.9,3.9,0,0,0-.18.73,3.78,3.78,0,0,0-.07.71.86.86,0,0,0,.26.73,1.41,1.41,0,0,0,.79.19Z"/><path class="cls-1" d="M98.77,53.21a4.67,4.67,0,0,1-.21,1.67q-.21.48-1,.48H95.88a.89.89,0,0,0-.8.37A2.29,2.29,0,0,0,94.83,57a2.1,2.1,0,0,0,.26,1.22,1,1,0,0,0,.79.33h2.7a8.4,8.4,0,0,0,2.26-.24,2,2,0,0,0,1.23-1.08,2.27,2.27,0,0,0,1.23,1.08,5.63,5.63,0,0,0,1.74.24c.69,0,1-.54,1-1.6a2.16,2.16,0,0,0-.27-1.21.88.88,0,0,0-.78-.37h-.61A2.38,2.38,0,0,1,103,55a1.35,1.35,0,0,1-.56-1v-6.2a.23.23,0,0,0-.26-.26H99a.23.23,0,0,0-.26.26Z"/><rect class="cls-1" x="101.02" y="41.75" width="3.17" height="3.1" rx="0.26" ry="0.26"/><rect class="cls-1" x="96.98" y="41.75" width="3.15" height="3.1" rx="0.26" ry="0.26"/><path class="cls-1" d="M94.18,58.3a5.56,5.56,0,0,0,1.73.24c.7,0,1-.54,1-1.6a2.08,2.08,0,0,0-.27-1.21.88.88,0,0,0-.78-.37H95.3A2.4,2.4,0,0,1,93.87,55a1.38,1.38,0,0,1-.56-1V47.75a.23.23,0,0,0-.26-.26H90.64l-.67,0c-.26,0-.38.09-.38.23v5.51a4.08,4.08,0,0,1-.23,1.64c-.15.31-.49.46-1,.46h-.87a.71.71,0,0,0-.52.22,1.6,1.6,0,0,0-.34.57,3.4,3.4,0,0,0-.19.73,6.73,6.73,0,0,0,0,.74c0,.38.09.63.26.74a1.42,1.42,0,0,0,.79.18h2.1a7.81,7.81,0,0,0,2.2-.25,2.08,2.08,0,0,0,1.23-1.07,2.32,2.32,0,0,0,1.24,1.08"/><rect class="cls-1" x="89.56" y="41.75" width="3.78" height="3.1" rx="0.26" ry="0.26"/><path class="cls-1" d="M81.35,52.87A3.14,3.14,0,0,1,80.82,55a2.47,2.47,0,0,1-3.23,0,3.07,3.07,0,0,1-.54-2.08c0-1.77.71-2.65,2.15-2.65s2.15.88,2.15,2.65m.47,5.47a4.19,4.19,0,0,0,2-1.33,2.71,2.71,0,0,0,.73.83,3.83,3.83,0,0,0,.9.46,4.65,4.65,0,0,0,1,.2c.33,0,.66,0,1,0,.7,0,1.05-.54,1.05-1.6a2.17,2.17,0,0,0-.26-1.21.9.9,0,0,0-.79-.37h-.76A1.59,1.59,0,0,1,85.49,55,1.79,1.79,0,0,1,85,53.68c0-.1,0-.21,0-.32s0-.24,0-.36a5.33,5.33,0,0,0-5.81-6,6,6,0,0,0-4.28,1.4,5.26,5.26,0,0,0-1.5,4V53a2.89,2.89,0,0,1-.54,1.86,1.46,1.46,0,0,1-1.09.5H71a.86.86,0,0,0-.81.37A2.4,2.4,0,0,0,70,57a2.07,2.07,0,0,0,.26,1.2.94.94,0,0,0,.79.35c.26,0,.56,0,.89,0a5.27,5.27,0,0,0,1-.19,3.91,3.91,0,0,0,1-.43,2.4,2.4,0,0,0,.76-.76,4.19,4.19,0,0,0,2,1.25,9.07,9.07,0,0,0,2.57.35,8.71,8.71,0,0,0,2.61-.38"/><path class="cls-1" d="M64.74,53.21a4.67,4.67,0,0,1-.21,1.67c-.14.32-.48.48-1,.48H61.86c-.37,0-5.19.12-5.35.37A2.29,2.29,0,0,0,56.26,57a2,2,0,0,0,.26,1.22,41.38,41.38,0,0,0,5.34.33h2.7a8.4,8.4,0,0,0,2.26-.24,2,2,0,0,0,1.23-1.08,2.27,2.27,0,0,0,1.23,1.08,5.6,5.6,0,0,0,1.73.24c.7,0,1-.54,1-1.6a2.09,2.09,0,0,0-.26-1.21.89.89,0,0,0-.79-.37h-.6A2.38,2.38,0,0,1,69,55a1.35,1.35,0,0,1-.56-1v-6.2a.23.23,0,0,0-.26-.26H65a.23.23,0,0,0-.26.26Z"/><rect class="cls-1" x="66.87" y="60.82" width="3.17" height="3.09" rx="0.26" ry="0.26"/><rect class="cls-1" x="62.83" y="60.82" width="3.15" height="3.09" rx="0.26" ry="0.26"/><path class="cls-1" d="M47.54,53.93a1.74,1.74,0,0,1-.6-1.51,2.1,2.1,0,0,1,.6-1.73,2.53,2.53,0,0,1,1.59-.47h2.09V52a2.38,2.38,0,0,1-.59,1.77,2.16,2.16,0,0,1-1.58.57,2.52,2.52,0,0,1-1.51-.44m1.06-6.88a7.58,7.58,0,0,0-2,.25,4.28,4.28,0,0,0-1.7.86,4.43,4.43,0,0,0-1.21,1.65,6.42,6.42,0,0,0-.46,2.61,6.08,6.08,0,0,0,.41,2.36,4.1,4.1,0,0,0,1.11,1.58,4.66,4.66,0,0,0,1.64.89,6.64,6.64,0,0,0,2,.29A5.3,5.3,0,0,0,50,57.3a3.87,3.87,0,0,0,1.33-.71,2.15,2.15,0,0,0,1,1.54,4.13,4.13,0,0,0,2,.41h7.28a.94.94,0,0,0,.8-.33A2.18,2.18,0,0,0,62.62,57c0-1.07-.35-1.6-1-1.6H56.2a1.3,1.3,0,0,1-1-.3A1.52,1.52,0,0,1,54.94,54v-8c0-.18-.08-.26-.26-.26h-3.2a.23.23,0,0,0-.26.26v1.13Z"/><rect class="cls-1" x="49.67" y="40.7" width="3.17" height="3.1" rx="0.26" ry="0.26"/><rect class="cls-1" x="45.63" y="40.7" width="3.15" height="3.1" rx="0.26" ry="0.26"/><path class="cls-2" d="M111.34,5.28c-.13,0-.2.08-.2.24V7.07c0,.17.07.25.2.25H119c.14,0,.21-.08.21-.25V5.52q0-.24-.21-.24h-3.45a2.56,2.56,0,0,1-.71-.69,1.77,1.77,0,0,1-.33-1.07,1.46,1.46,0,0,1,.42-1.1A1.42,1.42,0,0,1,116,2a2.21,2.21,0,0,1,1.62.79c.11.12.23.11.34,0l1-1.07a.23.23,0,0,0,0-.31,3.44,3.44,0,0,0-1.26-1A4.23,4.23,0,0,0,115.9,0a4.56,4.56,0,0,0-1.71.29,3.16,3.16,0,0,0-1.16.8,3.44,3.44,0,0,0-.67,1.12,3.61,3.61,0,0,0-.22,1.24,3.46,3.46,0,0,0,.13,1,4.14,4.14,0,0,0,.35.83Z"/><path class="cls-2" d="M113.21,9h4.14a.34.34,0,0,1,.34.34V32.16a.35.35,0,0,1-.35.35H113.2a.34.34,0,0,1-.34-.34V9.39A.35.35,0,0,1,113.21,9Z"/><path class="cls-2" d="M98.11,24.24a2.91,2.91,0,0,1,.5,1.81,2.86,2.86,0,0,1-.45,1.78,1.77,1.77,0,0,1-1.33.64h-.38a1.86,1.86,0,0,1-1.33-.64,2.72,2.72,0,0,1-.48-1.78,2.79,2.79,0,0,1,.53-1.81,1.84,1.84,0,0,1,1.49-.64,1.74,1.74,0,0,1,1.45.64m4.13,8.27a10.41,10.41,0,0,0,3.29-.45,4.85,4.85,0,0,0,2.14-1.38,5.48,5.48,0,0,0,1.15-2.37,14.39,14.39,0,0,0,.35-3.36,11.79,11.79,0,0,0-.45-3.24,7.29,7.29,0,0,0-1.57-2.87,8,8,0,0,0-3-2.05A12.81,12.81,0,0,0,99.3,16a17.5,17.5,0,0,0-3.88.38,23.16,23.16,0,0,0-3.33,1c-.16.07-.25.15-.26.26a.82.82,0,0,0,0,.36l.72,2.59a.24.24,0,0,0,.28.17,1.46,1.46,0,0,0,.35-.1,15.45,15.45,0,0,1,2.53-.57A16.68,16.68,0,0,1,98.23,20a9.07,9.07,0,0,1,2.4.29,5.22,5.22,0,0,1,1.86.91,4.27,4.27,0,0,1,1.21,1.59,5.64,5.64,0,0,1,.43,2.31,4.75,4.75,0,0,1-.52,2.33,2.12,2.12,0,0,1-2.07.95,6.75,6.75,0,0,0,.43-1.08,4.36,4.36,0,0,0,.19-1.33,5,5,0,0,0-1.48-4,6.1,6.1,0,0,0-4.07-1.26,7,7,0,0,0-2,.29,4.87,4.87,0,0,0-1.71.92,4.48,4.48,0,0,0-1.21,1.62,5.71,5.71,0,0,0-.47,2.42,5.52,5.52,0,0,0,.49,2.41H88.33a1.16,1.16,0,0,0-1,.5A3.1,3.1,0,0,0,87,30.47,2.79,2.79,0,0,0,87.29,32a1.23,1.23,0,0,0,1,.47Z"/><path class="cls-2" d="M71.38,28.33a.31.31,0,0,0-.35.35v3.48a.31.31,0,0,0,.35.35h8.35a7.55,7.55,0,0,0,2.71-.43,3.32,3.32,0,0,0,1.71-1.54,3.19,3.19,0,0,0,1.71,1.59,7.31,7.31,0,0,0,2.46.38c.93,0,1.39-.7,1.39-2.11a2.78,2.78,0,0,0-.35-1.58,1.18,1.18,0,0,0-1-.49h-.75a3.08,3.08,0,0,1-1.89-.5,1.83,1.83,0,0,1-.74-1.36V23.6c0-2.27-.58-3.88-1.74-4.81a7.74,7.74,0,0,0-5-1.4H72.83a.31.31,0,0,0-.35.35v3.48a.31.31,0,0,0,.35.35h4a3.79,3.79,0,0,1,2.33.6,2.33,2.33,0,0,1,.77,1.95V26a5.82,5.82,0,0,1-.08,1.1,1.36,1.36,0,0,1-.35.72,1.45,1.45,0,0,1-.77.4,6.41,6.41,0,0,1-1.38.12Z"/><path class="cls-2" d="M63,9H67.1a.34.34,0,0,1,.34.34V32.17a.34.34,0,0,1-.34.34H63a.35.35,0,0,1-.35-.35V9.39A.35.35,0,0,1,63,9Z"/><path class="cls-2" d="M49.22,10.42h4.28a.34.34,0,0,1,.34.34v3.38a.35.35,0,0,1-.35.35H49.22a.35.35,0,0,1-.35-.35V10.77A.35.35,0,0,1,49.22,10.42Z"/><path class="cls-2" d="M54.09,25.05a3.92,3.92,0,0,1-.7,2.68,2.79,2.79,0,0,1-2.11.74,2.72,2.72,0,0,1-2.11-.76,4.08,4.08,0,0,1-.7-2.76c0-2.25.93-3.38,2.81-3.38s2.81,1.16,2.81,3.48m-2.8,7.46a12.57,12.57,0,0,0,3-.35A5.91,5.91,0,0,0,56.73,31a5.8,5.8,0,0,0,1.61-2.24,9.11,9.11,0,0,0,.58-3.5,9.83,9.83,0,0,0-.62-3.78,6.2,6.2,0,0,0-1.68-2.4,6.28,6.28,0,0,0-2.44-1.28,11,11,0,0,0-2.9-.38,10.86,10.86,0,0,0-2.84.38A6.46,6.46,0,0,0,46,19.05a6.16,6.16,0,0,0-1.71,2.4,9.61,9.61,0,0,0-.65,3.78,7.16,7.16,0,0,0,.56,3.1H35a1.76,1.76,0,0,1-1.26-.39,2.07,2.07,0,0,1-.39-1.44v-6a.31.31,0,0,0-.35-.34H28.76a.3.3,0,0,0-.34.34v7.63a4.91,4.91,0,0,0,.93,3.3,4,4,0,0,0,3.11,1Z"/><path class="cls-3" d="M6.19,19.79A6.91,6.91,0,0,1,7.27,18.4L3.73,14.52a12.16,12.16,0,0,0-2.25,2.93Z"/><path class="cls-4" d="M14.86,17.05a6.84,6.84,0,0,1,1.48.93l3.55-3.87a11.88,11.88,0,0,0-3.14-2Z"/><path class="cls-5" d="M23,18.22l-4.7,2.34a7.18,7.18,0,0,1,.47,1.66L24,21.73a12.13,12.13,0,0,0-1-3.51"/><path class="cls-6" d="M18,19.88l4.7-2.34a12.11,12.11,0,0,0-2.2-2.92L16.9,18.49A6.77,6.77,0,0,1,18,19.88"/><path class="cls-7" d="M5.25,23.22c0-.1,0-.21,0-.31L0,22.44q0,.39,0,.78a11.74,11.74,0,0,0,.36,2.92l5.05-1.46a7,7,0,0,1-.16-1.46"/><path class="cls-8" d="M17.29,27.53A7,7,0,0,1,16,28.73l2.77,4.47a12.38,12.38,0,0,0,2.7-2.51Z"/><path class="cls-9" d="M18.83,23.22a6.32,6.32,0,0,1-.16,1.45l5.06,1.45a12.06,12.06,0,0,0,.35-2.9c0-.24,0-.49,0-.73L18.82,23a1.93,1.93,0,0,1,0,.24"/><path class="cls-10" d="M6.88,27.63,2.69,30.8a12.15,12.15,0,0,0,2.73,2.48l2.77-4.47a6.7,6.7,0,0,1-1.31-1.18"/><path class="cls-11" d="M5.34,22.15a6.4,6.4,0,0,1,.5-1.68l-4.7-2.35a12,12,0,0,0-1,3.56Z"/><path class="cls-12" d="M18.13,33.6l-2.76-4.46a6.87,6.87,0,0,1-1.61.65l1,5.17a11.81,11.81,0,0,0,3.39-1.36"/><path class="cls-13" d="M18.47,25.4a6.8,6.8,0,0,1-.73,1.51l4.19,3.17a12.15,12.15,0,0,0,1.59-3.23Z"/><path class="cls-14" d="M13,29.94A6.37,6.37,0,0,1,12,30a6.85,6.85,0,0,1-.79,0l-1,5.17a12.69,12.69,0,0,0,1.76.12,12.52,12.52,0,0,0,2-.15Z"/><path class="cls-15" d="M12.47,16.45a7,7,0,0,1,1.68.32L16,11.87a12,12,0,0,0-3.57-.68Z"/><path class="cls-16" d="M10.5,29.84a6.85,6.85,0,0,1-1.67-.63L6.07,33.68A11.87,11.87,0,0,0,9.53,35Z"/><path class="cls-17" d="M10,16.75a7,7,0,0,1,1.72-.31V11.19a11.72,11.72,0,0,0-3.62.66Z"/><path class="cls-18" d="M6.42,27a6.31,6.31,0,0,1-.8-1.6L.56,26.87A12.24,12.24,0,0,0,2.23,30.2Z"/><path class="cls-19" d="M7.83,17.9A7,7,0,0,1,9.29,17l-1.9-4.9A12,12,0,0,0,4.29,14Z"/></g></g></svg>