<svg xmlns="http://www.w3.org/2000/svg" viewBox="0 0 113.04 146.99"><defs><style>.cls-1{fill:#fff;stroke:#f2f2f2;stroke-miterlimit:10;}.cls-2{font-size:9.82px;font-family:29LTBukra-Bold, 29LT Bukra;font-weight:700;}.cls-2,.cls-3{fill:#161511;}.cls-4{fill:#c11627;}</style></defs><title>footer-icon8_1</title><g id="Layer_2" data-name="Layer 2"><g id="Layer_1-2" data-name="Layer 1"><rect class="cls-1" x="0.5" y="22.49" width="112.04" height="124"/><text class="cls-2" transform="translate(84.53 8.89)">ةياغلا</text><path class="cls-3" d="M10.71,10.92l1.81-9.58h1.84l1.82,9.58H14.53l-.3-1.76H12.52l-.28,1.76Zm2-3H14L13.38,4h0Z"/><path class="cls-3" d="M.5,8.35l2.78-7H4.86V8.08h.65V9.34H4.86v1.55H3.34V9.34H.5Zm1.41-.27H3.37V4.14h0Z"/><polygon class="cls-3" points="7.56 4.11 7.56 8.12 9.6 6.12 7.56 4.11"/><path class="cls-4" d="M57.15,55.2,64.71,62h23.4L82.37,55.2H65.5a2.35,2.35,0,0,1-1.42-.47l-6.92-5.14L42.6,62l7,0Z"/><path class="cls-4" d="M43.28,87.57V63.19H42.4v3H29.5v-3h-.92v3H25.81v-3h-.88V87.67h.88V85.61h2.77v2h0v.15h.88V85.61H42.4v2Zm-14.7-2.84H25.81V82.52h2.77Zm0-3.09H25.81v-2.2h2.77Zm0-3.08H25.81V76.35h2.77Zm0-3.09H25.81V73.26h2.77Zm0-3.09H25.81v-2.2h2.77Zm0-3.08H25.81V67.09h2.77Zm13.82,9L37,75.88l5.4-2.48Zm-11.24.21L36,76.36l4.79,2.2Zm9.5.88L36,81.6l-4.71-2.16Zm-.77-6.21h.77L36,75.39l-4.67-2.14Zm-8.78-.88,4.68-2.14,4.67,2.14H31.11Zm11.29-.08-5.56-2.55,5.56-2.55Zm-1.9-5.19-4.71,2.16-4.71-2.16Zm-11,.24,5.23,2.4-5.24,2.41Zm0,6.07,5.42,2.49-5.42,2.48Zm0,6.2,5.43,2.49-5.44,2.49Zm1.77,5.14L36,82.57l4.71,2.16ZM37,82.08l5.4-2.47v5Z"/><rect class="cls-4" x="57.52" y="88.41" width="8.83" height="1.07"/><path class="cls-4" d="M63.83,63.25l-6.69-6.11L50,63.25H44.44V87.74h1.25l7.49-1.68V77.23h3.67v8.18h.44V77.23h3.83v9.24h-3.6v1.27H85.45V63.25ZM74.5,66.16h2.84v2.08H74.5Zm0,2.52h2.84v4.76H74.5ZM57.07,62.55a3.2,3.2,0,1,1-3.19,3.19A3.19,3.19,0,0,1,57.07,62.55ZM53.18,76.79v-.71s1.16-1.18,4-1.18,4,1.18,4,1.18v.71Zm16,6.09H66.36V78.14h2.83Zm0-5.18H66.36V75.6h2.83Zm0-4.31H66.36V68.68h2.83Zm3.28,9.49H69.63V78.14h2.84Zm0-5.18H69.63V75.6h2.84Zm0-4.31H69.63V68.68h2.84Zm0-5.15H69.63V66.11h-.44v2.13H66.36V66.11h6.11Zm4.87,14.69H74.5V78.14h2.84Zm3.27,0H77.78V78.14h2.83Zm0-5.23H77.78v-2h-.44v2H74.5v-2h6.11Zm0-4.26H77.78V68.68h2.83Zm0-5.2H77.78V66.16h2.83Z"/><polygon class="cls-4" points="50.5 87.74 42.76 89.48 56.54 89.48 56.54 86.38 53.18 87.14 50.5 87.74"/><path class="cls-4" d="M55.91,67.16a.23.23,0,0,0,.17-.07l1.23-1.27V63.33a.24.24,0,0,0-.47,0v2.3l-1.1,1.13a.24.24,0,0,0,0,.33A.2.2,0,0,0,55.91,67.16Z"/><path class="cls-4" d="M87.28,107.37s-.33-1.22-1.4-1.21H82.05a1,1,0,0,1-.72-.34c-.36-.36-1.44-2.29-1.51-2.35l-.53-.88a.88.88,0,0,0-.72-.43.85.85,0,0,0-.85.84,1.36,1.36,0,0,0,.09.37l2.86,5.16a1.44,1.44,0,0,1,.15.56v.57a2.16,2.16,0,0,1-.07.51l-1.17,4.29h1.24v3.73h0a1.15,1.15,0,0,0,1.51,1.09,1.17,1.17,0,0,0,.78-1.13v-3.55a.54.54,0,0,1,0-.14h.69a.54.54,0,0,1,0,.14v3.54a1.18,1.18,0,0,0,.77,1.14,1.15,1.15,0,0,0,1.52-1.09v-3.73h1.24l-1.64-5.81s-.08-.3.14-.36.29.22.29.22l1.39,4.28a.79.79,0,0,0,.95.58c.74-.2.48-1,.48-1Z"/><path class="cls-4" d="M83.77,105.08a2.33,2.33,0,1,0-2.32-2.33A2.32,2.32,0,0,0,83.77,105.08Z"/><path class="cls-4" d="M29.75,105a2.29,2.29,0,1,0-2.28-2.29A2.29,2.29,0,0,0,29.75,105Z"/><path class="cls-4" d="M35.23,111.63c0-.1-.68-1.72-.88-2.23-1.38-3.54-1.61-3.52-2.85-3.56H28c-1.25,0-1.47,0-2.85,3.56-.2.51-1,2.48-1,2.58s-.35.83.42,1.11,1-.58,1-.58l1.41-3.46s0-.07.08-.07.05.07.06.11v9h0a1.19,1.19,0,0,0,1.18,1.23,1.16,1.16,0,0,0,1.15-1.23v-3.6s0-.55.36-.54.35.54.35.54v3.6a1.19,1.19,0,0,0,1.18,1.23,1.16,1.16,0,0,0,1.14-1.23h0v-9c0-.08,0-.1,0-.11s.1.08.1.08l1.27,3.11s.37.82,1.06.5S35.23,111.63,35.23,111.63Z"/><path class="cls-4" d="M72.26,100.29H67.43A2.7,2.7,0,0,0,65,103v5.62a.79.79,0,0,0,1.57,0v-4.83a.37.37,0,0,1,.39-.42c.22,0,.27.24.28.39V118.2a1.13,1.13,0,0,0,2.26,0v-8.34a.31.31,0,0,1,.33-.33h0a.31.31,0,0,1,.32.33v8.34a1.13,1.13,0,1,0,2.26,0V103.73c0-.15,0-.39.28-.39s.38.24.38.42v4.83a.79.79,0,0,0,1.58,0V103A2.7,2.7,0,0,0,72.26,100.29Z"/><path class="cls-4" d="M71.39,96.9c-.2-.17-.36-.32-.68-.16s-.3.16-.55.29a5.77,5.77,0,0,1-1.45.43,5.61,5.61,0,0,1-1.14.08,2.29,2.29,0,0,0,4.56,0A7,7,0,0,0,71.39,96.9Z"/><path class="cls-4" d="M68.55,96.94a5.65,5.65,0,0,0,1.38-.4,7.18,7.18,0,0,1,.72-.3.72.72,0,0,1,.47-.07.69.69,0,0,1,.21.13l.18.16s.09.08.62.48c.06,0,.12.1.16.09s.07-.4,0-.6a3.15,3.15,0,0,0-.73-1.6s-.28-.23-.46-.2-.54-.2-.66-.28a2.09,2.09,0,0,0-1.79.29,4.42,4.42,0,0,0-1.56,2.08c-.07.19.27.28.44.28A4.65,4.65,0,0,0,68.55,96.94Z"/><path class="cls-4" d="M61,111a1.1,1.1,0,0,0-1.16-.53H57.55V106.9a1.49,1.49,0,0,0-1.48-1.48h-.62a1.86,1.86,0,0,0-.34,0h0l-.23.07-3,1-.05,0-.08,0,0,0a.79.79,0,0,0-.35.43l-.93,2.58a.81.81,0,0,0,1.53.55l.79-2.21,1.21-.39h0v4.22a1.55,1.55,0,0,0,.15.65,1.37,1.37,0,0,0,1.26.84h4.24l1.87,3.23a1.11,1.11,0,0,0,1.51.4l.06,0a1.11,1.11,0,0,0,.4-1.51Z"/><path class="cls-4" d="M59.24,114.91H58a3.77,3.77,0,0,1-7.44-.83,3.81,3.81,0,0,1,.43-1.72l-.1-.06-.1-.07-.86-.52-.1-.07-.1-.06a5.24,5.24,0,1,0,9.78,3.33h-.24Z"/><path class="cls-4" d="M55.93,104.67a2.17,2.17,0,1,0-2.17-2.17A2.17,2.17,0,0,0,55.93,104.67Z"/><path class="cls-4" d="M44.67,101.05l-.15,0H40.26l-.15,0a2.6,2.6,0,0,0-2.36,2.59v5.41a.76.76,0,0,0,1.51,0V104.4c0-.17.05-.41.37-.41s.27.24.28.38V118.3a1.09,1.09,0,0,0,2.17,0v-8a.3.3,0,0,1,.31-.32h0a.29.29,0,0,1,.31.32v8a1.09,1.09,0,0,0,2.18,0V104.37c0-.14,0-.38.27-.38s.37.24.37.41v4.65a.76.76,0,0,0,1.51,0v-5.41A2.6,2.6,0,0,0,44.67,101.05Z"/><path class="cls-4" d="M40.39,95.92c0-.31-.36-.68-1-.36-.84.4-.75,1.64-.75,1.64s0,.18,0,.13.27-.5,1-.59a1.09,1.09,0,0,0,.36-.11,2.65,2.65,0,0,1,.42-.59S40.39,96,40.39,95.92Z"/><path class="cls-4" d="M45.37,95.56c-.68-.32-1,0-1,.36,0,.06,0,.11,0,.16a2.45,2.45,0,0,1,.38.53,1.05,1.05,0,0,0,.39.13c.68.09.88.41,1,.59s0,0,0-.13S46.21,96,45.37,95.56Z"/><path class="cls-4" d="M42.35,95.6a2.32,2.32,0,1,0,2.32,2.32A2.32,2.32,0,0,0,42.35,95.6Z"/></g></g></svg>