<svg xmlns="http://www.w3.org/2000/svg" viewBox="0 0 113.04 146.99"><defs><style>.cls-1{fill:#fff;stroke:#f2f2f2;stroke-miterlimit:10;}.cls-2{font-size:9.82px;font-family:29LTBukra-Bold, 29LT Bukra;font-weight:700;}.cls-2,.cls-3{fill:#161511;}.cls-4{fill:#c11627;}</style></defs><title>footer-icon7_1</title><g id="Layer_2" data-name="Layer 2"><g id="Layer_1-2" data-name="Layer 1"><rect class="cls-1" x="0.5" y="22.49" width="112.04" height="124"/><text class="cls-2" transform="translate(84.81 8.89)">ةياغلا</text><path class="cls-3" d="M.5,8.24,3.13,1.59h1.5V8h.61V9.18H4.63v1.46H3.18V9.18H.5ZM1.84,8H3.21V4.26h0Z"/><path class="cls-3" d="M7.71,5.05A1.11,1.11,0,0,1,8.8,6.15a1.1,1.1,0,1,1-1.09-1.1Z"/><path class="cls-3" d="M10.15,1.59H14V3l-2,7.65H10.47l2-7.81H10.15Z"/><path class="cls-4" d="M44,71.86,34.75,61.7a31.64,31.64,0,0,0-5.88,7.66l12.32,6.13A18.17,18.17,0,0,1,44,71.86Z"/><path class="cls-4" d="M67.79,70.75l9.29-10.14a31.39,31.39,0,0,0-8.23-5.14L63.91,68.32A17.7,17.7,0,0,1,67.79,70.75Z"/><path class="cls-4" d="M74.1,81.86l13.7-1.29a31.31,31.31,0,0,0-2.61-9.2L72.87,77.51A17.24,17.24,0,0,1,74.1,81.86Z"/><path class="cls-4" d="M72,75.73,84.3,69.59A31.67,31.67,0,0,0,78.55,62L69.26,72.1A18.07,18.07,0,0,1,72,75.73Z"/><path class="cls-4" d="M38.74,84.48c0-.27,0-.55,0-.83L25.06,82.43c0,.68-.07,1.36-.07,2a31.45,31.45,0,0,0,.94,7.63l13.23-3.8A17.84,17.84,0,0,1,38.74,84.48Z"/><path class="cls-4" d="M66.92,98.89l7.24,11.71A31.85,31.85,0,0,0,81.24,104l-11-8.27A17.77,17.77,0,0,1,66.92,98.89Z"/><path class="cls-4" d="M88,82.55l-13.7,1.29c0,.22,0,.43,0,.64a17.38,17.38,0,0,1-.41,3.78l13.23,3.81a31.62,31.62,0,0,0,.93-7.59C88.05,83.83,88,83.19,88,82.55Z"/><path class="cls-4" d="M43,96l-11,8.32a31.51,31.51,0,0,0,7.15,6.48l7.23-11.7A18.06,18.06,0,0,1,43,96Z"/><path class="cls-4" d="M40.28,77.26,28,71.13a31.46,31.46,0,0,0-2.72,9.32L39,81.68A17.36,17.36,0,0,1,40.28,77.26Z"/><path class="cls-4" d="M61,101.68l2.55,13.53a31.22,31.22,0,0,0,8.89-3.55L65.25,100A17.32,17.32,0,0,1,61,101.68Z"/><path class="cls-4" d="M71.44,94.14l11,8.29A31.23,31.23,0,0,0,86.58,94l-13.22-3.8A17.91,17.91,0,0,1,71.44,94.14Z"/><path class="cls-4" d="M56.52,102.26a17.7,17.7,0,0,1-2.07-.12L51.9,115.67a32,32,0,0,0,4.62.34,30.73,30.73,0,0,0,5.11-.42l-2.55-13.52A17.93,17.93,0,0,1,56.52,102.26Z"/><path class="cls-4" d="M67,54.75A31.13,31.13,0,0,0,57.66,53V66.74a17.86,17.86,0,0,1,4.4.85Z"/><path class="cls-4" d="M48.13,100.15l-7.24,11.71A31.5,31.5,0,0,0,50,115.32l2.54-13.52A17.75,17.75,0,0,1,48.13,100.15Z"/><path class="cls-4" d="M55.67,66.73V53a31.57,31.57,0,0,0-9.47,1.72l5,12.84A17.54,17.54,0,0,1,55.67,66.73Z"/><path class="cls-4" d="M39.7,90.22,26.47,94a31.48,31.48,0,0,0,4.37,8.73l11-8.32A17.79,17.79,0,0,1,39.7,90.22Z"/><path class="cls-4" d="M49.32,68.23l-5-12.83a31.62,31.62,0,0,0-8.12,5l9.28,10.17A17.77,17.77,0,0,1,49.32,68.23Z"/><polygon class="cls-4" points="47.82 90.94 56.27 93.49 56.27 78.67 47.82 75.15 47.82 90.94"/><polygon class="cls-4" points="65.7 75.15 57.2 78.7 57.2 93.49 65.7 90.93 65.7 75.15"/><polygon class="cls-4" points="46.92 91.79 46.92 75.11 46.02 75.83 46.02 92.42 56.23 95.25 56.7 95.25 56.79 95.25 57.27 95.25 66.69 92.26 67.52 92.01 67.52 75.83 66.61 75.11 66.61 91.36 57.22 94.4 56.79 94.4 56.7 94.4 56.27 94.4 46.92 91.79"/></g></g></svg>