<svg xmlns="http://www.w3.org/2000/svg" viewBox="0 0 113.32 146.99"><defs><style>.cls-1{fill:#fff;stroke:#f2f2f2;stroke-miterlimit:10;}.cls-2{font-size:9.82px;font-family:29LTBukra-Bold, 29LT Bukra;font-weight:700;}.cls-2,.cls-3{fill:#161511;}.cls-4{fill:#c11627;}</style></defs><title>footer-icon6_1</title><g id="Layer_2" data-name="Layer 2"><g id="Layer_1-2" data-name="Layer 1"><rect class="cls-1" x="0.78" y="22.49" width="112.04" height="124"/><text class="cls-2" transform="translate(85.12 8.89)">ةياغلا</text><path class="cls-3" d="M0,8.37,2.79,1.31H4.38V8.1H5V9.36H4.38v1.56H2.85V9.36H0ZM1.42,8.1H2.88V4.15h0Z"/><path class="cls-3" d="M7.65,5A1.18,1.18,0,0,1,8.81,6.15,1.17,1.17,0,1,1,7.65,5Z"/><path class="cls-3" d="M10.43,8.47V3.79c0-1.5.64-2.59,2.34-2.59S15,2.19,15,3.61v.51H13.55V3.48c0-.59-.17-.93-.75-.93S12,3,12,3.54V5.61h0a1.37,1.37,0,0,1,1.33-.78c1.16,0,1.78.79,1.78,2.37V8.61A2.12,2.12,0,0,1,12.78,11C11.08,11,10.43,10,10.43,8.47Zm3.13.28V7.08c0-.62-.21-1-.76-1s-.74.34-.77.88V8.75c0,.6.21,1,.75,1S13.56,9.36,13.56,8.75Z"/><path class="cls-4" d="M85,82.47a6,6,0,0,0-3.44-1.11H77.35L74,84.75l-1.7-1.7-1.69-1.69H66.05a6.44,6.44,0,0,0-4.68,2.18L74,87.26h0L86.27,83.6A8.45,8.45,0,0,0,85,82.47Z"/><path class="cls-4" d="M50.87,82.47a6,6,0,0,0-3.44-1.11H43.26l-3.39,3.39-1.7-1.7-1.69-1.69H32a6.44,6.44,0,0,0-4.68,2.18L39.9,87.26h0L52.18,83.6A8,8,0,0,0,50.87,82.47Z"/><path class="cls-4" d="M63.45,85.56l-2.68-.8-.63-.2-.46-.14-1.91-.58h0v7.31a2.8,2.8,0,0,1,.59.1,2.33,2.33,0,0,1,1,.58,2.25,2.25,0,0,1-1.56,3.83v6.11L73,105.23h0l0-7.65V88.47L65.89,86.3Z"/><path class="cls-4" d="M88.58,91.5a2.2,2.2,0,0,1,1.19-.34h.09V83.85h0l-1.49.45-.58.18-.55.16-3.07.93-2.43.74-7.18,2.17v9.18l0,7.57h0l15.25-3.46V95.65h-.09a2.26,2.26,0,0,1-1.21-.36,1.7,1.7,0,0,1-.22-.15,2.26,2.26,0,0,1-.83-1.74A2.23,2.23,0,0,1,88.58,91.5ZM86,98.77,77.51,101v-1.2L86,97.56Zm0-2.59-8.45,2.2v-1.2L86,95Zm0-2.59-8.45,2.2v-1.2L86,92.38ZM86,91,77.51,93.2V92L86,89.79Z"/><path class="cls-4" d="M78.36,71.52c-.58-.47-1-.91-2-.46-.61.29-.86.49-1.62.85a16.14,16.14,0,0,1-4.26,1.27,15,15,0,0,1-3.36.24,6.77,6.77,0,0,0,13.45.16A25.66,25.66,0,0,0,78.36,71.52Z"/><path class="cls-4" d="M67.13,71.84A12.61,12.61,0,0,0,70,71.66a15.29,15.29,0,0,0,4.06-1.19,22.75,22.75,0,0,1,2.13-.87,2.19,2.19,0,0,1,1.4-.21,2,2,0,0,1,.6.39l.54.45s.26.24,1.82,1.44c.18.14.35.29.47.25.35-.11.2-1.17.14-1.77A9.63,9.63,0,0,0,79,65.43a1.52,1.52,0,0,0-1.33-.57,3.08,3.08,0,0,1-2-.83c-.84-.55-2.9-.39-5.28.85-1.69.89-3.62,3.69-4.59,6.14C65.6,71.58,66.62,71.82,67.13,71.84Z"/><path class="cls-4" d="M54.24,84.32l-.57.17-.55.16-3.07.94-2.44.73-7.18,2.17v3.15l0,3.22v2.81l0,7.58h0l15.25-3.46V95.67h-.1a2.19,2.19,0,0,1-1.21-.37l-.21-.14a2.26,2.26,0,0,1,1.42-4h.1V83.86h0ZM51.85,98.77,43.4,101v-1.2l8.45-2.21Zm0-2.59-8.45,2.2v-1.2L51.85,95Zm0-2.59-8.45,2.2v-1.2l8.45-2.21Zm0-2.6L43.4,93.2V92l8.45-2.2Z"/><path class="cls-4" d="M31.85,86.28l-2.06-.62-.37-.12L29,85.42l-2.27-.69-.53-.16-.09,0-.47-.15-1.9-.58h0v7.32h0a2.37,2.37,0,0,1,.8.16l.27.14a3.08,3.08,0,0,1,.5.37,2.26,2.26,0,0,1-1.57,3.83v6.11L39,105.21h0l0-7.65v-9.1L38,88.13Z"/><path class="cls-4" d="M28.29,70.63c.24-.58.84-1.54,2.93-1.82a3.33,3.33,0,0,0,1.09-.34,7.94,7.94,0,0,1,1.28-1.8,2.35,2.35,0,0,0,0-.4c-.12-.94-1.1-2.08-3.2-1.09-2.58,1.23-2.29,5-2.29,5C28.18,70.54,28.24,70.78,28.29,70.63Z"/><path class="cls-4" d="M47,68.4a2.92,2.92,0,0,0,1.2.41c2.09.28,2.69,1.24,2.93,1.82,0,.15.11-.09.15-.42,0,0,.28-3.8-2.29-5-2.1-1-3.08.15-3.2,1.09a3.34,3.34,0,0,0,0,.49A8.59,8.59,0,0,1,47,68.4Z"/><path class="cls-4" d="M39.65,79.59a7.14,7.14,0,1,0-7.13-7.14A7.14,7.14,0,0,0,39.65,79.59Z"/></g></g></svg>