<svg xmlns="http://www.w3.org/2000/svg" viewBox="0 0 113.43 146.99"><defs><style>.cls-1{fill:#fff;stroke:#f2f2f2;stroke-miterlimit:10;}.cls-2,.cls-3{fill:#161511;}.cls-3{font-size:9.82px;font-family:29LTBukra-Bold, 29LT Bukra;font-weight:700;}.cls-4{fill:#c11627;}</style></defs><title>footer-icon1_1</title><g id="Layer_2" data-name="Layer 2"><g id="Layer_1-2" data-name="Layer 1"><rect class="cls-1" x="0.5" y="22.49" width="112.04" height="124"/><path class="cls-2" d="M.33,8.21,2.92,1.66H4.39V8H5V9.13h-.6v1.44H3V9.13H.33ZM1.64,8H3V4.29H3Z"/><path class="cls-2" d="M7.42,5.07a1.08,1.08,0,1,1,0,2.16,1.08,1.08,0,1,1,0-2.16Z"/><path class="cls-2" d="M12.25,1.66v8.91h-1.5V3.75h0L9.68,4.84h0V3.28l1.38-1.62Z"/><text class="cls-3" transform="translate(85.69 8.89)">ةياغلا</text><path class="cls-4" d="M62.43,61.44l-6-5.44-6.34,5.44H31.27V83.26H81.68V61.44ZM43.33,66.3h2.5v4.22h-2.5ZM36.07,64h2.5v1.87h-2.5Zm0,2.31h2.5v4.17h-2.5Zm5.44,12.63H39v-4.2h2.5Zm0-4.64H39V72.44h-.44v1.85h-2.5v.44h2.5v4.2h-2.5V72.44h5.44Zm0-3.82H39V66.3h2.5Zm0-4.61H39V64h2.5ZM45.83,79h-2.5V74.73h2.5Zm2.94,0H46.26V74.73h2.51Zm0-4.68H46.26v-1.8h-.43v1.8h-2.5v-1.8h5.44Zm0-3.77H46.26V66.3h2.51Zm0-4.66H46.26V64h-.43v1.83h-2.5V64h5.44Zm7.64-5a2.85,2.85,0,1,1-2.85,2.84A2.84,2.84,0,0,1,56.41,60.82Zm-.22,22H52.94V73.92h3.25Zm3.82,0H56.63V73.92H60Zm0-9.3H52.94v-.61a5,5,0,0,1,3.53-1.05A5.09,5.09,0,0,1,60,72.87ZM71.93,66.3h2.5v4.22h-2.5ZM64.68,64h2.5v1.87h-2.5Zm0,2.31h2.5v4.17h-2.5Zm2.5,12.63h-2.5v-4.2h2.5Zm2.94,0h-2.5v-4.2h2.5Zm0-4.64h-2.5V72.44h-.44v1.85h-2.5V72.44h5.44Zm0-3.82h-2.5V66.3h2.5Zm0-4.61h-2.5V64h2.5ZM74.43,79h-2.5V74.73h2.5Zm2.94,0h-2.5V74.73h2.5Zm0-4.68h-2.5v-1.8h-.44v1.8h-2.5v-1.8h5.44Zm0-3.77h-2.5V66.3h2.5Zm0-4.66h-2.5V64h-.44v1.83h-2.5V64h5.44Z"/><path class="cls-4" d="M55.37,65a.23.23,0,0,0,.17-.07l1.1-1.14V61.52a.23.23,0,1,0-.46,0v2l-1,1a.22.22,0,0,0,0,.32A.21.21,0,0,0,55.37,65Z"/><path class="cls-4" d="M56.47,54.27l6.74,6H84.05l-5.11-6h-15a2.1,2.1,0,0,1-1.27-.42l-6.16-4.57L50.31,54a2.13,2.13,0,0,1-1.29.43H34.83L29,60.33l20.76,0Z"/><path class="cls-4" d="M38,104.36s-.42-1.56-1.8-1.55c0,0-1.3,0-1.3,0h-3.6a1.21,1.21,0,0,1-.92-.44c-.47-.46-1.85-2.93-1.94-3l-.68-1.13a1.16,1.16,0,0,0-.92-.55,1.09,1.09,0,0,0-1.09,1.08,1.88,1.88,0,0,0,.11.48l3.67,6.61a1.92,1.92,0,0,1,.19.72v.73a2.44,2.44,0,0,1-.09.66l-1.5,5.5h1.59v4.78h0a1.48,1.48,0,0,0,1.94,1.4,1.5,1.5,0,0,0,1-1.45v-4.73h.89a.78.78,0,0,1,0,.17v4.55a1.5,1.5,0,0,0,1,1.45,1.47,1.47,0,0,0,2-1.39v-4.78h1.59L36,106s-.11-.38.18-.45.37.28.37.28l1.78,5.49a1,1,0,0,0,1.22.74c1-.26.62-1.28.62-1.28Z"/><path class="cls-4" d="M33.52,101.43a3,3,0,1,0-3-3A3,3,0,0,0,33.52,101.43Z"/><path class="cls-4" d="M65.67,101.31a2.93,2.93,0,1,0-2.92-2.93A2.93,2.93,0,0,0,65.67,101.31Z"/><path class="cls-4" d="M72.7,109.83c0-.13-.88-2.2-1.13-2.86-1.77-4.54-2.06-4.51-3.66-4.56H63.44c-1.6,0-1.89,0-3.66,4.56-.25.66-1.31,3.18-1.32,3.31s-.44,1.07.55,1.42,1.23-.74,1.23-.74l1.8-4.43s0-.1.1-.1.07.09.08.14v11.55h0a1.51,1.51,0,0,0,1.5,1.58,1.5,1.5,0,0,0,1.48-1.58v-4.61s0-.7.46-.69.45.69.45.69v4.61a1.52,1.52,0,0,0,1.51,1.58,1.48,1.48,0,0,0,1.47-1.58h0V106.56c0-.1,0-.13,0-.14s.13.11.13.11l1.62,4s.47,1.06,1.37.64S72.7,109.83,72.7,109.83Z"/><path class="cls-4" d="M84.24,96.06l-.19,0H78.59l-.18,0a3.33,3.33,0,0,0-3,3.32v6.93a1,1,0,0,0,1.93,0v-6c0-.23.06-.53.47-.53s.35.3.36.49v17.84a1.39,1.39,0,0,0,2.78,0V107.88a.38.38,0,0,1,.4-.41h0a.38.38,0,0,1,.39.41v10.28a1.4,1.4,0,0,0,2.79,0V100.32c0-.19.06-.49.34-.49s.48.3.48.53v6a1,1,0,0,0,1.94,0V99.38A3.34,3.34,0,0,0,84.24,96.06Z"/><path class="cls-4" d="M76.53,91.3c.1-.24.35-.64,1.22-.76a1.09,1.09,0,0,0,.45-.14,3.67,3.67,0,0,1,.54-.75.42.42,0,0,0,0-.16c0-.4-.45-.87-1.33-.46-1.07.51-1,2.1-1,2.1S76.51,91.36,76.53,91.3Z"/><path class="cls-4" d="M84.81,90.54c.87.12,1.12.52,1.22.76,0,.06,0,0,.06-.17s.12-1.59-1-2.1c-.87-.41-1.28.06-1.33.46a1.12,1.12,0,0,0,0,.2,4,4,0,0,1,.49.68A1.13,1.13,0,0,0,84.81,90.54Z"/><path class="cls-4" d="M81.26,95a3,3,0,1,0-3-3A3,3,0,0,0,81.26,95Z"/><path class="cls-4" d="M52.71,95.28H46.52a3.48,3.48,0,0,0-3.09,3.45v7.2a1,1,0,1,0,2,0V99.74c0-.23.06-.54.49-.54s.36.31.36.51v18.54a1.45,1.45,0,0,0,2.9,0V107.56a.4.4,0,0,1,.42-.42h0a.39.39,0,0,1,.41.42v10.69a1.45,1.45,0,0,0,2.9,0V99.71c0-.2.07-.51.36-.51s.49.31.49.54v6.19a1,1,0,1,0,2,0v-7.2A3.48,3.48,0,0,0,52.71,95.28Z"/><path class="cls-4" d="M51.58,90.91c-.25-.21-.46-.4-.87-.2s-.38.21-.71.37a7,7,0,0,1-1.85.55,6.15,6.15,0,0,1-1.46.1,2.94,2.94,0,0,0,5.85.07C52,91.33,52.13,91.37,51.58,90.91Z"/><path class="cls-4" d="M46.7,91.12A5.7,5.7,0,0,0,48,91a6.17,6.17,0,0,0,1.67-.54c.48-.22.92-.38.92-.38a1,1,0,0,1,.61-.09.9.9,0,0,1,.26.17c.12.09.16.13.24.2s.11.1.79.62c.08.06.15.13.2.11s.09-.51.06-.77a4.3,4.3,0,0,0-.89-2,.63.63,0,0,0-.63-.29c-.39.07-.39-.21-.65-.37a2.72,2.72,0,0,0-2.58.42,6.84,6.84,0,0,0-1.92,2.63C46,90.93,46.32,91.12,46.7,91.12Z"/></g></g></svg>