<svg xmlns="http://www.w3.org/2000/svg" viewBox="0 0 142.99 131.43"><defs><style>.cls-1{opacity:0.35;}.cls-2{fill:#3f7853;}</style></defs><title>icon2</title><g id="Layer_2" data-name="Layer 2"><g id="Layer_1-2" data-name="Layer 1"><g id="_Group_" data-name="&lt;Group&gt;" class="cls-1"><path id="_Compound_Path_" data-name="&lt;Compound Path&gt;" class="cls-2" d="M41.61,17.91H25V31H41.61ZM39,28.6H27.55V20.28H39Z"/><path id="_Compound_Path_2" data-name="&lt;Compound Path&gt;" class="cls-2" d="M65.5,17.91H48.85V31H65.5ZM62.91,28.6H51.44V20.28H62.91Z"/><path id="_Compound_Path_3" data-name="&lt;Compound Path&gt;" class="cls-2" d="M65.5,34.88H48.85v13H65.5ZM62.91,45.56H51.44V37.25H62.91Z"/><path id="_Compound_Path_4" data-name="&lt;Compound Path&gt;" class="cls-2" d="M65.5,64.89H48.85v13H65.5ZM62.91,75.57H51.44V67.26H62.91Z"/><path id="_Compound_Path_5" data-name="&lt;Compound Path&gt;" class="cls-2" d="M65.5,94.68H48.85v13H65.5Zm-2.59,10.68H51.44V97.05H62.91Z"/><path id="_Compound_Path_6" data-name="&lt;Compound Path&gt;" class="cls-2" d="M41.61,94.68H25v13H41.61ZM39,105.36H27.55V97.05H39Z"/><path id="_Compound_Path_7" data-name="&lt;Compound Path&gt;" class="cls-2" d="M108,72.19H91.33v13H108Zm-2.59,10.68H93.92V74.56h11.47Z"/><path id="_Compound_Path_8" data-name="&lt;Compound Path&gt;" class="cls-2" d="M128.87,93.27H112.22v13h16.65ZM126.28,104H114.81V95.64h11.47Z"/><path class="cls-2" d="M0,131.43H143v-4.74h-4.78V62.33H84.11V0H6.35V126.69H0ZM84.92,67.06H133v57.6H84.92ZM11.53,4.73h67.4V124.66H11.53Z"/></g></g></g></svg>