<svg xmlns="http://www.w3.org/2000/svg" viewBox="0 0 95.37 153.85"><defs><style>.cls-1{opacity:0.35;}.cls-2{fill:#5b2a4f;}</style></defs><title>icon1</title><g id="Layer_2" data-name="Layer 2"><g id="Layer_1-2" data-name="Layer 1"><g id="_Group_" data-name="&lt;Group&gt;" class="cls-1"><path id="_Compound_Path_" data-name="&lt;Compound Path&gt;" class="cls-2" d="M0,114.64a7.2,7.2,0,0,0,6.1,6.9l0,5.24L12.4,130v11.1h6.32v-7.87l2,1V38.49L72.4,86.31,73.47,83l12,11.12-5.13-13-4.82-4.46L77,72l-4.23-3.92a6.6,6.6,0,0,0,1.11-3.65,7.34,7.34,0,0,0-7.59-7,8,8,0,0,0-3.95,1L28.37,27a11.8,11.8,0,0,0,.23-2.23,12.29,12.29,0,0,0-6.46-10.61V0H7.92V14.31A12.22,12.22,0,0,0,1.75,24.75,12,12,0,0,0,6.5,34.21l-.34,73.53A7.21,7.21,0,0,0,0,114.64Zm16.69,24.6H14.42v-8.19l2.27,1.16Zm1-10.32v.59l-8.59-4.38,0-3.6a6.94,6.94,0,0,0,.06-13.76L9.53,36a14.24,14.24,0,0,0,8.18.93ZM74.88,78.68l3.73,3.45,1.84,4.68L74.14,81ZM66.33,60.25a4.23,4.23,0,1,1-4.56,4.22A4.41,4.41,0,0,1,66.33,60.25Zm-6.18.13a6.7,6.7,0,0,0-1.42,4.09c0,3.88,3.41,7,7.6,7a8,8,0,0,0,4.41-1.32l2.86,2.66L71,81,21.84,35.52A12.83,12.83,0,0,0,27.32,30ZM17.58,1.87h2.53V12.79H18.78c-.39-.1-.79-.19-1.2-.26Zm-3.42,0h1.4V12.34l-.39,0c-.34,0-.67,0-1,0Zm-4.22,0h2.2V12.65l-.57.14H9.94ZM4.79,24.75c0-5.3,4.66-9.62,10.38-9.62s10.39,4.32,10.39,9.62-4.66,9.61-10.39,9.61S4.79,30.05,4.79,24.75ZM7.6,110.42a4.23,4.23,0,1,1,0,8.44,4.23,4.23,0,1,1,0-8.44Z"/><path id="_Compound_Path_2" data-name="&lt;Compound Path&gt;" class="cls-2" d="M15.17,31.66c4.12,0,7.48-3.1,7.48-6.91a7.22,7.22,0,0,0-7.48-6.92A7.22,7.22,0,0,0,7.7,24.75,7.21,7.21,0,0,0,15.17,31.66Zm0-11a4.29,4.29,0,0,1,4.44,4.11,4.28,4.28,0,0,1-4.44,4.1,4.28,4.28,0,0,1-4.43-4.1A4.28,4.28,0,0,1,15.17,20.64Z"/><path id="_Path_" data-name="&lt;Path&gt;" class="cls-2" d="M47.44,146.69c-9.36,2.47-19.24,2.68-27.11.57a2.77,2.77,0,0,0-2.57.56,2.47,2.47,0,0,0,1.09,4.29h0a52.15,52.15,0,0,0,13.56,1.74c16.87,0,34.34-7.54,45.7-20.49,7.37-8.41,13-19.1,17.15-32.7a2.42,2.42,0,0,0-1.88-3.06A2.68,2.68,0,0,0,90,99.3C84.52,117.26,72.66,140.05,47.44,146.69Z"/></g></g></g></svg>