<svg xmlns="http://www.w3.org/2000/svg" viewBox="0 0 127.97 141.28"><defs><style>.cls-1{opacity:0.35;}.cls-2{fill:#c42720;}</style></defs><title>icon4</title><g id="Layer_2" data-name="Layer 2"><g id="Layer_1-2" data-name="Layer 1"><g id="_Group_" data-name="&lt;Group&gt;" class="cls-1"><path id="_Compound_Path_" data-name="&lt;Compound Path&gt;" class="cls-2" d="M3.22,67A2.91,2.91,0,0,0,0,69.15a2.64,2.64,0,0,0,2.32,2.9,164.9,164.9,0,0,0,30.21,3c43.11,0,65.43-21.26,81.29-43.83l9.6,5a3.38,3.38,0,0,0,3.22-.08,2.43,2.43,0,0,0,1.26-2.56L121.76,2.15A2.6,2.6,0,0,0,120.25.32a3.44,3.44,0,0,0-2.6-.12L85,12.14a2.6,2.6,0,0,0-1.82,2.3,2.56,2.56,0,0,0,1.68,2.38L94.7,21C68.45,70.76,5.91,67.14,3.22,67Zm98.12-46.23a2.45,2.45,0,0,0-1.44-3.32l-6.53-2.74L116.5,6.22,121,28.91l-6.59-3.41a3.5,3.5,0,0,0-2.28-.29,3,3,0,0,0-1.84,1.19c-16,23.43-36.95,44.27-79.65,43.53C53.65,65.7,85.16,53.78,101.34,20.73Z"/><path id="_Compound_Path_2" data-name="&lt;Compound Path&gt;" class="cls-2" d="M12.82,99.81c-5.77,0-10.29,4.86-10.29,11v19.37c0,6.19,4.52,11.05,10.29,11.05H26.88c5.78,0,10.29-4.86,10.29-11.05V110.86c0-6.19-4.51-11-10.29-11Zm18.38,11v19.37c0,3.14-2,5.9-4.32,5.9H12.82c-2.3,0-4.32-2.76-4.32-5.9V110.86c0-3.14,2-5.9,4.32-5.9H26.88C29.18,105,31.2,107.72,31.2,110.86Z"/><path id="_Compound_Path_3" data-name="&lt;Compound Path&gt;" class="cls-2" d="M55.34,81.65c-5.76,0-10.28,4.86-10.28,11.06v37.52c0,6.19,4.52,11.05,10.28,11.05H69.41c5.77,0,10.29-4.86,10.29-11.05V92.71c0-6.2-4.52-11.06-10.29-11.06ZM73.72,92.71v37.52c0,3.14-2,5.9-4.31,5.9H55.34c-2.29,0-4.31-2.76-4.31-5.9V92.71c0-3.15,2-5.91,4.31-5.91H69.41C71.71,86.8,73.72,89.56,73.72,92.71Z"/><path id="_Compound_Path_4" data-name="&lt;Compound Path&gt;" class="cls-2" d="M116.14,59.87H102.07c-5.77,0-10.29,4.85-10.29,11.05v59.31c0,6.19,4.52,11.05,10.29,11.05h14.07c5.77,0,10.29-4.86,10.29-11.05V70.92C126.43,64.72,121.91,59.87,116.14,59.87Zm4.31,70.36c0,3.14-2,5.9-4.31,5.9H102.07c-2.3,0-4.31-2.76-4.31-5.9V70.92c0-3.15,2-5.9,4.31-5.9h14.07c2.3,0,4.31,2.75,4.31,5.9Z"/></g></g></g></svg>