<svg xmlns="http://www.w3.org/2000/svg" viewBox="0 0 143.64 138.47"><defs><style>.cls-1{opacity:0.35;}.cls-2{fill:#1f4f88;}</style></defs><title>icon3</title><g id="Layer_2" data-name="Layer 2"><g id="Layer_1-2" data-name="Layer 1"><g id="_Group_" data-name="&lt;Group&gt;" class="cls-1"><path id="_Path_" data-name="&lt;Path&gt;" class="cls-2" d="M87,45.65,72.45,55.1,57.92,45.65a1.85,1.85,0,0,0-2.4,0,1.37,1.37,0,0,0,0,2.11l15.2,10.15V68a1.71,1.71,0,0,0,3.39,0V58l15.28-10.2a1.37,1.37,0,0,0,0-2.11A1.85,1.85,0,0,0,87,45.65Z"/><path id="_Compound_Path_" data-name="&lt;Compound Path&gt;" class="cls-2" d="M11.47,5.31a17,17,0,0,0-6,12.79c0,10,9.2,18.08,20.49,18.08h0a21.78,21.78,0,0,0,14.48-5.31,17,17,0,0,0,6-12.79C46.44,8.11,37.25,0,26,0A21.82,21.82,0,0,0,11.47,5.31ZM41,18.09a12.5,12.5,0,0,1-4.42,9.4A16,16,0,0,1,26,31.39h0c-8.3,0-15.07-6-15.07-13.29a12.5,12.5,0,0,1,4.42-9.41A16,16,0,0,1,26,4.79C34.26,4.79,41,10.75,41,18.09Z"/><path id="_Compound_Path_2" data-name="&lt;Compound Path&gt;" class="cls-2" d="M2.71,63.87H49.2a2.58,2.58,0,0,0,2.71-2.31c0-.65.47-15.92-10.41-24.72A3,3,0,0,0,38,36.7c-.12.08-12.15,8.06-23.34,0a3,3,0,0,0-3.49,0C10.74,37.11.26,45.33,0,61.44a2.27,2.27,0,0,0,.78,1.72A2.92,2.92,0,0,0,2.71,63.87ZM13.26,41.74c9.79,5.73,20.28,3,26.05-.05,5.51,5.51,6.81,13.49,7.1,17.38H5.55A28.58,28.58,0,0,1,13.26,41.74Z"/><path id="_Compound_Path_3" data-name="&lt;Compound Path&gt;" class="cls-2" d="M117.68,36.18h0a21.78,21.78,0,0,0,14.48-5.31,17,17,0,0,0,6-12.79C138.17,8.11,129,0,117.68,0A21.8,21.8,0,0,0,103.2,5.31a17,17,0,0,0-6,12.79C97.2,28.07,106.39,36.18,117.68,36.18ZM107,8.69a16,16,0,0,1,10.65-3.9c8.31,0,15.07,6,15.07,13.3a12.46,12.46,0,0,1-4.42,9.4,16,16,0,0,1-10.64,3.9h0c-8.3,0-15.06-6-15.06-13.29A12.49,12.49,0,0,1,107,8.69Z"/><path id="_Compound_Path_4" data-name="&lt;Compound Path&gt;" class="cls-2" d="M143.64,61.55c0-.65.46-15.92-10.42-24.72a3,3,0,0,0-3.48-.13c-.12.08-12.16,8.06-23.34,0a3,3,0,0,0-3.49,0c-.45.35-10.92,8.57-11.18,24.68a2.27,2.27,0,0,0,.78,1.72,2.92,2.92,0,0,0,1.93.71h46.49A2.58,2.58,0,0,0,143.64,61.55ZM97.28,59.08A28.52,28.52,0,0,1,105,41.74c9.78,5.73,20.28,3,26.05-.05,5.51,5.51,6.8,13.49,7.1,17.38Z"/><path id="_Compound_Path_5" data-name="&lt;Compound Path&gt;" class="cls-2" d="M72.45,74.6A21.77,21.77,0,0,0,58,79.9a17,17,0,0,0-6,12.79c0,10,9.2,18.08,20.49,18.08h0a21.79,21.79,0,0,0,14.48-5.3,17,17,0,0,0,6-12.79C92.94,82.71,83.74,74.6,72.45,74.6ZM83.1,102.08A16,16,0,0,1,72.46,106h0c-8.3,0-15.06-6-15.07-13.3a12.47,12.47,0,0,1,4.42-9.4,16,16,0,0,1,10.65-3.91c8.31,0,15.07,6,15.07,13.3A12.47,12.47,0,0,1,83.1,102.08Z"/><path id="_Compound_Path_6" data-name="&lt;Compound Path&gt;" class="cls-2" d="M49.2,138.47H95.7a2.59,2.59,0,0,0,2.71-2.32c0-.64.46-15.91-10.42-24.72a3,3,0,0,0-3.48-.13c-.12.08-12.16,8.06-23.34,0a3,3,0,0,0-3.49,0c-.45.34-10.92,8.56-11.19,24.68a2.24,2.24,0,0,0,.78,1.71A2.9,2.9,0,0,0,49.2,138.47Zm10.56-22.13c9.78,5.73,20.27,3,26,0,5.52,5.5,6.81,13.49,7.1,17.38H52A28.58,28.58,0,0,1,59.76,116.34Z"/></g></g></g></svg>