<svg xmlns="http://www.w3.org/2000/svg" xmlns:xlink="http://www.w3.org/1999/xlink" viewBox="0 0 214 58.47"><defs><style>.cls-1,.cls-10,.cls-11,.cls-12,.cls-13,.cls-14,.cls-2,.cls-3,.cls-4,.cls-5,.cls-6,.cls-7,.cls-8,.cls-9{fill:#1d1d1b;}.cls-2{clip-path:url(#clip-path);}.cls-3{clip-path:url(#clip-path-2);}.cls-4{clip-path:url(#clip-path-13);}.cls-5{clip-path:url(#clip-path-3);}.cls-6{clip-path:url(#clip-path-4);}.cls-7{clip-path:url(#clip-path-5);}.cls-8{clip-path:url(#clip-path-6);}.cls-9{clip-path:url(#clip-path-7);}.cls-10{clip-path:url(#clip-path-8);}.cls-11{clip-path:url(#clip-path-9);}.cls-12{clip-path:url(#clip-path-10);}.cls-13{clip-path:url(#clip-path-11);}.cls-14{clip-path:url(#clip-path-12);}.cls-15{clip-path:url(#clip-path-14);}.cls-16{fill:#e30613;}.cls-17{fill:#fff;}</style><clipPath id="clip-path"><path id="SVGID" class="cls-1" d="M40.24,14.59a10.48,10.48,0,0,0,3.81,3,18,18,0,0,1,2.13,1,1.48,1.48,0,0,1,.22.13,4.12,4.12,0,0,1,1.69,1.83,2.19,2.19,0,0,1,.16.83A2.52,2.52,0,0,1,48,22.42a3,3,0,0,1,.76,3.44,1.42,1.42,0,0,1-1.46.92,2,2,0,0,1-1.15-.57,1.87,1.87,0,0,0,.33.85l.44.48-.64-.09a3.67,3.67,0,0,1-2.67-1.53c-.07.76-.1,1.43-.1,1.94a5.19,5.19,0,0,0,.34,2.25,2.5,2.5,0,0,0,.1-1.17l-.12-.77.52.57A4.14,4.14,0,0,1,45.61,32a1.87,1.87,0,0,1-.8,1.37,2.22,2.22,0,0,1-2.3-.08,4.07,4.07,0,0,1-1.9-3.58l.16-2.82a7.46,7.46,0,0,0-.53-3.94V14.59Z"/></clipPath><clipPath id="clip-path-2"><path id="SVGID-2" data-name="SVGID" class="cls-4" d="M30,53.71a10.73,10.73,0,0,1,1.5-1.52,7.07,7.07,0,0,1-1.69.39c-1.23.18-2,.51-2.28,1.07a1.73,1.73,0,0,0-.23.91,3.57,3.57,0,0,0,.16.79A3.16,3.16,0,0,1,30,53.71Z"/></clipPath><clipPath id="clip-path-3"><path id="SVGID-3" data-name="SVGID" class="cls-3" d="M32.18,54.69a3.28,3.28,0,0,1-.27-1.29,5.58,5.58,0,0,1,.16-1.27,13.68,13.68,0,0,0-2.78,3.44A3,3,0,0,1,28,57a4.13,4.13,0,0,0,4-2C32.05,54.88,32.12,54.79,32.18,54.69Z"/></clipPath><clipPath id="clip-path-4"><path id="SVGID-4" data-name="SVGID" class="cls-5" d="M41.64,36.78c0-.13,0-.27,0-.41a7.37,7.37,0,0,0-.2-1.6l-.13-.26a28.52,28.52,0,0,1-2-4.34,9,9,0,0,0,1,3.63A9,9,0,0,1,41.64,36.78Z"/></clipPath><clipPath id="clip-path-5"><path id="SVGID-5" data-name="SVGID" class="cls-6" d="M39.66,43.12a1.66,1.66,0,0,1-2.11-.54A2.94,2.94,0,0,0,38.61,45a1.1,1.1,0,0,0,1,.17.79.79,0,0,0,.6-.51,2.83,2.83,0,0,0,.2-1.12,5.29,5.29,0,0,0-.14-1.13A1.2,1.2,0,0,1,39.66,43.12Z"/></clipPath><clipPath id="clip-path-6"><path id="SVGID-6" data-name="SVGID" class="cls-2" d="M43.55,31.17a1.28,1.28,0,0,1-1.19,0,3.11,3.11,0,0,1-1.24-1.1,3.55,3.55,0,0,0,1.62,2.75,1.76,1.76,0,0,0,1.82.09,1.38,1.38,0,0,0,.59-1c0-.11,0-.2,0-.31a3.67,3.67,0,0,0-.75-1.95,2.14,2.14,0,0,1-.32,1,.21.21,0,0,1-.06.1h0A1.61,1.61,0,0,1,43.55,31.17Z"/></clipPath><clipPath id="clip-path-7"><path id="SVGID-7" data-name="SVGID" class="cls-8" d="M47.3,23.17a2,2,0,0,1-.89.18,1.91,1.91,0,0,1-.54-.08.83.83,0,0,1,.16.09l.36.31c.31.3.45.41.76.24a.35.35,0,0,0,.18-.3A1,1,0,0,0,47.3,23.17Z"/></clipPath><clipPath id="clip-path-8"><path id="SVGID-8" data-name="SVGID" class="cls-9" d="M47.75,22.83l-.06.08a1.45,1.45,0,0,1,.1.78.82.82,0,0,1-.43.64A1,1,0,0,1,46.08,24l-.31-.27a1.33,1.33,0,0,0-.79-.27,2.71,2.71,0,0,1,1,1.66c0,.09.05.21.06.25a1.69,1.69,0,0,0,1.31.93,1,1,0,0,0,1-.68A2.49,2.49,0,0,0,47.75,22.83Z"/></clipPath><clipPath id="clip-path-9"><path id="SVGID-9" data-name="SVGID" class="cls-10" d="M44.4,21.88a2.2,2.2,0,0,1-1.48-.9"/></clipPath><clipPath id="clip-path-10"><path id="SVGID-10" data-name="SVGID" class="cls-11" d="M42.92,21a2.91,2.91,0,0,1-.41-.77s1.1-.23,1.18-.8c.1-.73-.67-1.64-1-2a21.14,21.14,0,0,1-2.4-2.11v6.9a6.61,6.61,0,0,1,.92,2.94c.07,1,0,3.44-.07,4h0a2.93,2.93,0,0,0,1.42,1.66.85.85,0,0,0,.79,0,1.27,1.27,0,0,0,.25-.21c-.47-.7-.66-2.17-.46-4.18a18.27,18.27,0,0,1,.27-2,4,4,0,0,0,.24.71,3,3,0,0,0,2.23,1.78,3.7,3.7,0,0,1-.25-1.21,2.33,2.33,0,0,0-1.29-2.05l-.45-.14A2.15,2.15,0,0,1,45.29,23a2.26,2.26,0,0,1-.89-1.16"/></clipPath><clipPath id="clip-path-11"><path id="SVGID-11" data-name="SVGID" class="cls-12" d="M47.5,22.33c1.1-1.57-1-3.15-1.67-3.41.1.33,1,2.48-1,3C45.19,22.67,46.71,23.44,47.5,22.33Z"/></clipPath><clipPath id="clip-path-12"><path id="SVGID-12" data-name="SVGID" class="cls-13" d="M39.26,28.06l.13.69c.16,1.51,2,4.94,2.51,5.89a9.47,9.47,0,0,1,1,3.58,2.43,2.43,0,0,1-.61,1.8,1.69,1.69,0,0,1-2,.31,1.62,1.62,0,0,1-.39-.28,19,19,0,0,1,.88,3.47,2.85,2.85,0,0,1-.23,1.3,1.39,1.39,0,0,1-.93.86,1.54,1.54,0,0,1-1.4-.31,3,3,0,0,1-.8-1.17c0,.32-.06.65-.1,1-.07.65-.07.87-.18,1.48-.23,1.3-.38,2.26,0,2.75a.63.63,0,0,0,.83.11l.26-.15.28-.13.07.57a3.08,3.08,0,0,1-.84,2.92,1.91,1.91,0,0,1-2.61.16,2.37,2.37,0,0,1-.53-.67A4.24,4.24,0,0,1,34,53.73a6.51,6.51,0,0,0-.88,1.84L33,56a2.18,2.18,0,0,1-.32-.42,4.16,4.16,0,0,1-.22-.4,4.36,4.36,0,0,1-5.12,2.07,1.29,1.29,0,0,1-.45-.28l.51-.14A3.35,3.35,0,0,0,29,55.25a11,11,0,0,1,.69-1,3.91,3.91,0,0,0-2.12,1.9l-.23.53-.19-.55a4.48,4.48,0,0,1-.3-1.53,2.3,2.3,0,0,1,.2-.81,2.25,2.25,0,0,1-.07-.41,2,2,0,0,1,1.12-1.92,5.73,5.73,0,0,1,1.44-.56,1.75,1.75,0,0,1-.44-.1l-.13-.07v-.14c0-.07,0-1.6,2.06-2.12l.92-.2.95-.21a2.77,2.77,0,0,0,1.22-1.68,4.46,4.46,0,0,1-1.49.49s-.18-2.2.57-3.19,2.93-.9,2.9-3.41a10.84,10.84,0,0,0-1.88,1.08,38.41,38.41,0,0,0,3.4-7A28.59,28.59,0,0,0,39.26,28.06Z"/></clipPath><clipPath id="clip-path-13"><path id="SVGID-13" data-name="SVGID" class="cls-14" d="M35.12,40.23a4,4,0,0,1,1.31-.58,3.63,3.63,0,0,1,.12.9c0,2.18-2.22,2.67-2.83,3.24s-.59,1.92-.6,2.39a3.67,3.67,0,0,0,1.55-.77,4,4,0,0,1-.7,2.25A3.07,3.07,0,0,0,35.91,45c.3-2.17.4-3,1.3-3.26.24.52,1.68,1.28,2.21.95.8-.49.3-2,0-2.86-.64-1.66-1.19-4.6-.33-6.28a12,12,0,0,0,.13,3.64h0v0s1.12,1.31,1.94.72a1.11,1.11,0,0,0,.27-.33A9.07,9.07,0,0,0,40,34.07a7.63,7.63,0,0,1-.69-3.91c0-.17-.09-.42-.13-.57a37,37,0,0,1-1.65,5.32A37.22,37.22,0,0,1,35.12,40.23Z"/></clipPath><clipPath id="clip-path-14"><path id="SVGID-14" data-name="SVGID" class="cls-7" d="M42.12,36.31v.08a2.37,2.37,0,0,1-.7,1.94c-.62.47-1.4.14-2.07-.36a2.6,2.6,0,0,0,1.21,1.93A1.26,1.26,0,0,0,42,39.69a2.09,2.09,0,0,0,.47-1.48A6.52,6.52,0,0,0,42.12,36.31Z"/></clipPath></defs><title>logo</title><g id="Layer_2" data-name="Layer 2"><g id="Layer_1-2" data-name="Layer 1"><path id="SVGID-15" data-name="SVGID" class="cls-1" d="M40.24,14.59a10.48,10.48,0,0,0,3.81,3,18,18,0,0,1,2.13,1,1.48,1.48,0,0,1,.22.13,4.12,4.12,0,0,1,1.69,1.83,2.19,2.19,0,0,1,.16.83A2.52,2.52,0,0,1,48,22.42a3,3,0,0,1,.76,3.44,1.42,1.42,0,0,1-1.46.92,2,2,0,0,1-1.15-.57,1.87,1.87,0,0,0,.33.85l.44.48-.64-.09a3.67,3.67,0,0,1-2.67-1.53c-.07.76-.1,1.43-.1,1.94a5.19,5.19,0,0,0,.34,2.25,2.5,2.5,0,0,0,.1-1.17l-.12-.77.52.57A4.14,4.14,0,0,1,45.61,32a1.87,1.87,0,0,1-.8,1.37,2.22,2.22,0,0,1-2.3-.08,4.07,4.07,0,0,1-1.9-3.58l.16-2.82a7.46,7.46,0,0,0-.53-3.94V14.59Z"/><path id="SVGID-16" data-name="SVGID" class="cls-1" d="M43.55,31.17a1.28,1.28,0,0,1-1.19,0,3.11,3.11,0,0,1-1.24-1.1,3.55,3.55,0,0,0,1.62,2.75,1.76,1.76,0,0,0,1.82.09,1.38,1.38,0,0,0,.59-1c0-.11,0-.2,0-.31a3.67,3.67,0,0,0-.75-1.95,2.14,2.14,0,0,1-.32,1,.21.21,0,0,1-.06.1h0A1.61,1.61,0,0,1,43.55,31.17Z"/><path id="SVGID-17" data-name="SVGID" class="cls-1" d="M47.3,23.17a2,2,0,0,1-.89.18,1.91,1.91,0,0,1-.54-.08.83.83,0,0,1,.16.09l.36.31c.31.3.45.41.76.24a.35.35,0,0,0,.18-.3A1,1,0,0,0,47.3,23.17Z"/><path id="SVGID-18" data-name="SVGID" class="cls-1" d="M47.75,22.83l-.06.08a1.45,1.45,0,0,1,.1.78.82.82,0,0,1-.43.64A1,1,0,0,1,46.08,24l-.31-.27a1.33,1.33,0,0,0-.79-.27,2.71,2.71,0,0,1,1,1.66c0,.09.05.21.06.25a1.69,1.69,0,0,0,1.31.93,1,1,0,0,0,1-.68A2.49,2.49,0,0,0,47.75,22.83Z"/><path id="SVGID-19" data-name="SVGID" class="cls-1" d="M44.4,21.88a2.2,2.2,0,0,1-1.48-.9"/><path id="SVGID-20" data-name="SVGID" class="cls-1" d="M42.92,21a2.91,2.91,0,0,1-.41-.77s1.1-.23,1.18-.8c.1-.73-.67-1.64-1-2a21.14,21.14,0,0,1-2.4-2.11v6.9a6.61,6.61,0,0,1,.92,2.94c.07,1,0,3.44-.07,4h0a2.93,2.93,0,0,0,1.42,1.66.85.85,0,0,0,.79,0,1.27,1.27,0,0,0,.25-.21c-.47-.7-.66-2.17-.46-4.18a18.27,18.27,0,0,1,.27-2,4,4,0,0,0,.24.71,3,3,0,0,0,2.23,1.78,3.7,3.7,0,0,1-.25-1.21,2.33,2.33,0,0,0-1.29-2.05l-.45-.14A2.15,2.15,0,0,1,45.29,23a2.26,2.26,0,0,1-.89-1.16"/><path id="SVGID-21" data-name="SVGID" class="cls-1" d="M47.5,22.33c1.1-1.57-1-3.15-1.67-3.41.1.33,1,2.48-1,3C45.19,22.67,46.71,23.44,47.5,22.33Z"/><path id="SVGID-22" data-name="SVGID" class="cls-1" d="M39.26,28.06l.13.69c.16,1.51,2,4.94,2.51,5.89a9.47,9.47,0,0,1,1,3.58,2.43,2.43,0,0,1-.61,1.8,1.69,1.69,0,0,1-2,.31,1.62,1.62,0,0,1-.39-.28,19,19,0,0,1,.88,3.47,2.85,2.85,0,0,1-.23,1.3,1.39,1.39,0,0,1-.93.86,1.54,1.54,0,0,1-1.4-.31,3,3,0,0,1-.8-1.17c0,.32-.06.65-.1,1-.07.65-.07.87-.18,1.48-.23,1.3-.38,2.26,0,2.75a.63.63,0,0,0,.83.11l.26-.15.28-.13.07.57a3.08,3.08,0,0,1-.84,2.92,1.91,1.91,0,0,1-2.61.16,2.37,2.37,0,0,1-.53-.67A4.24,4.24,0,0,1,34,53.73a6.51,6.51,0,0,0-.88,1.84L33,56a2.18,2.18,0,0,1-.32-.42,4.16,4.16,0,0,1-.22-.4,4.36,4.36,0,0,1-5.12,2.07,1.29,1.29,0,0,1-.45-.28l.51-.14A3.35,3.35,0,0,0,29,55.25a11,11,0,0,1,.69-1,3.91,3.91,0,0,0-2.12,1.9l-.23.53-.19-.55a4.48,4.48,0,0,1-.3-1.53,2.3,2.3,0,0,1,.2-.81,2.25,2.25,0,0,1-.07-.41,2,2,0,0,1,1.12-1.92,5.73,5.73,0,0,1,1.44-.56,1.75,1.75,0,0,1-.44-.1l-.13-.07v-.14c0-.07,0-1.6,2.06-2.12l.92-.2.95-.21a2.77,2.77,0,0,0,1.22-1.68,4.46,4.46,0,0,1-1.49.49s-.18-2.2.57-3.19,2.93-.9,2.9-3.41a10.84,10.84,0,0,0-1.88,1.08,38.41,38.41,0,0,0,3.4-7A28.59,28.59,0,0,0,39.26,28.06Z"/><path id="SVGID-23" data-name="SVGID" class="cls-1" d="M35.12,40.23a4,4,0,0,1,1.31-.58,3.63,3.63,0,0,1,.12.9c0,2.18-2.22,2.67-2.83,3.24s-.59,1.92-.6,2.39a3.67,3.67,0,0,0,1.55-.77,4,4,0,0,1-.7,2.25A3.07,3.07,0,0,0,35.91,45c.3-2.17.4-3,1.3-3.26.24.52,1.68,1.28,2.21.95.8-.49.3-2,0-2.86-.64-1.66-1.19-4.6-.33-6.28a12,12,0,0,0,.13,3.64h0v0s1.12,1.31,1.94.72a1.11,1.11,0,0,0,.27-.33A9.07,9.07,0,0,0,40,34.07a7.63,7.63,0,0,1-.69-3.91c0-.17-.09-.42-.13-.57a37,37,0,0,1-1.65,5.32A37.22,37.22,0,0,1,35.12,40.23Z"/><path id="SVGID-24" data-name="SVGID" class="cls-1" d="M30,53.71a10.73,10.73,0,0,1,1.5-1.52,7.07,7.07,0,0,1-1.69.39c-1.23.18-2,.51-2.28,1.07a1.73,1.73,0,0,0-.23.91,3.57,3.57,0,0,0,.16.79A3.16,3.16,0,0,1,30,53.71Z"/><path id="SVGID-25" data-name="SVGID" class="cls-1" d="M32.18,54.69a3.28,3.28,0,0,1-.27-1.29,5.58,5.58,0,0,1,.16-1.27,13.68,13.68,0,0,0-2.78,3.44A3,3,0,0,1,28,57a4.13,4.13,0,0,0,4-2C32.05,54.88,32.12,54.79,32.18,54.69Z"/><path id="SVGID-26" data-name="SVGID" class="cls-1" d="M41.64,36.78c0-.13,0-.27,0-.41a7.37,7.37,0,0,0-.2-1.6l-.13-.26a28.52,28.52,0,0,1-2-4.34,9,9,0,0,0,1,3.63A9,9,0,0,1,41.64,36.78Z"/><path id="SVGID-27" data-name="SVGID" class="cls-1" d="M39.66,43.12a1.66,1.66,0,0,1-2.11-.54A2.94,2.94,0,0,0,38.61,45a1.1,1.1,0,0,0,1,.17.79.79,0,0,0,.6-.51,2.83,2.83,0,0,0,.2-1.12,5.29,5.29,0,0,0-.14-1.13A1.2,1.2,0,0,1,39.66,43.12Z"/><path id="SVGID-28" data-name="SVGID" class="cls-1" d="M42.12,36.31v.08a2.37,2.37,0,0,1-.7,1.94c-.62.47-1.4.14-2.07-.36a2.6,2.6,0,0,0,1.21,1.93A1.26,1.26,0,0,0,42,39.69a2.09,2.09,0,0,0,.47-1.48A6.52,6.52,0,0,0,42.12,36.31Z"/><g class="cls-15"><path class="cls-1" d="M37.21,41.77c0,.22,0,.43,0,.63s-.05.62-.06.84a28.89,28.89,0,0,1-.35,3.33,12,12,0,0,0-.26,1.93A1.6,1.6,0,0,0,37,49.77a1.07,1.07,0,0,0,1.29.18,4,4,0,0,1,0,.64,2.32,2.32,0,0,1-.75,1.8,1.58,1.58,0,0,1-1.55.4,2.24,2.24,0,0,1-.9-.76,6,6,0,0,1-.69-1.34,3,3,0,0,1-.27,1.76,3.82,3.82,0,0,1-.55,1,5.69,5.69,0,0,0-.78,1.5,3.11,3.11,0,0,1-.44-1.55,6,6,0,0,1,.31-1.79,4.66,4.66,0,0,0,.2-1.76,3.1,3.1,0,0,1-1.46,1.88h0a7,7,0,0,1-1.71.39,4.13,4.13,0,0,0-2.31,1,1.53,1.53,0,0,1,.89-1.23,5.81,5.81,0,0,1,1.32-.52A3.93,3.93,0,0,0,31,50.67a1.84,1.84,0,0,0,.47-.7s-.49.28-.59.32a2.07,2.07,0,0,1-1.47.08c.07-.34.35-1.15,1.7-1.49l.89-.19.7-.15a1.41,1.41,0,0,0,.37-.09c1.46-.38,3-1.07,3.3-3.23C36.46,44.47,36.47,42.16,37.21,41.77Z"/></g><path class="cls-16" d="M23.63,14.57c-.85-4.82-5.21-3.64-6.19-2.23a3,3,0,0,1-1.39,1.24c-.27-.23-.22-1.2-.22-1.2a3.92,3.92,0,0,1-1.84,1c-.29.07-.8.1-1.06.16.21-.36.82-1.3.82-1.3s-.82,0-2.37,1.24L9.87,14.82c-1.59,1.24-2.68,1.13-3.1,1a6.65,6.65,0,0,1,1-1.92s-3.69.39-4.93-1.72C2.14,11,1.3,10.62.79,10.63a1.45,1.45,0,0,1,2.42.2c.92,2,2.72,2.75,5,2l-.68-.32s-2.14-1-1.7-2.69a1.44,1.44,0,0,1,.87-1,2,2,0,0,1,.78-.13,1.93,1.93,0,0,0-.66.61,1.82,1.82,0,0,0-.22,1.42C7,12,9.11,12.46,11.89,11.77a19.39,19.39,0,0,1-1.82-1.14A4.48,4.48,0,0,0,9,10c.56-.23,1.78-.44,3.72.7a4.58,4.58,0,0,0,4.51.31,5.89,5.89,0,0,1,4.53-.34,4.5,4.5,0,0,1,2.71,3.89Z"/><path class="cls-17" d="M39.23,4.86a4.6,4.6,0,0,1-1.91.51A4.51,4.51,0,0,0,36,5.69,2.74,2.74,0,0,1,37.7,4a3.62,3.62,0,0,1,2.89.16A4.88,4.88,0,0,0,39.23,4.86Z"/><path class="cls-17" d="M45.22,13.14a6.15,6.15,0,0,1,2.21-.07h0a2.08,2.08,0,0,1,1.4,1.22A6.11,6.11,0,0,0,50,15.85a3,3,0,0,1-3-1.17,4.19,4.19,0,0,0-1.8-1.54"/><path class="cls-17" d="M3.33,8.79a6.26,6.26,0,0,1,.55-2.56A15.27,15.27,0,0,0,7,3.69l.1-.08a5.22,5.22,0,0,1,3.31-1.4,2.17,2.17,0,0,1-.17.42A4.16,4.16,0,0,1,8.46,4.16c-1.36.65-2.22,1.55-2.17,2A9.13,9.13,0,0,1,10.2,4l.88-.16A7.48,7.48,0,0,0,13.49,5a3.41,3.41,0,0,1-1.18.25c-.33-.07-1.07-.12-1.07-.12a3.82,3.82,0,0,0-2.62.73A18.14,18.14,0,0,1,11,5.65a8.55,8.55,0,0,1,2.77.74,4.29,4.29,0,0,0,1.65.54,3.4,3.4,0,0,1-1.82.32c-.49-.15-1-.23-1.67-.38a10,10,0,0,1-1.72-.59,1.78,1.78,0,0,0,1.21.92c.9.23,1.57.37,2.07.52h0A1.26,1.26,0,0,1,13.9,8a3.74,3.74,0,0,1-3.77-.23c-.32-.23-.24-.13-1.1-.68A2.82,2.82,0,0,0,6.89,6.7a2.87,2.87,0,0,1,1.58.73,1.47,1.47,0,0,1,.27,1,2.91,2.91,0,0,0-2.19-.12A1.93,1.93,0,0,0,5.4,9.72a2.32,2.32,0,0,0-.08.58,3,3,0,0,0,1.39,2.3,2.85,2.85,0,0,1-2.84-1.68A4.09,4.09,0,0,1,3.33,8.79Z"/><path class="cls-16" d="M1.53,12a1.11,1.11,0,0,0-.41.83A1.67,1.67,0,0,1,.55,11a1.83,1.83,0,0,1,1.39.78A.85.85,0,0,0,1.53,12Z"/><path class="cls-16" d="M15.36,4.82a5.21,5.21,0,0,1-3.69-1.27A3.37,3.37,0,0,1,15.36,4.82Z"/><path class="cls-16" d="M3.67,4.16A2.83,2.83,0,0,1,5.28,2.72,3.52,3.52,0,0,0,7.05,1.34a1.74,1.74,0,0,0,0,.22C7.18,2,7.3,3,5.78,4.31A19.92,19.92,0,0,1,3.86,5.75,2,2,0,0,1,3.67,4.16Z"/><path class="cls-16" d="M45.35,2.25a3.45,3.45,0,0,0,1.38.93A2.25,2.25,0,0,1,47.9,4a2.35,2.35,0,0,1,.29,1.18,3,3,0,0,1-.29,1.29,6.19,6.19,0,0,0-1.61-2.22A2.75,2.75,0,0,1,45.35,2.25Z"/><path class="cls-16" d="M42.26,8.42a1.56,1.56,0,0,1-1.42-.18,1.49,1.49,0,0,1-.35-.37h0a3.39,3.39,0,0,0,1.18-.36c1.5-.79,2.1-.55,2.1-.55-1.3-.7-2.54.45-3.43.42a1.71,1.71,0,0,1-.26,0,2.79,2.79,0,0,1-1.45-.57,1.53,1.53,0,0,0,.79-.34l.12-.09c.17-.15.3-.26.41-.34h0a1.39,1.39,0,0,1,1.16-.17,1.4,1.4,0,0,0-1.2-.33,1,1,0,0,1-.36-.34A3.05,3.05,0,0,1,43.26,5l.35.28V4.84a2.41,2.41,0,0,0-.84-1.43,3.11,3.11,0,0,1,.9.13,2.25,2.25,0,0,1,1.63,1.8l.15.71.29-.66a2.55,2.55,0,0,0,.2-.81s0,0,0,0a4.65,4.65,0,0,1,1.73,3.16,3.43,3.43,0,0,1-1.23,2.48,2.4,2.4,0,0,0-.79-1.33A3.81,3.81,0,0,0,42.26,8.42Z"/><path class="cls-16" d="M50.7,10.89a1.75,1.75,0,0,1-.34,1.78,1.87,1.87,0,0,0-1-1.18A1.33,1.33,0,0,0,49,11.4,2.12,2.12,0,0,1,50.7,10.89Z"/><path class="cls-16" d="M35.85,9A6.43,6.43,0,0,1,33,10.12,2.62,2.62,0,0,1,35.85,9Z"/><path class="cls-1" d="M25.73,9.83h0Z"/><path class="cls-17" d="M12.88,9.4a3.65,3.65,0,0,1,1.58.33l.47.27A3.32,3.32,0,0,1,12.88,9.4Z"/><path class="cls-17" d="M15.36,9.69l-.69-.4a4.25,4.25,0,0,1,4.36.76,6.9,6.9,0,0,0-1.26.16A2.38,2.38,0,0,1,15.36,9.69Z"/><path class="cls-17" d="M23.87,9.7s1.65,2,.35,2.59a4.25,4.25,0,0,0-1.78-1.72A2,2,0,0,1,23.87,9.7Z"/><path class="cls-17" d="M20.87,13.78a3.88,3.88,0,0,1-3.19-1.1v0a2.35,2.35,0,0,1,.91-.78,5,5,0,0,0,4.11,1.23,4.78,4.78,0,0,1,.47,1.44A3,3,0,0,1,20.87,13.78Z"/><path class="cls-17" d="M26.3,14.41a2.24,2.24,0,0,0,1.16-1.54,3.56,3.56,0,0,1,1.95.27A3.79,3.79,0,0,1,26.3,14.41Z"/><path class="cls-1" d="M49.25,14.08a2.53,2.53,0,0,0-1.57-1.44,5,5,0,0,0,.53-.49,1.24,1.24,0,0,1,1-.2,1.27,1.27,0,0,1,.86,1.19l0,.45.35-.29a2.44,2.44,0,0,0,.64-2.72.26.26,0,0,0,0-.08,3.56,3.56,0,0,0-.31-.52,2.52,2.52,0,0,0-2.91-.7,3.3,3.3,0,0,0,.36-1.49v0a3.2,3.2,0,0,0-.11-.69l0,0a3.24,3.24,0,0,0,.54-1.89,2.82,2.82,0,0,0-.36-1.43,2.74,2.74,0,0,0-1.38-1,3.49,3.49,0,0,1-1.75-1.38,2.59,2.59,0,0,0,.12,2.38,2,2,0,0,1,.21.78v0a2.88,2.88,0,0,0-1.65-1.46,4.64,4.64,0,0,0-1.69-.15L41.53,3l.5.37a3.38,3.38,0,0,1,.92,1,2.89,2.89,0,0,0-1.66-.28L41,3.88a4.21,4.21,0,0,0-3.46-.32,4.38,4.38,0,0,0-2.33,2.86,11.78,11.78,0,0,1,2.2-.56,5,5,0,0,0,1.77-.42,1.31,1.31,0,0,0,.34.36,2.56,2.56,0,0,1-.36.3,1.24,1.24,0,0,1-1,.24l-.54-.15.29.51a2.54,2.54,0,0,0,1.52,1,2.56,2.56,0,0,0,.58.11,1.68,1.68,0,0,0,.61.78,1.94,1.94,0,0,0,1.81.24A4.16,4.16,0,0,1,44,8.75a.83.83,0,0,1,.17.49,2.22,2.22,0,0,1-.4,1.49,1.84,1.84,0,0,1-1.66.52,2.25,2.25,0,0,0,1.14-.83l.1-.16-.13-.14a3.32,3.32,0,0,0-3.78-.5A4,4,0,0,1,38,10,4.75,4.75,0,0,0,39.3,8.62l.14-.25-.26-.1a2.66,2.66,0,0,0-2.84.37,3.08,3.08,0,0,0-3.92,1.48,2.52,2.52,0,0,1-.48,0,5.57,5.57,0,0,0-2.41,0s-.57-1.2-2.48-.6c-1.19.37-1.32.32-1.32.31s.14.83,1.28,1.18c0,0-1,.56-2.05,1,.26-.4.19-.88-.15-1.62s-.71-1-.76-1.22c0,0-1.83.51-2,1.22A4.36,4.36,0,0,0,19.61,10,4.91,4.91,0,0,0,14,9.08,4.86,4.86,0,0,0,12.16,9l-.52.09.42.35a3.69,3.69,0,0,0,3.52,1h0a4,4,0,0,0,1,.44A4,4,0,0,1,13,10.3c-3.18-1.82-5-.13-5-.13l.39.13a4.55,4.55,0,0,1,1.25.64,5,5,0,0,0,1.2.66c-2.31.15-3.58-.17-3.81-1a1.26,1.26,0,0,1,.16-1,1.43,1.43,0,0,1,1.23-.71,1.33,1.33,0,0,1,.62.35l.09-.31a2.56,2.56,0,0,0,.05-.48A2,2,0,0,0,9,7.63c.25.14.52.31.84.53.81.57,2.23,1.05,4.38.15l.21-.09,0-.26a1.83,1.83,0,0,0-.13-.23A2.71,2.71,0,0,0,16.12,7l.42-.48h-.48A3.39,3.39,0,0,1,14.13,6,2.88,2.88,0,0,0,13,5.61a2.71,2.71,0,0,0,1.32-.42,4.26,4.26,0,0,0,1.46,0l.35-.07-.2-.3a3.65,3.65,0,0,0-4.81-1.52c-.34.08-.38.13-.92.28A3.13,3.13,0,0,0,10.9,2l0-.23-.22,0a4.89,4.89,0,0,0-3.29,1A2.88,2.88,0,0,0,7.27.62L7,0,6.84.68s-.22,1-1.72,1.58A3.11,3.11,0,0,0,3.24,4a2.06,2.06,0,0,0-.11.65A3,3,0,0,0,3.5,6a6.71,6.71,0,0,0-.64,2.8,4.66,4.66,0,0,0,.09.9,2.14,2.14,0,0,0-2.77,1,2.28,2.28,0,0,0,1,2.85l.4.22-.06-.48c0-.19,0-.73.22-.91s.42-.22.71.14a3.33,3.33,0,0,0,.69.74,3.13,3.13,0,0,0-1.33,1.36,3,3,0,0,0-.25,1.2,4.51,4.51,0,0,0,.29,1.5l.05.14h.14a3.23,3.23,0,0,0,2.47-.89,9.12,9.12,0,0,1,2.22-1.7,2.56,2.56,0,0,0-.54,1.25s1.61.88,3.92-.91l1.53-1.32a14.26,14.26,0,0,1,1.23-1,1.91,1.91,0,0,0-.57,1.37,11.6,11.6,0,0,1,1.6-.37,2.76,2.76,0,0,0,1.57-.73,1.13,1.13,0,0,0,.39,1A4.33,4.33,0,0,0,17.44,13a3.8,3.8,0,0,0,3.22,1.13,2.35,2.35,0,0,0,1.38.71,6,6,0,0,0,1.55,0l.86,0a2.11,2.11,0,0,0,1.33-.11c2.68.29,3.78-1.07,4-1.41,1.74,1.34,2.5,1.44,3.15,1.37a2.56,2.56,0,0,0,1.84-1.32,4.85,4.85,0,0,0,2.92.57s-.07-.37-.11-.49a3.25,3.25,0,0,0,2.42.24l.19-.06,0-.22a2.67,2.67,0,0,0-.28-.74,6.53,6.53,0,0,1,1.74,1.8l.36.47a3.68,3.68,0,0,0,3.88,1.34l.39-.07L46,15.89a10.55,10.55,0,0,1-.83-1.47,3.12,3.12,0,0,0-.8-1A3.72,3.72,0,0,1,46.67,15a3.41,3.41,0,0,0,3.9,1.24l.36-.14-.28-.28A7.35,7.35,0,0,1,49.25,14.08Zm1.45-3.19a1.75,1.75,0,0,1-.34,1.78,1.87,1.87,0,0,0-1-1.18A1.33,1.33,0,0,0,49,11.4,2.12,2.12,0,0,1,50.7,10.89ZM45.35,2.25a3.45,3.45,0,0,0,1.38.93A2.25,2.25,0,0,1,47.9,4a2.35,2.35,0,0,1,.29,1.18,3,3,0,0,1-.29,1.29,6.19,6.19,0,0,0-1.61-2.22A2.75,2.75,0,0,1,45.35,2.25ZM39.23,4.86a4.6,4.6,0,0,1-1.91.51A4.51,4.51,0,0,0,36,5.69,2.74,2.74,0,0,1,37.7,4a3.62,3.62,0,0,1,2.89.16A4.88,4.88,0,0,0,39.23,4.86Zm3,3.56a1.56,1.56,0,0,1-1.42-.18,1.49,1.49,0,0,1-.35-.37h0a3.39,3.39,0,0,0,1.18-.36c1.5-.79,2.1-.55,2.1-.55-1.3-.7-2.54.45-3.43.42a1.71,1.71,0,0,1-.26,0,2.79,2.79,0,0,1-1.45-.57,1.53,1.53,0,0,0,.79-.34l.12-.09c.17-.15.3-.26.41-.34h0a1.39,1.39,0,0,1,1.16-.17,1.4,1.4,0,0,0-1.2-.33,1,1,0,0,1-.36-.34A3.05,3.05,0,0,1,43.26,5l.35.28V4.84a2.41,2.41,0,0,0-.84-1.43,3.11,3.11,0,0,1,.9.13,2.25,2.25,0,0,1,1.63,1.8l.15.71.29-.66a2.55,2.55,0,0,0,.2-.81s0,0,0,0a4.65,4.65,0,0,1,1.73,3.16,3.43,3.43,0,0,1-1.23,2.48,2.4,2.4,0,0,0-.79-1.33A3.81,3.81,0,0,0,42.26,8.42ZM35.85,9A6.43,6.43,0,0,1,33,10.12,2.62,2.62,0,0,1,35.85,9Zm-12,.68s1.65,2,.35,2.59a4.25,4.25,0,0,0-1.78-1.72A2,2,0,0,1,23.87,9.7Zm-11-.3a3.65,3.65,0,0,1,1.58.33l.47.27A3.32,3.32,0,0,1,12.88,9.4Zm2.48.29-.69-.4a4.25,4.25,0,0,1,4.36.76,6.9,6.9,0,0,0-1.26.16A2.38,2.38,0,0,1,15.36,9.69Zm0-4.87a5.21,5.21,0,0,1-3.69-1.27A3.37,3.37,0,0,1,15.36,4.82ZM3.67,4.16A2.83,2.83,0,0,1,5.28,2.72,3.52,3.52,0,0,0,7.05,1.34a1.74,1.74,0,0,0,0,.22C7.18,2,7.3,3,5.78,4.31A19.92,19.92,0,0,1,3.86,5.75,2,2,0,0,1,3.67,4.16ZM3.33,8.79a6.26,6.26,0,0,1,.55-2.56A15.27,15.27,0,0,0,7,3.69l.1-.08a5.22,5.22,0,0,1,3.31-1.4,2.17,2.17,0,0,1-.17.42A4.16,4.16,0,0,1,8.46,4.16c-1.36.65-2.22,1.55-2.17,2A9.13,9.13,0,0,1,10.2,4l.88-.16A7.48,7.48,0,0,0,13.49,5a3.41,3.41,0,0,1-1.18.25c-.33-.07-1.07-.12-1.07-.12a3.82,3.82,0,0,0-2.62.73A18.14,18.14,0,0,1,11,5.65a8.55,8.55,0,0,1,2.77.74,4.29,4.29,0,0,0,1.65.54,3.4,3.4,0,0,1-1.82.32c-.49-.15-1-.23-1.67-.38a10,10,0,0,1-1.72-.59,1.78,1.78,0,0,0,1.21.92c.9.23,1.57.37,2.07.52h0A1.26,1.26,0,0,1,13.9,8a3.74,3.74,0,0,1-3.77-.23c-.32-.23-.24-.13-1.1-.68A2.82,2.82,0,0,0,6.89,6.7a2.87,2.87,0,0,1,1.58.73,1.47,1.47,0,0,1,.27,1,2.91,2.91,0,0,0-2.19-.12A1.93,1.93,0,0,0,5.4,9.72a2.32,2.32,0,0,0-.08.58,3,3,0,0,0,1.39,2.3,2.85,2.85,0,0,1-2.84-1.68A4.09,4.09,0,0,1,3.33,8.79ZM1.53,12a1.11,1.11,0,0,0-.41.83A1.67,1.67,0,0,1,.55,11a1.83,1.83,0,0,1,1.39.78A.85.85,0,0,0,1.53,12Zm2.71,4.25A2.85,2.85,0,0,1,2.29,17a4,4,0,0,1-.22-1.16,2.31,2.31,0,0,1,.2-1,2.6,2.6,0,0,1,1.34-1.26,5.8,5.8,0,0,0,3.33.7A8.19,8.19,0,0,0,4.24,16.22Zm16.63-2.44a3.88,3.88,0,0,1-3.19-1.1v0a2.35,2.35,0,0,1,.91-.78,5,5,0,0,0,4.11,1.23,4.78,4.78,0,0,1,.47,1.44A3,3,0,0,1,20.87,13.78ZM19,11.72a2.81,2.81,0,0,1,3.55,1A4.85,4.85,0,0,1,19,11.72Zm4.66,2.85c-.85-4.82-5.21-3.64-6.19-2.23a3,3,0,0,1-1.39,1.24c-.27-.23-.22-1.2-.22-1.2a3.92,3.92,0,0,1-1.84,1c-.29.07-.8.1-1.06.16.21-.36.82-1.3.82-1.3s-.82,0-2.37,1.24L9.87,14.82c-1.59,1.24-2.68,1.13-3.1,1a6.65,6.65,0,0,1,1-1.92s-3.69.39-4.93-1.72C2.14,11,1.3,10.62.79,10.63a1.45,1.45,0,0,1,2.42.2c.92,2,2.72,2.75,5,2l-.68-.32s-2.14-1-1.7-2.69a1.44,1.44,0,0,1,.87-1,2,2,0,0,1,.78-.13,1.93,1.93,0,0,0-.66.61,1.82,1.82,0,0,0-.22,1.42C7,12,9.11,12.46,11.89,11.77a19.39,19.39,0,0,1-1.82-1.14A4.48,4.48,0,0,0,9,10c.56-.23,1.78-.44,3.72.7a4.58,4.58,0,0,0,4.51.31,5.89,5.89,0,0,1,4.53-.34,4.5,4.5,0,0,1,2.71,3.89Zm1.18,0a4.2,4.2,0,0,1,2.28-1.64A2.63,2.63,0,0,1,24.81,14.56Zm1.49-.15a2.24,2.24,0,0,0,1.16-1.54,3.56,3.56,0,0,1,1.95.27A3.79,3.79,0,0,1,26.3,14.41ZM30.91,12a7.27,7.27,0,0,1,2.4.52,4.93,4.93,0,0,1-2.08.88A2.55,2.55,0,0,0,30.91,12Zm.51,1.85a6.47,6.47,0,0,0,2.39-1.12,4,4,0,0,1,.65.38C33.29,14.63,32.54,14.55,31.42,13.89Zm12-.52a3.3,3.3,0,0,1,1.28,1.27c.31.54.49.94.65,1.2a3,3,0,0,1-3.08-1.22L42,14.16a5.26,5.26,0,0,0-2.29-2.09h0a3.91,3.91,0,0,0-2.52-.45s2.06.27,2.47,1.63h0a4.09,4.09,0,0,1-2.44-.58,2.41,2.41,0,0,0-2.75-.89,3.19,3.19,0,0,1,2.66,1.68,3.82,3.82,0,0,1-2.56-.81,6.39,6.39,0,0,0-4.43-1,2.53,2.53,0,0,1,.63,1.8,4,4,0,0,0-5.93.46,4.38,4.38,0,0,0-.34-1.27,14.72,14.72,0,0,0,3.65-1.76s-1.2-.21-1.56-.71c0,0,2.13-1,2.7.55a3.44,3.44,0,0,1,2.24-.27,5.65,5.65,0,0,0,4.57-1,2.79,2.79,0,0,1,2.64-.79,3.58,3.58,0,0,1-2.64,1.64,4.46,4.46,0,0,0,3.5-.23,3,3,0,0,1,3.08.26,1.78,1.78,0,0,1-.86.56,2.52,2.52,0,0,1-1.11.21,2.12,2.12,0,0,0,1.43.67,2,2,0,0,0,2-.73,2.59,2.59,0,0,0,.51-1.85,1.61,1.61,0,0,0-.06-.33,2.65,2.65,0,0,1,.9.46,2.05,2.05,0,0,1,.69,1.8,1.67,1.67,0,0,1-.59,1.23,2.5,2.5,0,0,1-2,.49,2.16,2.16,0,0,0-1.49-.1A3.36,3.36,0,0,1,43.47,13.37ZM47,14.68a4.19,4.19,0,0,0-1.8-1.54,2.58,2.58,0,0,0,1.34-2.36,3.62,3.62,0,0,0,.85-.83s2.09-.85,3,.43a3.88,3.88,0,0,0-2.38,1.25,2.75,2.75,0,0,1-1.1.89,7.27,7.27,0,0,1-1.74.62,6.15,6.15,0,0,1,2.21-.07h0a2.08,2.08,0,0,1,1.4,1.22A6.11,6.11,0,0,0,50,15.85,3,3,0,0,1,47,14.68Z"/><path class="cls-16" d="M45.22,13.14a2.58,2.58,0,0,0,1.34-2.36,3.62,3.62,0,0,0,.85-.83s2.09-.85,3,.43a3.88,3.88,0,0,0-2.38,1.25,2.75,2.75,0,0,1-1.1.89A7.27,7.27,0,0,1,45.22,13.14Z"/><path class="cls-16" d="M31.42,13.89a6.47,6.47,0,0,0,2.39-1.12,4,4,0,0,1,.65.38C33.29,14.63,32.54,14.55,31.42,13.89Z"/><path class="cls-17" d="M4.24,16.22A2.85,2.85,0,0,1,2.29,17a4,4,0,0,1-.22-1.16,2.31,2.31,0,0,1,.2-1,2.6,2.6,0,0,1,1.34-1.26,5.8,5.8,0,0,0,3.33.7A8.19,8.19,0,0,0,4.24,16.22Z"/><path class="cls-17" d="M43.47,13.37a3.3,3.3,0,0,1,1.28,1.27c.31.54.49.94.65,1.2a3,3,0,0,1-3.08-1.22L42,14.16a5.26,5.26,0,0,0-2.29-2.09h0a3.91,3.91,0,0,0-2.52-.45s2.06.27,2.47,1.63h0a4.09,4.09,0,0,1-2.44-.58,2.41,2.41,0,0,0-2.75-.89,3.19,3.19,0,0,1,2.66,1.68,3.82,3.82,0,0,1-2.56-.81,6.39,6.39,0,0,0-4.43-1,2.53,2.53,0,0,1,.63,1.8,4,4,0,0,0-5.93.46,4.38,4.38,0,0,0-.34-1.27,14.72,14.72,0,0,0,3.65-1.76s-1.2-.21-1.56-.71c0,0,2.13-1,2.7.55a3.44,3.44,0,0,1,2.24-.27,5.65,5.65,0,0,0,4.57-1,2.79,2.79,0,0,1,2.64-.79,3.58,3.58,0,0,1-2.64,1.64,4.46,4.46,0,0,0,3.5-.23,3,3,0,0,1,3.08.26,1.78,1.78,0,0,1-.86.56,2.52,2.52,0,0,1-1.11.21,2.12,2.12,0,0,0,1.43.67,2,2,0,0,0,2-.73,2.59,2.59,0,0,0,.51-1.85,1.61,1.61,0,0,0-.06-.33,2.65,2.65,0,0,1,.9.46,2.05,2.05,0,0,1,.69,1.8,1.67,1.67,0,0,1-.59,1.23,2.5,2.5,0,0,1-2,.49,2.16,2.16,0,0,0-1.49-.1A3.36,3.36,0,0,1,43.47,13.37Z"/><path class="cls-17" d="M44,30.76h0a.21.21,0,0,0,.06-.1,2.14,2.14,0,0,0,.32-1,3.67,3.67,0,0,1,.75,1.95c0,.11,0,.2,0,.31a1.38,1.38,0,0,1-.59,1,1.76,1.76,0,0,1-1.82-.09,3.55,3.55,0,0,1-1.62-2.75,3.11,3.11,0,0,0,1.24,1.1,1.28,1.28,0,0,0,1.19,0A1.45,1.45,0,0,0,44,30.76Z"/><path class="cls-17" d="M44.83,21.88c2-.48,1.1-2.63,1-3,.62.26,2.77,1.84,1.67,3.41C46.71,23.44,45.19,22.67,44.83,21.88Z"/><path class="cls-17" d="M37.55,34.91a37,37,0,0,0,1.65-5.32c0,.15.08.4.13.57A7.63,7.63,0,0,0,40,34.07a9.07,9.07,0,0,1,1.4,3.56,1.11,1.11,0,0,1-.27.33c-.82.59-1.94-.72-1.94-.72v0h0a12,12,0,0,1-.13-3.64c-.86,1.68-.31,4.62.33,6.28.31.82.81,2.37,0,2.86-.53.33-2-.43-2.21-.95-.9.24-1,1.09-1.3,3.26A3.07,3.07,0,0,1,34,47.66a4,4,0,0,0,.7-2.25,3.67,3.67,0,0,1-1.55.77c0-.47,0-1.82.6-2.39s2.79-1.06,2.83-3.24a3.63,3.63,0,0,0-.12-.9,4,4,0,0,0-1.31.58A37.22,37.22,0,0,0,37.55,34.91Z"/><path class="cls-17" d="M32,54.94a4.13,4.13,0,0,1-4,2,3,3,0,0,0,1.28-1.39,13.68,13.68,0,0,1,2.78-3.44,5.58,5.58,0,0,0-.16,1.27,3.28,3.28,0,0,0,.27,1.29C32.12,54.79,32.05,54.88,32,54.94Z"/><path class="cls-16" d="M40.25,15.29a21.14,21.14,0,0,0,2.4,2.11c.37.37,1.14,1.28,1,2-.08.57-1.18.8-1.18.8a2.5,2.5,0,0,0,1.89,1.67A2.26,2.26,0,0,0,45.29,23a2.15,2.15,0,0,0-1.42.44l.45.14a2.33,2.33,0,0,1,1.29,2.05,3.7,3.7,0,0,0,.25,1.21,3,3,0,0,1-2.23-1.78,4,4,0,0,1-.24-.71,18.27,18.27,0,0,0-.27,2c-.2,2,0,3.48.46,4.18a1.27,1.27,0,0,1-.25.21.85.85,0,0,1-.79,0,2.93,2.93,0,0,1-1.42-1.66h0c0-.53.14-3,.07-4a6.61,6.61,0,0,0-.92-2.94Z"/><path class="cls-16" d="M40.36,33.8a9,9,0,0,1-1-3.63,28.52,28.52,0,0,0,2,4.34l.13.26a7.37,7.37,0,0,1,.2,1.6c0,.14,0,.28,0,.41A9,9,0,0,0,40.36,33.8Z"/><path class="cls-16" d="M42.48,38.21A2.09,2.09,0,0,1,42,39.69a1.26,1.26,0,0,1-1.45.21A2.6,2.6,0,0,1,39.35,38c.67.5,1.45.83,2.07.36a2.37,2.37,0,0,0,.7-1.94v-.08A6.52,6.52,0,0,1,42.48,38.21Z"/><path class="cls-16" d="M40.25,42.39a5.29,5.29,0,0,1,.14,1.13,2.83,2.83,0,0,1-.2,1.12.79.79,0,0,1-.6.51,1.1,1.1,0,0,1-1-.17,2.94,2.94,0,0,1-1.06-2.4,1.66,1.66,0,0,0,2.11.54A1.2,1.2,0,0,0,40.25,42.39Z"/><path class="cls-16" d="M27.43,55.35a3.57,3.57,0,0,1-.16-.79,1.73,1.73,0,0,1,.23-.91c.33-.56,1.05-.89,2.28-1.07a7.07,7.07,0,0,0,1.69-.39A10.73,10.73,0,0,0,30,53.71,3.16,3.16,0,0,0,27.43,55.35Z"/><path class="cls-16" d="M37.21,41.77c0,.22,0,.43,0,.63s-.05.62-.06.84a28.89,28.89,0,0,1-.35,3.33,12,12,0,0,0-.26,1.93A1.6,1.6,0,0,0,37,49.77a1.07,1.07,0,0,0,1.29.18,4,4,0,0,1,0,.64,2.32,2.32,0,0,1-.75,1.8,1.58,1.58,0,0,1-1.55.4,2.24,2.24,0,0,1-.9-.76,6,6,0,0,1-.69-1.34,3,3,0,0,1-.27,1.76,3.82,3.82,0,0,1-.55,1,5.69,5.69,0,0,0-.78,1.5,3.11,3.11,0,0,1-.44-1.55,6,6,0,0,1,.31-1.79,4.66,4.66,0,0,0,.2-1.76,3.1,3.1,0,0,1-1.46,1.88h0a7,7,0,0,1-1.71.39,4.13,4.13,0,0,0-2.31,1,1.53,1.53,0,0,1,.89-1.23,5.81,5.81,0,0,1,1.32-.52A3.93,3.93,0,0,0,31,50.67a1.84,1.84,0,0,0,.47-.7s-.49.28-.59.32a2.07,2.07,0,0,1-1.47.08c.07-.34.35-1.15,1.7-1.49l.89-.19.7-.15a1.41,1.41,0,0,0,.37-.09c1.46-.38,3-1.07,3.3-3.23C36.46,44.47,36.47,42.16,37.21,41.77Z"/><path class="cls-1" d="M44.62,21.49a1.85,1.85,0,0,1-1.58-1l0-.05,0,0c.59-.24.93-.55,1-.91a1.14,1.14,0,0,0,0-.25,2.23,2.23,0,0,0-.59-1.33l-.14-.17.2.08.16.07a1,1,0,0,0,.18.08c.35.12.69.26,1,.41h0a2.57,2.57,0,0,1,.74,2.12,1,1,0,0,1-1,1Zm-1.45-1a1.72,1.72,0,0,0,1.45.88h.07a.92.92,0,0,0,.89-.87,2.42,2.42,0,0,0-.69-2,9.63,9.63,0,0,0-1-.4L43.74,18a2.13,2.13,0,0,1,.48,1.22,1,1,0,0,1,0,.28Q44.06,20.13,43.17,20.5Z"/><path class="cls-16" d="M44.92,18.45a2.5,2.5,0,0,1,.72,2.07,1,1,0,0,1-.94.91,1.74,1.74,0,0,1-1.6-1,1.56,1.56,0,0,0,1-.95,1.18,1.18,0,0,0,0-.27,2.35,2.35,0,0,0-.6-1.36,3.49,3.49,0,0,0,.34.15C44.16,18.13,44.52,18.27,44.92,18.45Z"/><path class="cls-16" d="M47.33,23.61a.35.35,0,0,1-.18.3c-.31.17-.45.06-.76-.24L46,23.36a.83.83,0,0,0-.16-.09,1.91,1.91,0,0,0,.54.08,2,2,0,0,0,.89-.18A1,1,0,0,1,47.33,23.61Z"/><path class="cls-17" d="M48.35,25.64a1,1,0,0,1-1,.68A1.69,1.69,0,0,1,46,25.39s0-.16-.06-.25a2.71,2.71,0,0,0-1-1.66,1.33,1.33,0,0,1,.79.27l.31.27a1,1,0,0,0,1.28.31.82.82,0,0,0,.43-.64,1.45,1.45,0,0,0-.1-.78l.06-.08A2.49,2.49,0,0,1,48.35,25.64Z"/><path class="cls-16" d="M14.61,36.94a47.82,47.82,0,0,0,3.6,6.37,3.42,3.42,0,0,0,1.06,3.42,2,2,0,0,1-1.27.4,2.15,2.15,0,0,1-1.47-.84A4.2,4.2,0,0,1,16,44.84a7.92,7.92,0,0,0-2-3.51h0l-.26-.28-.15.3a1.34,1.34,0,0,1-1.28.8.93.93,0,0,1-.64-.31,2,2,0,0,0,.79-.86,2.4,2.4,0,0,0-.33-2.64l-.27-.26-.12.36s-.35,1.11-1,1a.62.62,0,0,1-.45-.35c-.16-.32-.3-1.19.61-3.32a17.77,17.77,0,0,0,1.36-5.8A59,59,0,0,0,14.61,36.94Z"/><path class="cls-17" d="M13.29,44.17s0,0-.06.07a1.6,1.6,0,0,1-1.91.17,2.27,2.27,0,0,1-.9-2.36,2.12,2.12,0,0,0,.8,0,1.28,1.28,0,0,0,1,.61A1.62,1.62,0,0,0,13.71,42a3.22,3.22,0,0,1,.08.71A2.09,2.09,0,0,1,13.29,44.17Z"/><path class="cls-17" d="M8.68,38.73c0-.1,0-.19,0-.3a9.32,9.32,0,0,1,1.71-4.12l.11-.18a8,8,0,0,0,1.14-2.71,16.15,16.15,0,0,1-1.22,4.11,8.08,8.08,0,0,0-.76,2.88,1.9,1.9,0,0,0,.17.84,1.09,1.09,0,0,0,.75.6A1.3,1.3,0,0,0,12,39a1.74,1.74,0,0,1,.25.88,2.15,2.15,0,0,1-.2.9,1.52,1.52,0,0,1-.7.7h0s-.05,0-.08.05a1.76,1.76,0,0,1-.85.06C9.2,41.39,8.68,40,8.68,38.73Z"/><path class="cls-17" d="M11.11,21.91a9.15,9.15,0,0,0-.91,5.92l.1.65a1.72,1.72,0,0,1-.92,1.95,4.22,4.22,0,0,0-.19-1.33L8.9,27.64a10.15,10.15,0,0,1,0-2.44,21.09,21.09,0,0,1,.63-3.12,7.26,7.26,0,0,0-1,2.83,11.27,11.27,0,0,0-.1,2.6.53.53,0,0,0-.13.13,7.4,7.4,0,0,0-1.73,4.73,2.92,2.92,0,0,1-.69-1.85c0-.17,0-.32,0-.47V30a2,2,0,0,0,1.64-1.86A3.08,3.08,0,0,0,7,25.93c-.17-.2-.32-.35-.32-.35L6.55,26c-.16.84-.46,1.23-1,1.3A1,1,0,0,1,4.7,27a1,1,0,0,1-.28-.5,1.74,1.74,0,0,0,1.32-.61,2.78,2.78,0,0,0,.37-2.72,1.92,1.92,0,0,0,.31-.11,2.89,2.89,0,0,0,1.2-1.35,1.81,1.81,0,0,0,.22-.64l-.44.26c-.05,0-1.3.77-2-.17a1.67,1.67,0,0,1-.32-.95,1.56,1.56,0,0,1,.1-.55A2.33,2.33,0,0,1,6.5,18.36c.76-.3,2.11-.38,4.61-3.25Z"/><path class="cls-16" d="M22.59,55.42l-1.43-.12a3.9,3.9,0,0,1,.76,1h0a0,0,0,0,0,0,0,7.29,7.29,0,0,1,.44.95,6.15,6.15,0,0,0-1-.42,6.37,6.37,0,0,1-1.54-.67,2.73,2.73,0,0,1-1.28-1.78s0,0,0,0a6.74,6.74,0,0,0-.14-1.89,13.72,13.72,0,0,0,3.71,2.37,9.43,9.43,0,0,1,1.12.59A2.36,2.36,0,0,1,22.59,55.42Z"/><path class="cls-16" d="M24.5,56.14a4,4,0,0,0-2.12-1.72,19,19,0,0,1-3.26-1.89,4.58,4.58,0,0,1-.84-.76,3.76,3.76,0,0,0-1.07-2,29.47,29.47,0,0,0,4.79,2,4.75,4.75,0,0,1,2.57,2.53,2.93,2.93,0,0,1,.12.8A3.05,3.05,0,0,1,24.5,56.14Z"/><path class="cls-1" d="M5.59,22.89A1.27,1.27,0,0,1,5,22.73a1.94,1.94,0,0,1-1.09-1.82,2.48,2.48,0,0,1,.06-.54h0a2.78,2.78,0,0,1,1.83-2l.05.1a2.25,2.25,0,0,0-1,1.09,2,2,0,0,0-.13.7,2,2,0,0,0,.4,1.19A1.62,1.62,0,0,0,7,22l.17,0L7,22.08a2.58,2.58,0,0,1-.8.65,2,2,0,0,1-.33.12A1,1,0,0,1,5.59,22.89Zm-1.54-2.5a2.37,2.37,0,0,0-.06.52,1.84,1.84,0,0,0,1,1.72,1.19,1.19,0,0,0,.84.12h0a2.47,2.47,0,0,0,.31-.12,2.3,2.3,0,0,0,.65-.49A1.69,1.69,0,0,1,5,21.5a2.07,2.07,0,0,1-.42-1.25,2.22,2.22,0,0,1,.13-.74,2.11,2.11,0,0,1,.62-.84,2.65,2.65,0,0,0-1.29,1.72Z"/><path class="cls-1" d="M4.37,26.13a2.26,2.26,0,0,1-.56-.07h0A1.61,1.61,0,0,1,2.7,24.52v-.18a2.72,2.72,0,0,1,.56-1.65l.09,0a.19.19,0,0,1,0,.08,1.81,1.81,0,0,0,0,.19,1.36,1.36,0,0,0,0,.29,1.41,1.41,0,0,0,.63.92,1.24,1.24,0,0,0,1,.15,1.66,1.66,0,0,0,.76-.54l.08-.1,0,.12,0,.15a1.26,1.26,0,0,1,0,.27,2.17,2.17,0,0,1-.46,1.39A1.37,1.37,0,0,1,4.37,26.13ZM3.84,26a1.39,1.39,0,0,0,1.52-.37,2.06,2.06,0,0,0,.43-1.31,1,1,0,0,0,0-.24V24a1.62,1.62,0,0,1-.74.5,1.31,1.31,0,0,1-1.09-.17,1.45,1.45,0,0,1-.69-1,1.55,1.55,0,0,1,0-.31v0a2.68,2.68,0,0,0-.38,1.36v.09s0,.06,0,.09a1.48,1.48,0,0,0,1,1.43Z"/><path class="cls-1" d="M5.49,29.6a1.78,1.78,0,0,1-1.38-1h0a1.73,1.73,0,0,1-.21-.83A2.16,2.16,0,0,1,4.08,27l0-.1,0,.1a1.58,1.58,0,0,0,.25.34,1.38,1.38,0,0,0,1.18.37A1.44,1.44,0,0,0,6.8,26.63l0-.13.06.13a2.79,2.79,0,0,1,.26,1.1A1.9,1.9,0,0,1,5.49,29.6ZM4.14,27.15a1.81,1.81,0,0,0-.13.63,1.54,1.54,0,0,0,.2.78h0a1.66,1.66,0,0,0,1.28.92A1.48,1.48,0,0,0,7,28a2.66,2.66,0,0,0,0-.3,2.49,2.49,0,0,0-.19-.93,1.52,1.52,0,0,1-1.24,1,1.53,1.53,0,0,1-1.27-.4A2.12,2.12,0,0,1,4.14,27.15Z"/><path class="cls-1" d="M9.18,33a1.2,1.2,0,0,1-1-.43,2.9,2.9,0,0,1-.48-1.8v-.13a.41.41,0,0,0,0-.11v-.15l.09.11a1.37,1.37,0,0,0,1.42.43,1.64,1.64,0,0,0,1.31-1.28h.11a5.31,5.31,0,0,1,.08.83,3.77,3.77,0,0,1-.41,1.86A1.21,1.21,0,0,1,9.18,33ZM7.8,30.64v.11a2.81,2.81,0,0,0,.46,1.73,1.1,1.1,0,0,0,.92.39,1.11,1.11,0,0,0,1-.61,3.53,3.53,0,0,0,.4-1.8,3.45,3.45,0,0,0,0-.57A1.72,1.72,0,0,1,9.23,31,1.53,1.53,0,0,1,7.8,30.64Z"/><path class="cls-1" d="M11.11,21.91a9.15,9.15,0,0,0-.91,5.92l.1.65a1.72,1.72,0,0,1-.92,1.95,4.22,4.22,0,0,0-.19-1.33L8.9,27.64a10.15,10.15,0,0,1,0-2.44,21.09,21.09,0,0,1,.63-3.12,7.26,7.26,0,0,0-1,2.83,11.27,11.27,0,0,0-.1,2.6.53.53,0,0,0-.13.13,7.4,7.4,0,0,0-1.73,4.73,2.92,2.92,0,0,1-.69-1.85c0-.17,0-.32,0-.47V30a2,2,0,0,0,1.64-1.86A3.08,3.08,0,0,0,7,25.93c-.17-.2-.32-.35-.32-.35L6.55,26c-.16.84-.46,1.23-1,1.3A1,1,0,0,1,4.7,27a1,1,0,0,1-.28-.5,1.74,1.74,0,0,0,1.32-.61,2.78,2.78,0,0,0,.37-2.72,1.92,1.92,0,0,0,.31-.11,2.89,2.89,0,0,0,1.2-1.35,1.81,1.81,0,0,0,.22-.64l-.44.26c-.05,0-1.3.77-2-.17a1.67,1.67,0,0,1-.32-.95,1.56,1.56,0,0,1,.1-.55A2.33,2.33,0,0,1,6.5,18.36c.76-.3,2.11-.38,4.61-3.25Zm.35-.05V14.61h-.35a15.24,15.24,0,0,1-1.5,1.58,5.13,5.13,0,0,1-3,1.58,3.2,3.2,0,0,0-3.11,2.51,2.78,2.78,0,0,0,.1,1.55A2.81,2.81,0,0,0,2.3,24.54a2,2,0,0,0,1.4,1.91l.17,0a2.67,2.67,0,0,0-.38,1.3,2.28,2.28,0,0,0,.26,1A2.15,2.15,0,0,0,5.44,30v0a3.59,3.59,0,0,0,1.22,3.17l.47.49L7.06,33a7.12,7.12,0,0,1,.23-2.38,3.47,3.47,0,0,0,.56,2.2,1.68,1.68,0,0,0,1.33.58,1.65,1.65,0,0,0,1.47-.87,3.94,3.94,0,0,0,.46-2.06,39.94,39.94,0,0,1-.64-4.2,9.14,9.14,0,0,1,.68-3.53ZM3.73,23.22a1.26,1.26,0,0,1,.18-.88,2.29,2.29,0,0,0,.87.76,1.67,1.67,0,0,0,.83.2,1.56,1.56,0,0,1-.76.68.83.83,0,0,1-.67-.12A.93.93,0,0,1,3.73,23.22Zm5.16,7.31c-.54,0-.85-.29-1.11-.78l-.12-.22a7.16,7.16,0,0,1,.86-1.45l.22,1.13A3.16,3.16,0,0,1,8.89,30.53Z"/><path class="cls-1" d="M14.61,36.94a47.82,47.82,0,0,0,3.6,6.37,3.42,3.42,0,0,0,1.06,3.42,2,2,0,0,1-1.27.4,2.15,2.15,0,0,1-1.47-.84A4.2,4.2,0,0,1,16,44.84a7.92,7.92,0,0,0-2-3.51h0l-.26-.28-.15.3a1.34,1.34,0,0,1-1.28.8.93.93,0,0,1-.64-.31,2,2,0,0,0,.79-.86,2.4,2.4,0,0,0-.33-2.64l-.27-.26-.12.36s-.35,1.11-1,1a.62.62,0,0,1-.45-.35c-.16-.32-.3-1.19.61-3.32a17.77,17.77,0,0,0,1.36-5.8A59,59,0,0,0,14.61,36.94Zm.23-.15A46.35,46.35,0,0,1,12,27.53l-.06.75a10.53,10.53,0,0,1-1.79,5.6l-.11.18a9.73,9.73,0,0,0-1.79,4.35c-.1,1.74.6,3.13,1.74,3.53a2.73,2.73,0,0,0,1.11,2.87,2,2,0,0,0,2.23-.07,18.08,18.08,0,0,0,.71,2c.26.54.52,1.81.1,2.16s-1.39-.28-1.39-.28a2.76,2.76,0,0,0-.24,2.18c.59,1.65,2.62,1.25,3.09,1.05a3.34,3.34,0,0,0,.28.86l.83,1.35a12,12,0,0,1,1.08,1.89l.15.69L18.2,56a5.24,5.24,0,0,0,.22-.71,3.31,3.31,0,0,0,1.19,1.27,6.3,6.3,0,0,0,1.63.71,3,3,0,0,1,1.35.7l.49.52-.1-.72a4.94,4.94,0,0,0-.82-1.9,3.53,3.53,0,0,0,1.54-.08,2.94,2.94,0,0,1,.61,1l.17.43.24-.4A3.46,3.46,0,0,0,25,54.18a4.5,4.5,0,0,0-2.29-2.55c1.42-.07,1.83-.51,1.83-.51a3.72,3.72,0,0,0-2.66-1.48,1.13,1.13,0,0,0,.66-.6,3.68,3.68,0,0,0-2.77-1.32,4.57,4.57,0,0,1-1.27-.16,2.74,2.74,0,0,0,1.26-.62l.19-.17-.19-.17a3.24,3.24,0,0,1-1.23-2.78l.07-.43A33,33,0,0,1,14.84,36.79ZM8.68,38.73c0-.1,0-.19,0-.3a9.32,9.32,0,0,1,1.71-4.12l.11-.18a8,8,0,0,0,1.14-2.71,16.15,16.15,0,0,1-1.22,4.11,8.08,8.08,0,0,0-.76,2.88,1.9,1.9,0,0,0,.17.84,1.09,1.09,0,0,0,.75.6A1.3,1.3,0,0,0,12,39a1.74,1.74,0,0,1,.25.88,2.15,2.15,0,0,1-.2.9,1.52,1.52,0,0,1-.7.7h0s-.05,0-.08.05a1.76,1.76,0,0,1-.85.06C9.2,41.39,8.68,40,8.68,38.73Zm4.61,5.44s0,0-.06.07a1.6,1.6,0,0,1-1.91.17,2.27,2.27,0,0,1-.9-2.36,2.12,2.12,0,0,0,.8,0,1.28,1.28,0,0,0,1,.61A1.62,1.62,0,0,0,13.71,42a3.22,3.22,0,0,1,.08.71A2.09,2.09,0,0,1,13.29,44.17Zm4.67,11s0,.05,0,.06c-.23-.4-.53-.9-.87-1.42l-.81-1.32a3.4,3.4,0,0,1-.33-1.16,9.86,9.86,0,0,1,0-1.86,3.12,3.12,0,0,0-.47,1.91,2.47,2.47,0,0,1-2,0,1.18,1.18,0,0,1-.59-.74,2.24,2.24,0,0,1-.12-.73,1.72,1.72,0,0,1,.15-.65c.65.29,1.15.29,1.47,0,.61-.59.3-2.07,0-2.7a18.45,18.45,0,0,1-.74-2.12,2.85,2.85,0,0,0,.52-2.12,6.16,6.16,0,0,1,1.37,2.65c.17,1,.75,3,4.19,3.24A4.85,4.85,0,0,1,22,49c-.23.24-.25.3-1,.47a11.41,11.41,0,0,1-3.69-.68,5.89,5.89,0,0,0,2.76,1S21,50,21.18,50a4.42,4.42,0,0,1,2.48,1,3.68,3.68,0,0,1-1.86.24A28.19,28.19,0,0,1,17,49.64,7.92,7.92,0,0,1,18,55.16Zm4.63.26-1.43-.12a3.9,3.9,0,0,1,.76,1h0a0,0,0,0,0,0,0,7.29,7.29,0,0,1,.44.95,6.15,6.15,0,0,0-1-.42,6.37,6.37,0,0,1-1.54-.67,2.73,2.73,0,0,1-1.28-1.78s0,0,0,0a6.74,6.74,0,0,0-.14-1.89,13.72,13.72,0,0,0,3.71,2.37,9.43,9.43,0,0,1,1.12.59A2.36,2.36,0,0,1,22.59,55.42Zm1.91.72a4,4,0,0,0-2.12-1.72,19,19,0,0,1-3.26-1.89,4.58,4.58,0,0,1-.84-.76,3.76,3.76,0,0,0-1.07-2,29.47,29.47,0,0,0,4.79,2,4.75,4.75,0,0,1,2.57,2.53,2.93,2.93,0,0,1,.12.8A3.05,3.05,0,0,1,24.5,56.14Z"/><path class="cls-16" d="M4,20.38a2.74,2.74,0,0,1,1.8-2,2.42,2.42,0,0,0-1,1.12,2,2,0,0,0,.27,1.94A1.69,1.69,0,0,0,7,22.05a2.37,2.37,0,0,1-.78.63,2.43,2.43,0,0,1-.32.12A1.25,1.25,0,0,1,5,22.68a1.89,1.89,0,0,1-1.06-1.77A3.07,3.07,0,0,1,4,20.38Z"/><path class="cls-16" d="M3.82,26a1.55,1.55,0,0,1-1.06-1.48c0-.06,0-.12,0-.18a2.65,2.65,0,0,1,.55-1.61,1.37,1.37,0,0,0,0,.28c0,.1,0,.2,0,.3a1.4,1.4,0,0,0,.67,1,1.27,1.27,0,0,0,1,.17,1.62,1.62,0,0,0,.79-.57,2,2,0,0,1,.08.41,2.11,2.11,0,0,1-.45,1.35A1.45,1.45,0,0,1,3.82,26Z"/><path class="cls-16" d="M4.16,28.59A1.61,1.61,0,0,1,4,27.78,2,2,0,0,1,4.13,27a1.67,1.67,0,0,0,.26.35,1.47,1.47,0,0,0,1.22.39,1.53,1.53,0,0,0,1.25-1.12,2.73,2.73,0,0,1,.25,1.08,1.63,1.63,0,0,1,0,.31,1.53,1.53,0,0,1-1.59,1.5A1.73,1.73,0,0,1,4.16,28.59Z"/><path class="cls-16" d="M10.57,29.64a4.38,4.38,0,0,1,.08.82,3.66,3.66,0,0,1-.4,1.83,1.17,1.17,0,0,1-1.07.64,1.15,1.15,0,0,1-1-.42,2.85,2.85,0,0,1-.47-1.76c0-.09,0-.16,0-.24A1.47,1.47,0,0,0,9.22,31,1.69,1.69,0,0,0,10.57,29.64Z"/><path class="cls-17" d="M18,55.16s0,.05,0,.06c-.23-.4-.53-.9-.87-1.42l-.81-1.32a3.4,3.4,0,0,1-.33-1.16,9.86,9.86,0,0,1,0-1.86,3.12,3.12,0,0,0-.47,1.91,2.47,2.47,0,0,1-2,0,1.18,1.18,0,0,1-.59-.74,2.24,2.24,0,0,1-.12-.73,1.72,1.72,0,0,1,.15-.65c.65.29,1.15.29,1.47,0,.61-.59.3-2.07,0-2.7a18.45,18.45,0,0,1-.74-2.12,2.85,2.85,0,0,0,.52-2.12,6.16,6.16,0,0,1,1.37,2.65c.17,1,.75,3,4.19,3.24A4.85,4.85,0,0,1,22,49c-.23.24-.25.3-1,.47a11.41,11.41,0,0,1-3.69-.68,5.89,5.89,0,0,0,2.76,1S21,50,21.18,50a4.42,4.42,0,0,1,2.48,1,3.68,3.68,0,0,1-1.86.24A28.19,28.19,0,0,1,17,49.64,7.92,7.92,0,0,1,18,55.16Z"/><path class="cls-17" d="M39.85,15c0,.35,0,5.87,0,6.91L37.11,28.2c-.35-.75-2.84-6.27-2.84-6.27L31.4,28.21l-2.85-6.28-2.87,6.28-2.84-6.28L20,28.21l-2.85-6.28L14.26,28.2c-.34-.76-2.76-6.27-2.76-6.27,0-1,0-5.87,0-6.91Z"/><path class="cls-16" d="M25.67,50.67C13.39,41.09,11.75,26.91,11.53,23.06l2.72,6.19s2.54-5.59,2.87-6.33c.34.74,2.85,6.33,2.85,6.33l2.87-6.33,2.84,6.33,2.87-6.33c.34.74,2.84,6.33,2.84,6.33l2.88-6.33,2.84,6.33,2.72-6.18C39.6,26.91,38,41.09,25.67,50.67Z"/><path class="cls-1" d="M40.28,14.59H11.07v7.5c0,.73.16,18,14.48,29l.12.1.13-.1c14.32-11.07,14.49-28.3,14.49-29Zm-.43.43c0,.35,0,5.87,0,6.91L37.11,28.2c-.35-.75-2.84-6.27-2.84-6.27L31.4,28.21l-2.85-6.28-2.87,6.28-2.84-6.28L20,28.21l-2.85-6.28L14.26,28.2c-.34-.76-2.76-6.27-2.76-6.27,0-1,0-5.87,0-6.91ZM25.67,50.67C13.39,41.09,11.75,26.91,11.53,23.06l2.72,6.19s2.54-5.59,2.87-6.33c.34.74,2.85,6.33,2.85,6.33l2.87-6.33,2.84,6.33,2.87-6.33c.34.74,2.84,6.33,2.84,6.33l2.88-6.33,2.84,6.33,2.72-6.18C39.6,26.91,38,41.09,25.67,50.67Z"/><path class="cls-1" d="M4.47,20.89c.29.65.47,1.28,1.62,1.35a1.06,1.06,0,0,1-1.35,0A1.33,1.33,0,0,1,4.47,20.89Z"/><path class="cls-1" d="M3.56,24.52A1.47,1.47,0,0,0,5.27,25a.9.9,0,0,1-1.15.49A.85.85,0,0,1,3.56,24.52Z"/><path class="cls-1" d="M5,28.64a1.65,1.65,0,0,0,1.81-.46.89.89,0,0,1-.81,1A.89.89,0,0,1,5,28.64Z"/><path class="cls-1" d="M9.35,31.63A2.36,2.36,0,0,0,10.68,30s.18.95-.06,1.31C10.62,31.32,10.33,31.77,9.35,31.63Z"/><path class="cls-1" d="M9.24,32.6c.56-.2.67-.52.67-.52-.78.23-1.34.43-2-.25a1.21,1.21,0,0,0,.51.88A1.51,1.51,0,0,0,9.24,32.6Z"/><path class="cls-1" d="M12.35,32.2a12.8,12.8,0,0,1-.65,2.58c-.34.83-.82,2-.51,2.69,0,0,.26-.85.87-2.28A4.3,4.3,0,0,0,12.35,32.2Z"/><path class="cls-1" d="M12.1,38c-.33-.41-.38-.7,0-1.71a6,6,0,0,0,.58-1.9s.61.31-.06,1.81A4.4,4.4,0,0,0,12.1,38Z"/><path class="cls-1" d="M9.38,40a1.42,1.42,0,0,0,2.51-.18,1.26,1.26,0,0,1-1.21,1.31C9.64,41.2,9.38,40,9.38,40Z"/><path class="cls-1" d="M11,42.84a1.55,1.55,0,0,0,2.39,0,1.33,1.33,0,0,1-1.29,1A1.16,1.16,0,0,1,11,42.84Z"/><path class="cls-1" d="M13.54,38.12a3.71,3.71,0,0,0,.74,2.79,9.4,9.4,0,0,1,2.26,4.31s.36-1-1-3.43a18.34,18.34,0,0,0-1.12-1.51A6.24,6.24,0,0,1,13.54,38.12Z"/><path class="cls-1" d="M16.79,43.16a3.35,3.35,0,0,0,1.63,3.38,12,12,0,0,1-1-1.69A10.31,10.31,0,0,1,16.79,43.16Z"/><path class="cls-1" d="M19.2,54.36a3.78,3.78,0,0,0,2.13,1.79,1.8,1.8,0,0,1-1.46-.56A1.54,1.54,0,0,1,19.2,54.36Z"/><path class="cls-1" d="M19.18,53.66a2.23,2.23,0,0,0,1.51.78A1.82,1.82,0,0,1,22,55a5.27,5.27,0,0,0-1.47-.27A1.47,1.47,0,0,1,19.18,53.66Z"/><path class="cls-1" d="M5.39,20.79a1.13,1.13,0,0,1,.74-1.05c.53-.21,1.12-.42,1.18-.72,0,0,.06.63-.86,1S5.39,20.79,5.39,20.79Z"/><path class="cls-1" d="M9.62,18.9a9.2,9.2,0,0,1-1.78.94,12.8,12.8,0,0,0,3.25-3.34v.93A8.64,8.64,0,0,1,9.62,18.9Z"/><path class="cls-1" d="M8,22.78A3.74,3.74,0,0,1,9,21c.47-.57,1.42-1.32,1.53-1.86a3,3,0,0,1-1.06,2A9.9,9.9,0,0,0,8,22.78Z"/><path class="cls-1" d="M9.53,25.29a3.67,3.67,0,0,1,1.18-3.42A12.37,12.37,0,0,0,9.53,25.29Z"/><path class="cls-1" d="M40.32,38.72c.52.1,1.33.23,1.65-.69a.94.94,0,0,1-.56,1.1A.88.88,0,0,1,40.32,38.72Z"/><path class="cls-1" d="M40.5,39.42a1.47,1.47,0,0,0,1.55-.4.83.83,0,0,1-.62.78A.91.91,0,0,1,40.5,39.42Z"/><path class="cls-1" d="M37.58,43.22a1.79,1.79,0,0,0,2,.48,1.36,1.36,0,0,1-1.8.33Z"/><path class="cls-1" d="M39.63,44.55l-.68,0c.44-.11,1.42-.47,1.51-1.31,0,0,.06.93-.16,1.2A2.81,2.81,0,0,1,39.63,44.55Z"/><path class="cls-1" d="M41.06,21.41a8.1,8.1,0,0,0,.46,2.36c.42,1.74-.11,3.65,0,4.6a1.48,1.48,0,0,0,.73,1.28,3.2,3.2,0,0,1-.33-2.14c.29-2.41.24-3.28-.16-4.28S41.06,21.41,41.06,21.41Z"/><path class="cls-1" d="M40.8,19.24a3.72,3.72,0,0,0,.78,2.29,6.91,6.91,0,0,1,1.31,2.55,5.38,5.38,0,0,0-.8-2.7A6.55,6.55,0,0,1,40.8,19.24Z"/><path class="cls-1" d="M43,23a4.61,4.61,0,0,0-1-2.14,2.73,2.73,0,0,1-.76-2.07,4.54,4.54,0,0,0,1,1.55A3,3,0,0,1,43,23Z"/><path class="cls-1" d="M44,23.64a1.85,1.85,0,0,0,.22,1.51c.55.81.93,1,1,1.26A2.54,2.54,0,0,0,44.69,25,2.46,2.46,0,0,1,44,23.64Z"/><path class="cls-1" d="M41,16.66a6.82,6.82,0,0,0,1.51,1.23c.47.36,1.09,1.29.91,1.83a2.87,2.87,0,0,0-1.13-1.47C41.38,17.63,41,17.31,41,16.66Z"/><path class="cls-1" d="M44.35,18.7a2.1,2.1,0,0,1,.33,1.49,1,1,0,0,1-1,.72,1,1,0,0,0,1.39-.66C45.43,19.29,44.35,18.7,44.35,18.7Z"/><path class="cls-1" d="M42.37,32.71c.66.06,2.09,0,2.14-2.09a1.75,1.75,0,0,1-1.35,2.53Z"/><path class="cls-1" d="M39.08,33.58a4.52,4.52,0,0,0,.65,2.33c.81,1.21,1,1.79.91,2.14a2.63,2.63,0,0,0-.52-2.36A4.86,4.86,0,0,1,39.08,33.58Z"/><path class="cls-1" d="M38.22,36.61a3.28,3.28,0,0,0,0,3c.74,1.76,1,2.14.95,2.57,0,0,.53-.56-.53-2.75A5.71,5.71,0,0,1,38.22,36.61Z"/><path class="cls-1" d="M29.57,51.63a4.6,4.6,0,0,0,2.9-1.51,2,2,0,0,1-1.18,1.45C30.07,52.05,29.57,51.63,29.57,51.63Z"/><path class="cls-1" d="M32.94,53.88s0,0,0,0a2.48,2.48,0,0,1,.13-2A15.37,15.37,0,0,0,34,50a2.85,2.85,0,0,1-.47,1.86A3.81,3.81,0,0,0,32.94,53.88Z"/><path class="cls-1" d="M32.26,49.35a9.51,9.51,0,0,0-1.47.18c.55-.54,1.34-.6,2.68-.81a3,3,0,0,0,2.4-1.54,2.18,2.18,0,0,1-1.62,1.87A6.24,6.24,0,0,1,32.26,49.35Z"/><path class="cls-1" d="M36.05,49.14c.08.59.2,2,1.62,1.8a1.07,1.07,0,0,1-1.59-.15A1.85,1.85,0,0,1,36.05,49.14Z"/><path class="cls-1" d="M37.35,51.51c-.44.3-1.75.54-2-1.26,0,0-.52,1.21.36,1.83S37.35,51.51,37.35,51.51Z"/><path class="cls-1" d="M35,46.37a12.79,12.79,0,0,0,.29-2,3,3,0,0,1,1-2.07,7.59,7.59,0,0,0-.62,2A4.26,4.26,0,0,1,35,46.37Z"/><path class="cls-1" d="M30.92,55.2a5.27,5.27,0,0,1-1.49,1,9.26,9.26,0,0,0,1.25-1.32,9.73,9.73,0,0,0,1.44-2.25L32,53.84A7.73,7.73,0,0,1,30.92,55.2Z"/><path class="cls-1" d="M45.25,22.21c.53-.08,2-.64.94-2.93a2,2,0,0,1,.71,2.29A1.33,1.33,0,0,1,45.25,22.21Z"/><path class="cls-1" d="M48,23.94l0,0a1,1,0,0,1-.71,1.2,1,1,0,0,1-1-.38,1,1,0,0,0,1.47.72A1.18,1.18,0,0,0,48,23.94Z"/><path class="cls-1" d="M3.18,15.25a6.08,6.08,0,0,0-.61,1.06,1.54,1.54,0,0,1,1.49-1.88A3.57,3.57,0,0,0,3.18,15.25Z"/><path class="cls-1" d="M4.41,15.22a5.47,5.47,0,0,0-.8.9,1.53,1.53,0,0,1,1.83-1.54A3.6,3.6,0,0,0,4.41,15.22Z"/><path class="cls-1" d="M7.7,15.66a2.52,2.52,0,0,1,2.61-1.79,8.57,8.57,0,0,0-1.51.75A11.08,11.08,0,0,0,7.7,15.66Z"/><path class="cls-1" d="M7.85,13.32A13.62,13.62,0,0,0,10,12.83a4,4,0,0,1,2.06-.16,8.53,8.53,0,0,0-1.78.48C8.26,13.82,7.85,13.32,7.85,13.32Z"/><path class="cls-1" d="M17.2,11.77s.87-.52.89-1.1l.44-.15.35-.08S18.19,11.71,17.2,11.77Z"/><path class="cls-1" d="M11.19,10.91a2.21,2.21,0,0,1,1.17.17,8.1,8.1,0,0,0,1.45.67,2,2,0,0,1-1.49-.37A4.43,4.43,0,0,0,11.19,10.91Z"/><path class="cls-1" d="M47.54,13.51a1.26,1.26,0,0,1,1.05,1c.2.52.41.53.5.56s-.52.25-.94-.81A2,2,0,0,0,47.54,13.51Z"/><path class="cls-1" d="M46,13.37a2.35,2.35,0,0,1,1.65,1.15,2.67,2.67,0,0,0,1.07,1,2.47,2.47,0,0,1-1.46-.92A4.49,4.49,0,0,0,46,13.37Z"/><path class="cls-1" d="M44.13,5.1a3,3,0,0,0,1.16,1.71,2.64,2.64,0,0,1,1,2.12,7.36,7.36,0,0,0-1.31-1.85A1.84,1.84,0,0,1,44.13,5.1Z"/><path class="cls-1" d="M46.66,7.4a13.37,13.37,0,0,0-.51-1.52A2.33,2.33,0,0,1,46.85,9,6.63,6.63,0,0,0,46.66,7.4Z"/><path class="cls-1" d="M39.39,6.74a4.45,4.45,0,0,0,1.72-.4,2.48,2.48,0,0,1,2,0,4.55,4.55,0,0,0-1.87.34C39.82,7.36,39.39,6.74,39.39,6.74Z"/><path class="cls-1" d="M40.32,5.23a2,2,0,0,1,2.85.59,3.78,3.78,0,0,0-1.42-.54A4.28,4.28,0,0,0,40.32,5.23Z"/><path class="cls-1" d="M39.56,4.74A2.9,2.9,0,0,0,37.35,5a2.77,2.77,0,0,1,2.85-.56Z"/><path class="cls-1" d="M41.16,8a3.18,3.18,0,0,0,1.46-.47,2,2,0,0,1,2,.33A2.52,2.52,0,0,0,42.88,8,2.52,2.52,0,0,1,41.16,8Z"/><path class="cls-1" d="M46.23,3.19a6.37,6.37,0,0,0,1.09.89,1.53,1.53,0,0,1,.5,1.27,3,3,0,0,0-.93-1.08A1.21,1.21,0,0,1,46.23,3.19Z"/><path class="cls-1" d="M103.74,10.28c-.15,0-.2.05-.2.09s.26.19.33.19a3.3,3.3,0,0,0,1.19-.2c.28-.1,1-.63,1-.89a.28.28,0,0,0-.14-.23,2.64,2.64,0,0,0-1.31-.54c-.35,0-.74.42-.92.74a.34.34,0,0,0,0,.14c0,.05,0,.07.08.07a.52.52,0,0,0,.23-.09.78.78,0,0,1,.43-.14,1.25,1.25,0,0,1,.75.32C105.08,9.89,104.07,10.24,103.74,10.28Z"/><path class="cls-1" d="M104.69,11a5.46,5.46,0,0,0-.66.76c0,.06,0,.07,0,.12a3.59,3.59,0,0,0,.85.74c.05,0,.07,0,.11,0,.19-.2.6-.65.72-.81s.06-.06,0-.09a6,6,0,0,1-.88-.76S104.79,11,104.69,11Z"/><path class="cls-1" d="M109.58,16.67s-.06,0-.14,0-.32.34-.45.48a3,3,0,0,1-.57-.51c0-.06-.08-.07-.12,0a7.68,7.68,0,0,0-.57.61c0,.06-.06.08,0,.13a2.51,2.51,0,0,0,.61.57c.08.05.11,0,.16,0a5.18,5.18,0,0,0,.47-.47,4.9,4.9,0,0,0,.57.51c.06,0,.07,0,.12,0,.18-.21.36-.41.55-.6s.07-.08,0-.13A4.8,4.8,0,0,1,109.58,16.67Z"/><path class="cls-1" d="M107.6,17.41a2.66,2.66,0,0,0,.21-.92,4.9,4.9,0,0,0,0-.5c0-.13,0-.27,0-.34h.07a1.5,1.5,0,0,0,1.45-1.56V13.9c0-.28-.12-.49-.23-.5s-.12.1-.16.33a.86.86,0,0,1-.85.78H108a1.15,1.15,0,0,1-.69-.51s0-.06-.08-.07-.07,0-.09.09a3,3,0,0,0-.32,1s0,.06,0,.08a4.45,4.45,0,0,1,.44,1.9c-.35.85-2,1.32-3.17,1.29a2.46,2.46,0,0,1-1.34-.41,1.36,1.36,0,0,1-.65-1.07,2.73,2.73,0,0,1,.42-1.31.83.83,0,0,0,.14-.32c0-.07,0-.11-.06-.11s-.19.09-.33.31a3.41,3.41,0,0,0-.65,1.88,2.3,2.3,0,0,0,.43,1.43,2.13,2.13,0,0,0,1.74.79,4.38,4.38,0,0,0,3.19-1.1A2.76,2.76,0,0,0,107.6,17.41Z"/><path class="cls-1" d="M109.94,13.09,112,12a.79.79,0,0,0,.26-.65s0-.05-.06,0l-1.84,1a1,1,0,0,0-.35.27,1.17,1.17,0,0,0-.12.48S109.9,13.11,109.94,13.09Z"/><path class="cls-1" d="M115.26,11.31c-.14,0-.2,0-.2.09s.26.2.33.2a3.71,3.71,0,0,0,1.19-.2c.28-.1,1-.63,1-.9,0-.06,0-.13-.15-.23a2.6,2.6,0,0,0-1.3-.54c-.36,0-.74.42-.92.74a.26.26,0,0,0,0,.14.07.07,0,0,0,.08.08.52.52,0,0,0,.23-.09.65.65,0,0,1,.43-.14,1.16,1.16,0,0,1,.74.31C116.61,10.92,115.59,11.28,115.26,11.31Z"/><path class="cls-1" d="M129.82,12.55l2.07-1.1a.82.82,0,0,0,.26-.65c0-.05,0-.05-.07,0l-1.83,1a.85.85,0,0,0-.35.26,1.22,1.22,0,0,0-.13.49S129.78,12.57,129.82,12.55Z"/><path class="cls-1" d="M129.7,17.11s0,0-.11.05a4.16,4.16,0,0,0-.51.59c0,.05,0,.05,0,.09a2.83,2.83,0,0,0,.66.57s.05,0,.09,0l.55-.62s0-.06,0-.08A4.23,4.23,0,0,1,129.7,17.11Z"/><path class="cls-1" d="M134.33,9.6s0,0,0-.07a.3.3,0,0,0-.05-.15,3,3,0,0,1-.39-.91c0-.07,0-.1-.08-.11s-.22.2-.36.45a2.15,2.15,0,0,0-.28.65.49.49,0,0,0,0,.12c0,.23.16.85.17,1.05.1,1.75.37,3.55.37,4.41a.63.63,0,0,1-.35.2,2.12,2.12,0,0,1-.73.09h-.1a1.06,1.06,0,0,1-.24,0,.8.8,0,0,1-.66-.68c0-.26,0-.36-.11-.36s-.12,0-.25.24a1.7,1.7,0,0,1-1.63.76h-.81a3.48,3.48,0,0,1-.92-.17c-.29-.1-.43-.23-.43-.41.32,0,.46.05.73.06h.21a.08.08,0,0,0,.07,0,2.15,2.15,0,0,0,.56-.91s0,0,0,0h-.22a8.42,8.42,0,0,1-1.69-.22c-.9-.19-2-.7-2.93-.92l-.23,0a1,1,0,0,0-.7.27,1.61,1.61,0,0,0-.62.9c0,.08,0,.11.09.11a1.42,1.42,0,0,0,.41-.14.9.9,0,0,1,.3,0,11.87,11.87,0,0,1,2.24.63,14.32,14.32,0,0,1-1.93.66c-.47.13-8.7,1.45-12-.46-.23-.14-.2-.33-.28-.33s-.08,0-.14.11a2.39,2.39,0,0,0-.3.9c0,.06,0,.11,0,.13s.62.68.62.95a3.6,3.6,0,0,1-3.33,2.39l-.63-.05c-.12,0-.19,0-.19.1s0,.12.2.2a5,5,0,0,0,1.73.55,1.51,1.51,0,0,0,.61-.12,3.64,3.64,0,0,0,1.81-2.12,2.77,2.77,0,0,0,.21-1c0-.06,0-.12,0-.17a27.84,27.84,0,0,0,11.21,0,19.12,19.12,0,0,0,1.76-.77,9.76,9.76,0,0,1,1-.42,2.66,2.66,0,0,1,1.18-.16,1.94,1.94,0,0,0,.34,1.28,1.85,1.85,0,0,0,1.35.44h.47a.58.58,0,0,0,.19,0,1.87,1.87,0,0,0,1.6-.77,1.37,1.37,0,0,0,1.06.84,1.68,1.68,0,0,0,.29,0h.12a1.28,1.28,0,0,0,1.13-.49,3.47,3.47,0,0,0,.54-2c0-.82-.22-2.2-.27-3.88A3.12,3.12,0,0,0,134.33,9.6Z"/><path class="cls-1" d="M136.74,8.44c-.07,0-.17.15-.24.26a3.1,3.1,0,0,0-.45,1.21c0,.68.45,4.82.42,6.31,0,.25,0,.33.06.33s.18-.19.32-.56a5.79,5.79,0,0,0,.21-1.7c0-1.83-.21-4.38-.24-5.45C136.81,8.54,136.8,8.45,136.74,8.44Z"/><path class="cls-1" d="M141,10.31c.09.06.12,0,.19,0a5.49,5.49,0,0,0,.6-.54c.23.25.49.49.67.65s.09.06.14,0c.24-.25.47-.48.72-.71.09-.07.09-.09,0-.15a5.22,5.22,0,0,1-.71-.76s-.08,0-.17.05a7.3,7.3,0,0,0-.59.56,3.43,3.43,0,0,1-.66-.66c-.07-.08-.1-.09-.16,0-.26.23-.53.5-.73.71s-.07.1,0,.16A3.38,3.38,0,0,0,141,10.31Z"/><path class="cls-1" d="M145.53,10.43l4.33-1.93a.71.71,0,0,0,.28-.17,1.07,1.07,0,0,0,.2-.53s0-.06,0,0L146,9.7a.73.73,0,0,0-.33.22,1.12,1.12,0,0,0-.18.48S145.51,10.44,145.53,10.43Z"/><path class="cls-1" d="M161.81,9.68l2.06-1.12a.8.8,0,0,0,.26-.64s0-.06-.07,0l-1.83,1c-.2.12-.29.18-.34.27a1.22,1.22,0,0,0-.13.49S161.77,9.7,161.81,9.68Z"/><path class="cls-1" d="M167.68,13c-.15,0-.21.06-.21.1s.26.19.34.19a3.83,3.83,0,0,0,1.19-.21c.27-.11.94-.64.94-.9a.3.3,0,0,0-.15-.23,2.51,2.51,0,0,0-1.3-.53c-.36,0-.74.43-.92.74a.39.39,0,0,0,0,.14.07.07,0,0,0,.08.08.52.52,0,0,0,.23-.09.72.72,0,0,1,.43-.15,1.26,1.26,0,0,1,.75.31C169,12.62,168,13,167.68,13Z"/><path class="cls-1" d="M170.74,12.44l4.2-2.18a.72.72,0,0,0,.27-.2,1.11,1.11,0,0,0,.17-.54s0,0,0,0l-4.18,2.19a.85.85,0,0,0-.32.24,1.05,1.05,0,0,0-.15.49C170.68,12.46,170.71,12.45,170.74,12.44Z"/><path class="cls-1" d="M174.41,13.52a1.5,1.5,0,0,0-1.1.73l-.63,1a1.69,1.69,0,0,1-1.46.7h-.09c-.48,0-1.42-1-1.88-1.46a.39.39,0,0,0-.28-.14c-.29,0-.56.4-1,.79a2.3,2.3,0,0,1-1.72.75h-.13a.75.75,0,0,1-.46-.17,1,1,0,0,1-.39-.72c-.16-1.6-.19-3.87-.29-5.58,0-.27-.07-.36-.12-.37s-.16.14-.24.3a1.69,1.69,0,0,0-.28.84c.06,2.3.11,3.83.1,4.56a1.18,1.18,0,0,1-.25.9.92.92,0,0,1-.65.21h-.35a2.09,2.09,0,0,1-1.08-.19l-.51.23a1.27,1.27,0,0,0,.23.68,1.26,1.26,0,0,0,1,.4h.73a.62.62,0,0,0,.25-.05,1.25,1.25,0,0,0,.88-1.11A1.46,1.46,0,0,0,166.12,17h.21a1.28,1.28,0,0,0,1.09-.68,4.06,4.06,0,0,0,2.05,1.1c.2,0,.6-.42.69-.75a1.66,1.66,0,0,0,1,.4h.1c.61,0,1.15-.38,1.67-1.27a4,4,0,0,0,1.86,1c.26,0,.8-.67.81-1.18S175.25,13.53,174.41,13.52Zm-4.88,2.72a4,4,0,0,1-.76-.3c-.44-.22-.58-.3-.58-.38s.05-.1.14-.18.16-.14.27-.14a1,1,0,0,1,.53.33,3.35,3.35,0,0,1,.47.6A.07.07,0,0,1,169.53,16.24Zm3.95-1.34a1.25,1.25,0,0,1,.15-.24c.09-.12.15-.16.24-.16.33,0,.81.69.83,1.09C174.42,15.42,173.7,15,173.48,14.9Z"/><path class="cls-1" d="M161.89,16.42a.62.62,0,0,1-.15-.22l.25,0c.45,0,.83-1.1.89-1.27a1.49,1.49,0,0,0,.08-.4,1.2,1.2,0,0,0-.15-.61,2.22,2.22,0,0,0-1.92-.89c-1.19-.08-3.2.06-4.67.13a70.28,70.28,0,0,1-7.4,0,8.48,8.48,0,0,1-1.68-.24c-.36-.11-.59-.23-.59-.33.13-.39,2.2-1.56,3.78-2a4.6,4.6,0,0,1,1.08-.18.43.43,0,0,0,.43-.31L152,9.8a1.83,1.83,0,0,0,.11-.35c0-.1,0-.14-.15-.15a2.14,2.14,0,0,0-.45,0c-2.11.31-5.6,2.26-5.71,3.86a.62.62,0,0,0,.35.54,5,5,0,0,0,2.27.57c.89.06,2.81,0,4.18,0s2.53-.09,3.73-.15c2.37-.12,3.58-.19,4.19-.14.82.05,1.36.32,1.57.78a.72.72,0,0,1,.09.32c-.06,0-1.29.06-1.92.11-1.67.1-3.33.2-5,.26a104.85,104.85,0,0,1-11.06-.16h-.08a1.18,1.18,0,0,1-.58-.27,1.77,1.77,0,0,1-.66-1.11c-.09-.52-.12-1.37-.21-2.39,0-.2-.06-.28-.11-.28s-.13.1-.22.23a1.14,1.14,0,0,0-.22.59,2.24,2.24,0,0,0,0,.26c-.28.18-1,.53-1.21.7-.56.39-.72.54-1,1.64,0,.26.29.34.66.37a2.36,2.36,0,0,0,1.31-.21,1.33,1.33,0,0,0,.45-.47,2.25,2.25,0,0,0,.57,1.54,1.7,1.7,0,0,0,.93.49.28.28,0,0,0,.13,0h.18c2.75.19,7.12.22,9.92.16,2.63-.06,5.46-.24,7.68-.43l.17.23Zm-20.73-2.5c-.22,0-.36-.07-.36-.14a6.48,6.48,0,0,1,1.35-.84c0,.39.07.51.09.81A2.57,2.57,0,0,1,141.16,13.92Z"/><path class="cls-1" d="M105.84,41.08c-.17.43-.31.82-.48,1.21a1.18,1.18,0,0,1-.56.54c-.59.33-1.17.68-1.75,1l-.14.1a3.41,3.41,0,0,0,1.77.83,4.87,4.87,0,0,0,2-.29,8.86,8.86,0,0,0,1.86-1c.43-.29.89-.52,1.33-.78l.16-.07c.23-.08.32,0,.27.25a2.42,2.42,0,0,1-.1.36.82.82,0,0,0,.51,1,2.07,2.07,0,0,0,1.23.1c.27,0,.54-.13.8-.2a2.36,2.36,0,0,0,1-.75.78.78,0,0,0,.17-.57c0-.62,0-1.25-.14-1.87-.18-1.32-.4-2.64-.6-4-.16-1-.34-2-.48-3-.12-.81-.22-1.64-.32-2.46-.07-.56-.14-1.12-.19-1.69s-.15-1.39-.2-2.09a3.09,3.09,0,0,0-.24-.95.81.81,0,0,1,0-.51c.08-.3.16-.61.26-.91a1.76,1.76,0,0,1,.18-.39h.07s0,0,0,0a.3.3,0,0,1,.08.08c.5,1,1,2.05,1.45,3.13-.17.17-.32,0-.46,0s-.14-.13-.22-.18a2.44,2.44,0,0,0-.32-.19c0,.27,0,.47,0,.68.08.71.14,1.43.24,2.15.11.92.25,1.84.39,2.76.09.63.18,1.25.28,1.88.15,1,.3,2.07.46,3.1.07.52.15,1,.22,1.57a8.52,8.52,0,0,1-.48,4.27,3,3,0,0,1-1,1.32,2.57,2.57,0,0,1-1.22.49,3.29,3.29,0,0,1-1,0,1.35,1.35,0,0,1-1.16-1.45,1.25,1.25,0,0,0,0-.15,3.37,3.37,0,0,0-.32.14l-1.84,1.09c-.33.2-.66.42-1,.6a3,3,0,0,1-2.07.22,6.92,6.92,0,0,1-1-.29A3.13,3.13,0,0,1,101.73,45l-.08-.12-.05,0a2.21,2.21,0,0,1-.36.23c-1,.51-1.91,1-2.88,1.5a15.61,15.61,0,0,1-1.63.69,6.5,6.5,0,0,1-1.16.26q-1.11.2-2.22.33c-.71.09-1.43.14-2.15.21l-.36.06a11.3,11.3,0,0,1-1.93,0,9.28,9.28,0,0,1-3.41-1,7.08,7.08,0,0,1-1.6-1,5.91,5.91,0,0,1-1.13-1.21,9,9,0,0,1-1.38-3.27l0-.11,0-.13a3.94,3.94,0,0,0-.14.4,5.24,5.24,0,0,1-.52,1.61,3.22,3.22,0,0,1-1,1.08,1.35,1.35,0,0,1-.85.16,2,2,0,0,1-1.54-.82l-.2-.2a.39.39,0,0,0-.37-.09,2.37,2.37,0,0,0-1.24.72c-.25.25-.45.54-.68.82a.61.61,0,0,0-.09.65c.13.28.29.56.43.84a.21.21,0,0,0,.29.1l.91-.31a3.44,3.44,0,0,1,1.8-.12,1.46,1.46,0,0,1,.92.63.89.89,0,0,1,.13.63c0,.25,0,.52-.09.77s-.09.45-.15.67-.17.47-.24.71a.78.78,0,0,1-.67.58,1.87,1.87,0,0,1-1.3-.31,6.19,6.19,0,0,1-1.59-1.25.32.32,0,0,0-.42-.11c-.39.17-.8.32-1.17.52-.55.3-1.07.65-1.61,1l-1.82,1.07-.48.3-.71.41a.94.94,0,0,1-.32.11.56.56,0,0,1-.23-.06l-.07.23a1.49,1.49,0,0,1-.25.07l-1.28.07a1.84,1.84,0,0,1-1-.24,2.15,2.15,0,0,1-1.07-1,2.8,2.8,0,0,0-.14-.25A2.38,2.38,0,0,1,64.33,49a6.06,6.06,0,0,1,.78-2.14,15.17,15.17,0,0,1,1-1.48A3.53,3.53,0,0,0,66.3,45a1.14,1.14,0,0,0-.14-.16,2.9,2.9,0,0,1-.87-1.49,6.37,6.37,0,0,1-.23-1.79c0-.55,0-1.1,0-1.65,0-.36.09-.73.12-1.09,0-.52.06-1,.12-1.57a8.85,8.85,0,0,1,.41-2c.1-.28.18-.57.26-.85l.45-1.64a1.42,1.42,0,0,1,.12-.25c.16.06.16.15.13.27l-.15.7c-.27,1.23-.56,2.45-.82,3.68a11.2,11.2,0,0,0-.23,2.24c0,.59,0,1.19.08,1.78A2.44,2.44,0,0,0,66,42.57c.11.15.19.33.31.47a.62.62,0,0,0,.89.13,2.75,2.75,0,0,0,1.11-1.56,3.21,3.21,0,0,1,.12-.31.25.25,0,0,1,.12.3A14.55,14.55,0,0,1,68,43.41c-.16.31-.31.62-.48.92,0,.05,0,.15-.14.09s-.08,0-.09.07a.76.76,0,0,1-.62.59.36.36,0,0,0-.23.19c-.34.56-.7,1.12-1,1.69a13.07,13.07,0,0,0-.58,1.19c-.09.21-.15.43-.23.65a1,1,0,0,0,0,.65,1.92,1.92,0,0,0,1.55,1.37,3.34,3.34,0,0,0,1.5-.13,9.22,9.22,0,0,0,2.14-1c1.19-.67,2.35-1.4,3.53-2.1.29-.17.6-.31.9-.47a4.36,4.36,0,0,1,0-.79,16.55,16.55,0,0,1,.29-1.85A3.4,3.4,0,0,1,75.34,43a5.79,5.79,0,0,1,.81-.76,2.83,2.83,0,0,1,.75-.34.56.56,0,0,1,.71.26,3.7,3.7,0,0,0,.33.36,1.92,1.92,0,0,0,1.81.39.91.91,0,0,0,.4-.21,2.53,2.53,0,0,0,.94-1.5.32.32,0,0,1,0-.14,2.33,2.33,0,0,0,0-1.2,18.25,18.25,0,0,1-.2-2.09c0-.34-.05-.67-.07-1,0-.7-.24-1.37-.3-2.07,0-.33,0-.67-.08-1,0-.09,0-.18,0-.28-.08-.47-.16-.94-.23-1.42s-.14-.77-.19-1.16c0-.21,0-.42,0-.63s0-.3-.06-.45c-.08-.46-.15-.91-.23-1.36s-.14-.84-.2-1.25a1.61,1.61,0,0,1,0-.49c.06-.39.15-.77.23-1.16a1.11,1.11,0,0,1,.09-.19c.15,0,.18.08.19.19s.07.53.11.79c.12.83.24,1.66.35,2.49.07.5.12,1,.19,1.51.1.71.22,1.41.32,2.11.07.48.1,1,.17,1.46.08.65.18,1.29.27,1.94a3.53,3.53,0,0,1,0,.46.86.86,0,0,0,0,.23,5.09,5.09,0,0,1,.21,1.39c.06.63.09,1.26.17,1.89a6.66,6.66,0,0,0,.53,1.94,8.47,8.47,0,0,0,1.45,2.23A4.89,4.89,0,0,0,85.16,45c.18.1.37.2.54.31a7.56,7.56,0,0,0,2.63,1l.58.12a.51.51,0,0,0,.17,0l1.1,0c.42,0,.84,0,1.25,0a17.35,17.35,0,0,0,2.14-.26c.56-.13,1.13-.24,1.69-.36.39-.08.78-.15,1.17-.25a4.24,4.24,0,0,0,.5-.18l.7-.25a11.53,11.53,0,0,0,1.68-.76,7.33,7.33,0,0,1,.8-.38l.81-.38c-.32-.28-.49-.64-.88-.76a.27.27,0,0,1-.12-.09,2.15,2.15,0,0,0-.86-.72L99,42a1.1,1.1,0,0,0-1-.15,13.63,13.63,0,0,0-1.49.56s0-.12,0-.15a1.84,1.84,0,0,0,.21-.75c.2-1,.23-.91,1-1.34a4.47,4.47,0,0,1,1.19-.38,8.71,8.71,0,0,1,1.11-.22,6.28,6.28,0,0,1,1,0c.29,0,.58.06.87.1a8.66,8.66,0,0,1,.87.12c.41.09.81.2,1.21.31a5,5,0,0,1,1.38.66ZM102,43a13.27,13.27,0,0,0,1.65-1.07,6.22,6.22,0,0,0-3-.48Zm-25.4,4.89.09.13a3.13,3.13,0,0,0,1.22.58,1.24,1.24,0,0,0,.54,0c.15,0,.17-.15.06-.27a1.17,1.17,0,0,0-.71-.41A4,4,0,0,0,76.59,47.84Z"/><path class="cls-1" d="M148.74,42.8a1.15,1.15,0,0,1-.07.69.42.42,0,0,0,.06.43c.12.11.11.29.27.38a3.71,3.71,0,0,0,1.17.56,3.45,3.45,0,0,0,2.43-.46c.24-.14.27-.19.13-.44s-.46-.78-.71-1.15a.64.64,0,0,1-.15-.51c.08-.38.16-.77.25-1.15,0-.08,0-.22.16-.2a.33.33,0,0,1,.19.14,9.53,9.53,0,0,1,.62.94,2.61,2.61,0,0,1,.27,2.16c-.05.13-.06.28-.1.42a1.38,1.38,0,0,1-.25.6.74.74,0,0,0-.14.28.93.93,0,0,1-.41.53,3.35,3.35,0,0,1-1.07.49,3.45,3.45,0,0,1-1.91,0,3.29,3.29,0,0,1-1.08-.64.94.94,0,0,1-.33-.74,3.44,3.44,0,0,0,0-.35c-.13.08-.23.12-.32.19-.29.22-.57.46-.87.67-.49.34-1,.69-1.5,1a12.33,12.33,0,0,1-1.47.8,16.78,16.78,0,0,1-1.6.56.45.45,0,0,1-.28,0,.53.53,0,0,0-.39,0,6.08,6.08,0,0,1-1.69.18,8.6,8.6,0,0,1-2.66-.42,3.34,3.34,0,0,1-1.79-1.39,2.09,2.09,0,0,0-.23-.29.59.59,0,0,0-.69-.18,4.46,4.46,0,0,0-.63.28,1,1,0,0,0-.33.29,5.07,5.07,0,0,0-.93,1.8c-.12.44-.3.87-.46,1.3l-.09.28a4.49,4.49,0,0,1-.46,1.11,1.12,1.12,0,0,1-1.18.59,4,4,0,0,1-.81-.44,1.38,1.38,0,0,1-.32-.36c-.26-.42-.52-.84-.74-1.27a5,5,0,0,1-.53-1.85c-.05-.5-.07-1-.1-1.52,0-.05,0-.11,0-.21l-.21.12c-.42.31-.85.63-1.28.93s-.77.54-1.16.8-.65.4-1,.6-.87.53-1.32.78-.85.48-1.29.69a10.48,10.48,0,0,1-1.3.54c-.44.15-.91.25-1.36.36s-.93.18-1.38.29-1,.25-1.51.38a1.93,1.93,0,0,1-.59.18.28.28,0,0,1-.33-.25,2.07,2.07,0,0,1,.32-.19c.77-.31,1.55-.58,2.31-.9.6-.25,1.17-.56,1.75-.83.22-.11.46-.18.69-.29.45-.23.91-.45,1.35-.71.78-.45,1.55-.92,2.31-1.39s1.26-.78,1.87-1.2a12,12,0,0,0,2.42-2.13l.07-.09c.34-.52.32-.4.1-1a.35.35,0,0,0-.36-.28c-.3,0-.61,0-.91,0s-.67.14-1,.17a1.84,1.84,0,0,1-1-.21.84.84,0,0,1-.41-.66,5.54,5.54,0,0,1,.08-1.35c0-.19.06-.38.1-.57a1.76,1.76,0,0,1,.73-1.07,1.3,1.3,0,0,1,1.46-.11,4.38,4.38,0,0,1,1.86,2,2.83,2.83,0,0,1,.39,1.52,10,10,0,0,1-.2,1.22,6.11,6.11,0,0,1-.83,2.17.48.48,0,0,0,0,.27,5.54,5.54,0,0,0,.07.57,1.36,1.36,0,0,0,0,.29c.16.62.32,1.24.5,1.86a2.77,2.77,0,0,0,.29.6,1.72,1.72,0,0,0,1.18.75.71.71,0,0,0,.64-.26,4.43,4.43,0,0,0,1.06-1.86c.15-.4.24-.83.42-1.22a6.1,6.1,0,0,1,1.07-1.64,1.53,1.53,0,0,1,.38-.29,2.76,2.76,0,0,1,1.05-.38.71.71,0,0,1,.61.3c.13.16.23.34.36.49a4,4,0,0,0,.62.68,3.28,3.28,0,0,0,1,.49,6.92,6.92,0,0,0,2.21.37l1.35,0a6.78,6.78,0,0,0,1.6-.32,11.15,11.15,0,0,0,2.59-1.1c.71-.42,1.38-.9,2-1.38l.83-.62A.55.55,0,0,1,148.74,42.8Zm-23.28-2.31a2.08,2.08,0,0,0,1.76,0C126.54,39.92,125.87,39.91,125.46,40.49Z"/><path class="cls-1" d="M163.42,24.47c.12.19.22.32.3.47a6.46,6.46,0,0,1,.61,1.4,4,4,0,0,0,.21.41l.57,1.31a.9.9,0,0,1,0,.18c-.24,0-.35-.21-.55-.24a.71.71,0,0,1-.49-.36,1.16,1.16,0,0,0,0,.27l.36,2.6c.08.62.16,1.23.26,1.85s.22,1.37.33,2,.21,1.25.3,1.88.23,1.52.31,2.28c.12,1.11.37,2.2.53,3.3a7.69,7.69,0,0,1,0,1.27,6,6,0,0,1-.07.74,2.42,2.42,0,0,1-.13.53,4.68,4.68,0,0,1-.67,1.43,1.83,1.83,0,0,1-.47.45,4.49,4.49,0,0,1-.91.44,1.84,1.84,0,0,1-1.9-.43,2.93,2.93,0,0,1-.87-1.37c-.22-.63-.36-1.3-.53-2-.11-.42-.22-.85-.34-1.28a3.3,3.3,0,0,0-.19-.43H160c0,.09-.09.18-.12.27s-.12.46-.19.7a4.11,4.11,0,0,1-.57,1.22,2.06,2.06,0,0,1-1.09.76l-.21.05a1.36,1.36,0,0,1,0,.2c0,.29-.07.59-.11.89a8.47,8.47,0,0,1-.28,1.4,4,4,0,0,1-1.62,2.37c-.32.22-.6.49-.92.7-.64.39-1.29.76-1.94,1.13a10.31,10.31,0,0,1-2.2.91c-.28.09-.53.23-.8.34a5.27,5.27,0,0,1-.51.19c-.38.1-.77.21-1.15.27s-.84.06-1.27.09-.86,0-1.29.11-1.14.24-1.71.37h-.09c-.21,0-.29,0-.33-.13a.27.27,0,0,1,.21-.37c.6-.18,1.22-.35,1.82-.55l2.18-.77c.16,0,.32-.11.49-.15a19.23,19.23,0,0,0,2.44-.89,17,17,0,0,0,2.36-1.13c.72-.41,1.45-.8,2.14-1.25a17.31,17.31,0,0,0,1.53-1.18,2.38,2.38,0,0,0,.4-.49.87.87,0,0,0,.09-.67,4.24,4.24,0,0,0-.45-1.34,11.76,11.76,0,0,0-.62-1,1.23,1.23,0,0,1-.23-1,7.53,7.53,0,0,0,.11-.83,1.05,1.05,0,0,1,.05-.19c0-.11.13-.12.22,0a.45.45,0,0,1,.1.13c.12.19.24.37.35.57a1.27,1.27,0,0,0,1.57.49,1.72,1.72,0,0,0,1.06-1c.18-.44.32-.9.47-1.36a3.62,3.62,0,0,1,.13-.35.66.66,0,0,1,.41-.35c.07.18.17.34.22.52.2.73.38,1.47.57,2.21a6.29,6.29,0,0,0,.74,2,2.82,2.82,0,0,0,.67.71,1.83,1.83,0,0,0,1.62.23,2.68,2.68,0,0,0,1.09-.52.47.47,0,0,0,.17-.37,8.45,8.45,0,0,0-.15-1.58c-.14-.71-.23-1.44-.33-2.16-.14-1-.27-1.91-.41-2.86-.1-.69-.22-1.39-.33-2.08-.13-.87-.27-1.73-.39-2.6-.11-.72-.21-1.45-.3-2.17s-.19-1.37-.27-2.06-.12-1.21-.2-1.81a1,1,0,0,0-.13-.37.61.61,0,0,1-.08-.57c.12-.34.21-.68.33-1A1.6,1.6,0,0,1,163.42,24.47Z"/><path class="cls-1" d="M108.81,26a.94.94,0,0,1-.07.26c-.16.26-.33.51-.51.76a.26.26,0,0,1-.14.09l-1.47.68-1.9.83-2.67,1.11-2.4,1-3.3,1.46L94.43,33a.5.5,0,0,0-.32.37,7,7,0,0,0-.3,2.28,2.75,2.75,0,0,0,.29,1.23,1.71,1.71,0,0,0,.32.44A.69.69,0,0,0,95.54,37a3.39,3.39,0,0,1,.15-.52.57.57,0,0,1,.28-.4,1.27,1.27,0,0,1,0,.32c0,.26-.08.53-.13.79a.19.19,0,0,1,0,.13,2,2,0,0,0-.32.61,1.76,1.76,0,0,1-.27.4.77.77,0,0,1-1.25,0,2.45,2.45,0,0,1-.49-1.09,5.54,5.54,0,0,1,0-2.07c.08-.52.21-1,.31-1.55,0-.07,0-.15,0-.26l-1.36.58c-1.13.47-2.19,1.08-3.27,1.65-.8.43-1.6.84-2.39,1.27a6,6,0,0,0-.55.38.36.36,0,0,1,0-.11,2.34,2.34,0,0,1,0-.26c.26-1,.13-.74.91-1.17s1.56-.8,2.33-1.2c.19-.1.38-.19.57-.3a.27.27,0,0,0,.14-.16.44.44,0,0,1,.28-.3L93,32.59,94.27,32l1.89-.77,2.68-1.09c1.51-.61,3-1.28,4.54-1.85.9-.34,1.77-.75,2.66-1.13.35-.15.71-.29,1.06-.45a4.47,4.47,0,0,0,.88-.43A4.1,4.1,0,0,1,108.81,26Z"/><path class="cls-1" d="M154.83,25.57a1.15,1.15,0,0,1-.06.24c-.17.27-.34.53-.52.79a.43.43,0,0,1-.15.09c-.44.21-.88.43-1.32.62l-2.57,1.12c-.7.29-1.41.57-2.11.87-.9.37-1.8.73-2.69,1.12l-5.09,2.26c-.81.36-1.63.7-2.43,1.08s-1.5.78-2.25,1.16c-.51.26-1,.5-1.52.77s-1,.56-1.51.85a3.54,3.54,0,0,0-.33.28,1.77,1.77,0,0,1,0-.2.2.2,0,0,1,0-.11c.2-.85.19-.87,1-1.28s1.54-.78,2.31-1.18,1.45-.77,2.18-1.13c.52-.25,1.06-.46,1.59-.69l2.48-1.1c1-.46,2.07-.93,3.12-1.37,1.45-.61,2.92-1.19,4.38-1.79l3.05-1.31c.36-.15.73-.29,1.09-.45.2-.09.38-.22.58-.31S154.51,25.7,154.83,25.57Z"/><path class="cls-1" d="M69.88,37.54c-.35-.29-.67-.59-1-.85a3.09,3.09,0,0,1-.48-.4.91.91,0,0,1-.3-.58,6.45,6.45,0,0,1,0-1.16,1,1,0,0,1,.28-.72.2.2,0,0,1,.26,0,2.41,2.41,0,0,0,.48.3c.17.07.3.17.46.24a2.16,2.16,0,0,1,.67.52,6.73,6.73,0,0,1,.52.65,1.15,1.15,0,0,0,.27.27,1.79,1.79,0,0,1,.48.51c.15.21.33.4.46.62s.33.67.49,1,.23.51.33.76c0,.09.1.13.18.1a.21.21,0,0,0,.1-.15c.09-.42.13-.85.25-1.25a7.08,7.08,0,0,0,.16-.9,3.38,3.38,0,0,0,0-1.14,12.68,12.68,0,0,1-.09-1.74,6.22,6.22,0,0,1,.06-1.67s0,0,0,0c-.11-.28.05-.56,0-.84a3.59,3.59,0,0,1,.28-1.55c.13-.3.31-.58.46-.85a1.21,1.21,0,0,1,1,.51c.16.17.35.31.51.48a.45.45,0,0,1,.13.37,2.46,2.46,0,0,1-.38,1.19.91.91,0,0,1-.51-.49.77.77,0,0,0-.59-.42.24.24,0,0,0-.24.11,1.08,1.08,0,0,0-.22.61c-.07.59-.13,1.18-.16,1.78,0,.34,0,.69,0,1,0,.63.07,1.27.07,1.9,0,.46-.08.92-.12,1.38,0,.3,0,.61-.09.91a3.44,3.44,0,0,1-.12.64,5.8,5.8,0,0,0-.2.92,1.74,1.74,0,0,1-.19.69,2.35,2.35,0,0,0-.11.49,3,3,0,0,1-.17.41l-.07,0a.75.75,0,0,1-.07-.12c-.16-.53-.31-1.06-.49-1.58a5.42,5.42,0,0,0-.35-.73c-.18-.31-.38-.6-.58-.9s-.22-.25-.42-.17l-.19-.37a1.24,1.24,0,0,0-.14-.18c-.16-.16-.3-.13-.41.06s-.1.18-.16.27S70,37.5,69.88,37.54Z"/><path class="cls-1" d="M169.27,24.15c.15.46.28.88.44,1.29.3.77.62,1.54.93,2.31.07.17.14.34.2.51a1.46,1.46,0,0,1,0,.3l-.7-.37c-.19-.1-.31-.06-.33.17a4,4,0,0,0,0,.49c.13,1.12.26,2.23.38,3.35.09.74.17,1.47.26,2.21,0,.42.12.84.17,1.25.11.83.21,1.66.33,2.49s.22,1.5.33,2.25.22,1.55.31,2.32a3.32,3.32,0,0,1,0,.63c0,.23,0,.46,0,.69a5.19,5.19,0,0,1-.37,1.83s0,.05-.06.08a.18.18,0,0,1-.17-.21,5.3,5.3,0,0,1,0-.69A8.12,8.12,0,0,0,170.8,43c-.1-.55-.16-1.11-.23-1.66-.19-1.34-.39-2.68-.57-4-.14-1.05-.25-2.1-.38-3.15-.08-.67-.18-1.33-.25-2s-.11-1.09-.16-1.64-.12-1.19-.17-1.78-.08-1-.09-1.49a2.23,2.23,0,0,0-.19-.81c-.24-.62-.26-.63,0-1.23A2.65,2.65,0,0,1,169.27,24.15Z"/><path class="cls-1" d="M116.87,24.15c.15.46.27.88.43,1.29.3.77.62,1.54.94,2.31.06.17.14.34.19.51a.91.91,0,0,1,0,.3l-.71-.37c-.19-.1-.3-.06-.32.17a2,2,0,0,0,0,.49c.12,1.12.25,2.23.38,3.35.08.74.16,1.47.25,2.21,0,.42.12.84.17,1.25l.33,2.49c.11.75.23,1.5.34,2.25s.22,1.55.31,2.32a4.42,4.42,0,0,1,0,.63,5.3,5.3,0,0,0,0,.69,5.43,5.43,0,0,1-.37,1.83s-.05.05-.07.08-.16-.11-.17-.21,0-.46,0-.69a8.12,8.12,0,0,0-.15-2.09c-.09-.55-.15-1.11-.23-1.66-.19-1.34-.38-2.68-.56-4-.14-1.05-.25-2.1-.38-3.15-.09-.67-.18-1.33-.26-2s-.1-1.09-.15-1.64-.13-1.19-.18-1.78-.07-1-.08-1.49a2.47,2.47,0,0,0-.2-.81c-.23-.62-.26-.63,0-1.23A2.54,2.54,0,0,1,116.87,24.15Z"/><path class="cls-1" d="M141.52,51.33l-.18-.09a4.68,4.68,0,0,0-1-.5c-.15-.07-.28-.17-.42-.25a.36.36,0,0,1-.14-.41c.1-.37.22-.73.35-1.1a1.18,1.18,0,0,1,.14-.23l.76.45a.84.84,0,0,0,.17,0,1.62,1.62,0,0,1,.91.56c.17,0,.24-.15.29-.31s.17-.55.27-.82.13-.25.2-.39l.72.48.91.56a.19.19,0,0,1,.06.27l-.39.87a1.28,1.28,0,0,1-.11.2c-.15.24-.29.27-.53.11a9.15,9.15,0,0,1-.8-.59.54.54,0,0,0-.64-.06.49.49,0,0,0-.15.19l-.3.78C141.61,51.17,141.57,51.24,141.52,51.33Z"/><path class="cls-1" d="M132.18,41.33c-.49-.23-1-.43-1.39-.66-.17-.09-.39-.19-.38-.46a.41.41,0,0,1,0-.11l.35-1.1a1.35,1.35,0,0,1,.14-.22l.76.44a.53.53,0,0,0,.19.05,1.6,1.6,0,0,1,.88.56c.19,0,.26-.14.3-.3s.18-.55.28-.82a2.78,2.78,0,0,1,.19-.39l.81.53.81.5a.18.18,0,0,1,.07.27c-.11.27-.23.53-.35.79a2.49,2.49,0,0,1-.15.28c-.15.25-.29.28-.52.11s-.56-.4-.83-.6a.5.5,0,0,0-.51-.09.36.36,0,0,0-.27.26C132.44,40.69,132.31,41,132.18,41.33Z"/><path class="cls-1" d="M142.16,35.3a1.29,1.29,0,0,1,.3.21,3.09,3.09,0,0,1,.36.45.37.37,0,0,1,.07.24c-.07.31-.15.61-.25,1l-.59-.72a.93.93,0,0,0-.27.63,6.66,6.66,0,0,0,0,1.67,6.3,6.3,0,0,1-.06,1.79c0,.33-.11.66-.18,1a.48.48,0,0,1-.05.14c-.17-.06-.21-.21-.27-.33a6.18,6.18,0,0,0-1-1.5,2,2,0,0,0-.61-.53l-.14.51-.94-.69a.33.33,0,0,1-.15-.35c0-.35.09-.71.15-1.06a3,3,0,0,1,.11-.31,6.86,6.86,0,0,1,1.68,1.21,10.32,10.32,0,0,1,1.17,1.64,3.38,3.38,0,0,0,0-.45,8.27,8.27,0,0,1,0-2.58,8.75,8.75,0,0,1,.34-1.43A3.18,3.18,0,0,1,142.16,35.3Z"/><path class="cls-1" d="M91.79,29.69l-.66-.2-1-.35a.55.55,0,0,0-.22,0,2.46,2.46,0,0,0-.37,0l-.24.38c-.22,0-.26-.07-.22-.23.08-.32.16-.64.26-.95a1.76,1.76,0,0,1,.66-.77.78.78,0,0,1,.77-.08c.3.1.59.23.9.32s.73.21,1.1.32.37.25.23.52c-.25.47-.51.95-.79,1.4a1,1,0,0,1-.38.35c-.38.24-.77.46-1.16.69-.09.05-.19.08-.26,0a.18.18,0,0,1,.06-.26l.7-.5.41-.26A.47.47,0,0,0,91.79,29.69Z"/><path class="cls-1" d="M81.9,47.79l1.74.83a3.85,3.85,0,0,1,.73-1.42c.45.26.9.5,1.34.76.19.11.19.12.09.33l-.63,1.23s0,0-.06.06l-1.51-.84a14.1,14.1,0,0,1-.74,1.45l-1.57-.8A3.17,3.17,0,0,1,81.9,47.79Z"/><path class="cls-1" d="M156.58,33.05,158,34a.58.58,0,0,0,.39-.41,3.61,3.61,0,0,1,.26-.61c.05-.1.13-.19.2-.3l.63.43c.29.19.56.41.85.6a.21.21,0,0,1,.09.31c-.19.37-.39.73-.6,1.09-.11.17-.24.17-.42,0l-1.21-.88c-.13-.09-.19,0-.28.12l-.55,1a.77.77,0,0,1-.09.13,1,1,0,0,1-.21-.11l-.94-.66a.27.27,0,0,1-.13-.32c.18-.45.37-.9.56-1.36C156.51,33.09,156.54,33.08,156.58,33.05Z"/><path class="cls-1" d="M107.62,35.84l-1.38-.67c-.15.28-.3.57-.44.86s-.17.27-.44.13-.78-.41-1.17-.61l-.16-.08a4.71,4.71,0,0,1,.61-1.58c.61.24,1.17.52,1.76.82a6.4,6.4,0,0,1,.61-1.23l.35.22c.26.16.53.31.79.48s.22.16.13.42A6.41,6.41,0,0,1,107.62,35.84Z"/><path class="cls-1" d="M124.64,27.65c0,.12,0,.23-.09.35l-.9,2.31a1,1,0,0,0-.05.16,5.84,5.84,0,0,0-.19,2.12,3.26,3.26,0,0,0,.32,1.27,3.91,3.91,0,0,0,.4.6.74.74,0,0,0,1.25-.16l.2-.44.14-.25c.16.09.13.19.09.29-.17.45-.34.9-.53,1.34a1.05,1.05,0,0,1-.51.53.71.71,0,0,1-.74-.06,2.34,2.34,0,0,1-.39-.38,3.38,3.38,0,0,1-.63-1.68,8.32,8.32,0,0,1,.88-4.52c.16-.35.28-.72.42-1.08a3.36,3.36,0,0,1,.16-.33s.08-.07.13-.1Z"/><path class="cls-1" d="M149.5,37.2c0,.1,0,.17,0,.23-.19.45-.38.9-.59,1.34a1.28,1.28,0,0,1-.24.32.46.46,0,0,1-.67.1,3,3,0,0,1-.59-.54,5.27,5.27,0,0,1-.46-.7,3.85,3.85,0,0,1-.44-2,9.05,9.05,0,0,1,.27-2.08,12.32,12.32,0,0,1,.32-1.23,3.89,3.89,0,0,1,.31-.61s.08-.05.16-.09a.84.84,0,0,1-.05.18,11.33,11.33,0,0,0-.59,2.82,3.69,3.69,0,0,0,1.19,3,.54.54,0,0,0,.92-.1,5,5,0,0,0,.24-.46C149.32,37.37,149.33,37.25,149.5,37.2Z"/><path class="cls-1" d="M101.41,48.44a.43.43,0,0,1-.11.61c-.22.21-.46.41-.66.64a4.51,4.51,0,0,0-.44.61l-.08.15c-.16.43,0,.63.41.72a2.25,2.25,0,0,0,1.42-.25c.39-.18.77-.4,1.15-.6a1,1,0,0,1,.25-.08l0,0a1.45,1.45,0,0,1-.17.18,9.1,9.1,0,0,1-1.79,1.15,1.44,1.44,0,0,1-1.15.08.59.59,0,0,1-.44-.6,2.23,2.23,0,0,1,.38-1.37c.06-.09.11-.19.16-.28s0-.06,0-.07a.61.61,0,0,1-.36-.8,1,1,0,0,1,.6-.86c.31.21.31.23.06.67-.24-.08-.25-.08-.39.2a.58.58,0,0,0,.74.11Z"/><path class="cls-1" d="M149.8,49.93l-1.08-.58c-.28-.14-.36-.24-.28-.54a6.63,6.63,0,0,1,.32-1,1.43,1.43,0,0,1,.27-.35l1.2.7a.29.29,0,0,1,.14.41A9.6,9.6,0,0,1,149.8,49.93Z"/><path class="cls-1" d="M155.93,29c0,.11.09.15.09.2a5.35,5.35,0,0,0,.33,1.1,1.49,1.49,0,0,1,0,.91.79.79,0,0,1-.39.45.39.39,0,0,1-.46,0l-.32-.22-.14.25a.86.86,0,0,1-.44.4.34.34,0,0,1-.45-.12,2,2,0,0,1-.3-.89c0-.1,0-.19,0-.29s-.11-.2-.27-.16-.11.06-.16.06a1.09,1.09,0,0,1-.18,0c0-.07,0-.15,0-.19s.33-.33.5-.5a.53.53,0,0,1,.3.42,6,6,0,0,0,.12.74c0,.18.09.38.3.43s.34-.1.46-.24a.49.49,0,0,0,.16-.44,1.58,1.58,0,0,0-.26-.87.33.33,0,0,1,0-.22c0-.15.05-.3.08-.49a1.1,1.1,0,0,1,.31.55c0,.26.1.52.14.79A.47.47,0,0,0,156,31a.24.24,0,0,0,.11-.32,5.69,5.69,0,0,0-.32-.71.92.92,0,0,1-.08-.72C155.76,29.18,155.84,29.11,155.93,29Z"/><path class="cls-1" d="M102.75,32.56a1.59,1.59,0,0,1,.07.2c.06.21.09.41.15.61a1.71,1.71,0,0,1,0,1.22,1.17,1.17,0,0,1-.27.36.51.51,0,0,1-.71,0l-.23-.2-.14.22a1,1,0,0,1-.44.44.4.4,0,0,1-.54-.1,2.73,2.73,0,0,1-.27-.47,2.15,2.15,0,0,1-.11-.36c0-.16-.1-.27-.31-.25s-.21-.13-.11-.26a3.77,3.77,0,0,1,.4-.42,1.62,1.62,0,0,1,.15.29c.06.19.11.38.16.58s.27.45.52.43a.63.63,0,0,0,.52-.75,2.09,2.09,0,0,1-.18-.89c0-.11,0-.22.07-.34.15,0,.16.15.19.25.07.32.14.64.23,1a.52.52,0,0,0,.85.26.27.27,0,0,0,.11-.3c0-.16-.09-.31-.14-.47a2.29,2.29,0,0,1,0-1Z"/><path class="cls-1" d="M74.37,52.43l.83-.31,2.48-.94,2.19-.9c.09,0,.21-.14.28,0s0,.19-.06.29a.38.38,0,0,1-.28.25c-.36.13-.7.31-1.06.45-1,.4-2,.79-3,1.17a1.84,1.84,0,0,1-.53.09h-.89Z"/><path class="cls-1" d="M132.12,30.77a2.31,2.31,0,0,1-.1.34c-.08.21-.15.42-.24.62a1.73,1.73,0,0,1-.18.36.64.64,0,0,1-.75.19.49.49,0,0,1-.17-.18,2.52,2.52,0,0,1-.3-1.42A9.86,9.86,0,0,1,131,28c.1-.28.12-.3.33-.43a1,1,0,0,1,0,.2,8.82,8.82,0,0,0-.44,2A2.51,2.51,0,0,0,131,31a.41.41,0,0,0,.43.27.38.38,0,0,0,.38-.29C131.87,30.9,131.9,30.75,132.12,30.77Z"/><path class="cls-1" d="M133.5,53.53c0-.31,0-.56.29-.71l.86-.47c.64-.33,1.28-.66,1.93-1l1.32-.64.16-.07c.1,0,.2,0,.16.13s-.1.38-.35.49c-.56.23-1.1.5-1.64.78s-1.27.68-1.9,1l-.63.36Z"/><path class="cls-1" d="M157.46,26.43a.71.71,0,0,1-.29.59c-.51.29-1,.59-1.53.86A25.42,25.42,0,0,0,153,29.53l-.29.23h-.05a.94.94,0,0,1,.42-.77c.82-.49,1.62-1,2.43-1.5.6-.35,1.21-.67,1.82-1Z"/><path class="cls-1" d="M156,50.4a.75.75,0,0,1-.4.57c-.62.33-1.22.69-1.82,1.05s-1.08.66-1.62,1l-.17.07c0-.22,0-.4.17-.51l2.72-1.64c.31-.19.64-.35,1-.51C155.85,50.4,155.91,50.41,156,50.4Z"/><path class="cls-1" d="M200.56,36.4a1,1,0,0,1,.22.2c.26.33.51.67.76,1a1,1,0,0,1,.22.65,1.8,1.8,0,0,0,0,.22,1.34,1.34,0,0,1,0,.4,1.34,1.34,0,0,0,.07.86,5.54,5.54,0,0,1,.5,1.73,7.83,7.83,0,0,1-.12,1.29c0,.23-.08.44-.11.66a3.24,3.24,0,0,1-.57,1.5l-.64.86a1.05,1.05,0,0,0-.17.31c-.09.37-.17.74-.23,1.12A3.37,3.37,0,0,0,202,50.59a3.69,3.69,0,0,0,2.94.34,14.65,14.65,0,0,0,3.76-1.81,25.41,25.41,0,0,0,2.57-1.82A11.2,11.2,0,0,0,213,45.86l.22-.27a.5.5,0,0,0-.27-.84,2.75,2.75,0,0,0-1.14,0l-1.29.17a2.46,2.46,0,0,1-.47,0,1,1,0,0,1-1-1,6.82,6.82,0,0,1,.22-2,1.53,1.53,0,0,1,.4-.75,1.42,1.42,0,0,1,1.67-.39,3.86,3.86,0,0,1,1.54,1A4.45,4.45,0,0,1,214,44.11a1.48,1.48,0,0,1,0,.47c-.08.5-.18,1-.28,1.5a3.81,3.81,0,0,1-1.37,2.19c-.88.74-1.74,1.49-2.68,2.15a18.89,18.89,0,0,1-3.56,2.07,5.6,5.6,0,0,1-2.2.53,3.69,3.69,0,0,1-2.41-.9,4.21,4.21,0,0,1-1.4-2.9,7.44,7.44,0,0,1,.25-2.83c-.12.07-.2.1-.27.15-.5.37-1,.76-1.51,1.1-.73.47-1.49.91-2.24,1.36,0,0-.05,0-.08,0-.29,0-.5.27-.77.37s-.52.3-.79.39a12.08,12.08,0,0,0-1.2.58,3.24,3.24,0,0,1-1.07.27c-.78.09-1.56.13-2.34.21a12.2,12.2,0,0,0-3,.54c-.09,0-.18.06-.25,0a.25.25,0,0,1,.11-.33,3.8,3.8,0,0,1,.47-.18l2.86-1c.63-.21,1.22-.53,1.83-.79s1.5-.58,2.22-.94a37.38,37.38,0,0,0,3.27-1.83,29.14,29.14,0,0,0,2.67-1.88,6.21,6.21,0,0,0,1.16-1.13l.13-.18a1,1,0,0,0,.14-1.09c-.23-.51-.43-1-.62-1.57a6.81,6.81,0,0,1-.19-.92,1.15,1.15,0,0,0-.06-.28c-.15-.32-.32-.64-.49-1a.64.64,0,0,1-.08-.2c0-.28,0-.56.06-.85,0-.09,0-.18,0-.28l.12-.58Zm10.79,6.44c-.56-.42-1.18-.42-1.49,0C210.34,43.09,210.81,42.83,211.35,42.84Z"/><path class="cls-1" d="M186.26,35.72a1.66,1.66,0,0,1,.24.18l1.16,1.26a.61.61,0,0,1,.17.72,2.68,2.68,0,0,1-.07.27,1.54,1.54,0,0,0,.11,1.34,4.07,4.07,0,0,1,.4,1.79,5.52,5.52,0,0,1-.15,1.06,4.56,4.56,0,0,1-1.1,2.42c-.32.32-.66.62-1,.94A11.91,11.91,0,0,1,184.29,47c-.14.09-.26.22-.4.31s-.54.31-.81.46c0,0-.11,0-.14.06a9.21,9.21,0,0,1-1.61,1,15.9,15.9,0,0,1-1.75.88,12.82,12.82,0,0,1-3.2.9c-.64.12-1.28.3-1.92.43a7.41,7.41,0,0,1-1.12.3s-.09,0-.12,0-.18-.07-.2-.14,0-.15.09-.2a.5.5,0,0,1,.21-.13l1.33-.5c.8-.33,1.59-.66,2.37-1,.22-.09.41-.23.62-.33.36-.17.74-.31,1.1-.48.58-.29,1.16-.58,1.71-.9.85-.5,1.68-1,2.52-1.54.66-.42,1.32-.83,1.95-1.29a13.08,13.08,0,0,0,2.46-2.24.94.94,0,0,0,.14-1.08,11,11,0,0,1-.52-1.3,8.43,8.43,0,0,1-.51-2,.5.5,0,0,0-.13-.25,1.54,1.54,0,0,1-.31-1.31,5.09,5.09,0,0,1,.12-.68A1.23,1.23,0,0,1,186.26,35.72Z"/><path class="cls-1" d="M178,40.19c-.28-.22-.55-.41-.8-.62s-.58-.53-.86-.8a.38.38,0,0,1-.14-.33.28.28,0,0,0-.21-.32l-.18-.07a.71.71,0,0,1-.47-.84c0-.28.07-.56.11-.84a1.6,1.6,0,0,1,0-.21c.06-.24.09-.25.32-.13l.95.43a6,6,0,0,1,.56.3.39.39,0,0,1,.17.46c-.11.52-.11.52.33.81l1,.62a.23.23,0,0,0,.35-.07c.33-.47.67-.93,1-1.39l.84-1.11a10.68,10.68,0,0,0,.63-.87,6.66,6.66,0,0,1,.89-1.15l.1-.07c.16.09.11.2.06.31-.17.35-.34.7-.53,1-.31.53-.64,1-1,1.56-.12.19-.27.35-.4.53l-.95,1.27a.22.22,0,0,0-.05.08c-.17.26-.15.31.12.47a6,6,0,0,1,.95.62,1.88,1.88,0,0,1,.65,1.62c0,.57-.16,1.14-.24,1.72a1.51,1.51,0,0,1-.54.87A6.47,6.47,0,0,1,179,45.29a2.5,2.5,0,0,1-.85.23,1.22,1.22,0,0,1-1.33-1.19,6.85,6.85,0,0,1,.31-2.51,5.73,5.73,0,0,1,.48-1C177.74,40.61,177.89,40.42,178,40.19Zm.67.39-.08,0a10.49,10.49,0,0,0-1.28,2.23.5.5,0,0,0,0,.27.84.84,0,0,0,.89.51,4,4,0,0,0,1.22-.43,6.67,6.67,0,0,0,1.33-.91c.16-.16.18-.23,0-.37a4.11,4.11,0,0,0-.68-.57C179.67,41.07,179.19,40.84,178.71,40.58Z"/><path class="cls-1" d="M190.82,24.2c.2,0,.24.14.3.25s.19.47.42.62c0,0,0,.07.05.11.08.23.17.46.26.68a1.34,1.34,0,0,0,.37.54,1.57,1.57,0,0,1,.34.46c.14.29.26.59.38.9s.05.23-.1.4a.78.78,0,0,0-.81-.41c0,.1,0,.18,0,.25.15.71.32,1.41.46,2.11.09.45.14.9.22,1.35s.22,1.18.33,1.78.27,1.45.41,2.18l.54,2.89a24.06,24.06,0,0,1,.51,3.17c0,.54,0,1.1.1,1.64a4.88,4.88,0,0,1-.1,1.57c0,.22-.07.44-.12.66s-.05.19-.08.29c-.19,0-.18-.16-.19-.28-.06-.8-.09-1.6-.19-2.4s-.24-1.7-.39-2.54-.31-1.66-.47-2.49-.31-1.47-.45-2.21c-.2-1.09-.39-2.19-.6-3.28-.16-.8-.34-1.59-.49-2.39s-.3-1.8-.48-2.69a2.21,2.21,0,0,0-.29-.79,1.73,1.73,0,0,1-.19-1.54c0-.16.06-.32.1-.47S190.78,24.31,190.82,24.2Z"/><path class="cls-1" d="M176.81,29.22l1.67,1.07c.2,0,.23-.22.3-.37.15-.33.29-.66.44-1a1.92,1.92,0,0,1,.18-.29l1.1.67c.17.11.35.21.51.33a.29.29,0,0,1,.1.42c-.25.42-.51.83-.77,1.24,0,0-.05,0-.1.08l-.65-.41c-.24-.14-.47-.29-.71-.42s-.39-.08-.51.16l-.57,1.06-.15.2-.65-.39c-.27-.16-.54-.34-.81-.51a.25.25,0,0,1-.13-.29,4.38,4.38,0,0,1,.66-1.5S176.77,29.25,176.81,29.22Z"/><path class="cls-1" d="M204,37.15c0-.35,0-.7.37-.92.63-.37,1.24-.77,1.87-1.15.85-.51,1.7-1,2.56-1.52.43-.25.89-.46,1.33-.69.24-.13.46-.28.71-.43,0,0,.06.05.06.08a.89.89,0,0,1-.35.65c-1.36.79-2.72,1.57-4.06,2.36-.7.41-1.37.85-2,1.28C204.27,36.91,204.14,37,204,37.15Z"/><path class="cls-1" d="M201.53,29.57c0-.6.38-.87.75-1.13.54-.38,1.09-.73,1.65-1.08.74-.47,1.49-.93,2.24-1.37s1.53-.87,2.31-1.31c0,0,.06.09.05.12-.12.23-.16.49-.42.64-.7.39-1.39.8-2.08,1.21l-1.57,1c-.57.36-1.14.72-1.7,1.1-.36.24-.7.51-1.06.76A.54.54,0,0,1,201.53,29.57Z"/><path class="cls-1" d="M198.64,30a9.42,9.42,0,0,1,1.55.91c.23.18.25.28.12.55s-.29.66-.45,1a1.65,1.65,0,0,1-.18.31,1.62,1.62,0,0,1-.17-.06c-.41-.25-.82-.51-1.24-.75a.33.33,0,0,1-.18-.39,5.11,5.11,0,0,1,.36-1.21C198.5,30.26,198.57,30.15,198.64,30Z"/><path class="cls-1" d="M173.84,28.76c.2-.17.4-.34.61-.49.49-.38,1-.72,1.46-1.11a9.65,9.65,0,0,0,1-1,3.54,3.54,0,0,0,.42-.68c-.18-.15-.29-.3-.51-.35a.37.37,0,0,1-.26-.39,3,3,0,0,1,.09-.74,1.09,1.09,0,0,1,.62-.69.42.42,0,0,1,.64.37c0,.25,0,.5,0,.76s0,.35,0,.52c.48.38.5.46.16.89l-.48-.29c-.06.13-.12.24-.16.35a3.85,3.85,0,0,1-1.82,1.95c-.48.27-1,.57-1.42.85l-.23.14Zm3.74-3.94c0-.19.06-.35.06-.5,0-.34-.18-.47-.49-.33l-.16.1c-.16.14-.14.33.07.38a.4.4,0,0,1,.29.2C177.39,24.73,177.48,24.76,177.58,24.82Z"/><path class="cls-1" d="M190.24,28.77c-.11.24-.14.51-.41.65-.68.38-1.36.74-2,1.14-.86.52-1.7,1.07-2.55,1.61-.11.07-.21.17-.32.25h-.06c.07-.33.1-.65.45-.86.9-.54,1.78-1.12,2.68-1.65.66-.4,1.35-.75,2-1.12l.13-.06Z"/><path class="cls-1" d="M205.59,36.82a.23.23,0,0,1,.14.29c-.07.4-.16.81-.24,1.21s-.17.72-.21,1.08-.07.82-.1,1.23a3.65,3.65,0,0,0,.28,1.46.43.43,0,0,0,.8.09,4.19,4.19,0,0,0,.33-.71.37.37,0,0,1,.1.41c-.07.31-.18.61-.28.91a.53.53,0,0,1-.55.35.6.6,0,0,1-.54-.38,6.26,6.26,0,0,1-.33-1.12,8.19,8.19,0,0,1,0-2.37,6.07,6.07,0,0,1,.32-1.51c.07-.21.08-.44.13-.65A1.66,1.66,0,0,1,205.59,36.82Z"/><path class="cls-1" d="M198.56,39.76a.4.4,0,0,1,.13.45,6.31,6.31,0,0,1-.28.87.52.52,0,0,1-.56.37.62.62,0,0,1-.55-.42,4.2,4.2,0,0,1-.37-1.56,14.1,14.1,0,0,1,.26-2.9c.08-.41.2-.82.31-1.22,0-.07.06-.13.09-.21a.23.23,0,0,1,.14.29c-.08.41-.16.81-.25,1.21s-.16.7-.21,1.06-.07.86-.09,1.29a3.46,3.46,0,0,0,.28,1.42.45.45,0,0,0,.81.08,1.09,1.09,0,0,0,.17-.34A3,3,0,0,0,198.56,39.76Z"/><path class="cls-1" d="M190.28,35.13a.26.26,0,0,1,.13.33c-.09.42-.19.84-.28,1.27s-.13.64-.17,1-.08.86-.09,1.29a3.28,3.28,0,0,0,.28,1.42.44.44,0,0,0,.8.09,3.29,3.29,0,0,0,.26-.61.83.83,0,0,0,0-.12.39.39,0,0,1,.12.45,7.25,7.25,0,0,1-.27.87.54.54,0,0,1-.57.37A.62.62,0,0,1,190,41a4.4,4.4,0,0,1-.37-1.6,14.44,14.44,0,0,1,.27-2.86c.07-.42.2-.82.3-1.23A2,2,0,0,1,190.28,35.13Z"/><path class="cls-1" d="M184.4,30.12a3.21,3.21,0,0,1,.07.36,2.05,2.05,0,0,1-.27,1,.57.57,0,0,1-.58.37.67.67,0,0,1-.55-.43,4.62,4.62,0,0,1-.36-1.73,16.67,16.67,0,0,1,.23-2.55c0-.15.08-.29.12-.43l.18-.8c0-.13.08-.25.13-.38a.24.24,0,0,1,.13.32c-.07.41-.16.81-.24,1.21a7.08,7.08,0,0,0-.17.77c-.06.54-.11,1.08-.13,1.61a3.2,3.2,0,0,0,.29,1.36.44.44,0,0,0,.8.08A6.82,6.82,0,0,0,184.4,30.12Z"/></g></g></svg>